<svg width="1em" version="1.1" viewBox="0 0 1024 1024" xmlns="http://www.w3.org/2000/svg" height="1em">
<g>
<path d="M194.467 763.845C176.757 763.845 162.363 775.842 162.363 790.687L162.363 806.828C162.363 807.681 162.586 808.475 162.679 809.307C162.618 809.921 162.363 810.518 162.363 811.135C162.363 855.124 318.343 890.748 510.72 890.749L528.24 890.749C720.617 890.749 876.552 855.124 876.552 811.135C876.552 810.532 876.294 809.951 876.236 809.351C876.332 808.503 876.552 807.696 876.552 806.828L876.552 790.687C876.552 775.842 862.203 763.845 844.493 763.845L194.467 763.845ZM228.829 833.714L810.132 833.714C746.839 853.666 644.282 866.647 528.24 866.647L510.72 866.647C394.678 866.647 292.134 853.666 228.829 833.714Z" fill="#aaafc0" opacity="1"/>
<path d="M161.75 354.875L161.75 464.75L161.75 678.062L161.75 682.688L161.75 787.969L161.75 792.562L162.375 792.562C172.852 834.399 324.506 867.625 510.094 867.625L527.625 867.625C713.213 867.625 864.805 834.399 875.281 792.562L875.938 792.562L875.938 787.969L875.938 682.688L875.938 464.75L875.938 354.875L161.75 354.875Z" fill="#f17171" opacity="1"/>
<path d="M351.373 595.234L351.373 595.234C392.616 588.452 432.064 616.908 439.484 658.792L440.057 662.026C447.476 703.91 420.058 743.362 378.815 750.144L378.815 750.144C337.573 756.927 298.124 728.471 290.704 686.587L290.132 683.353C282.712 641.469 310.131 602.017 351.373 595.234Z" fill="#f7f8ff" opacity="1"/>
<path d="M629.973 595.117L629.973 595.117C671.434 600.528 700.246 639.047 694.327 681.153L693.87 684.403C687.951 726.509 649.542 756.256 608.082 750.845L608.082 750.845C566.622 745.435 537.81 706.916 543.729 664.81L544.185 661.559C550.104 619.454 588.513 589.707 629.973 595.117Z" fill="#f7f8ff" opacity="1"/>
<path d="M369.578 648.627L369.578 648.627C392.519 644.854 414.291 659.714 418.206 681.818L418.704 684.627C422.62 706.73 407.196 727.707 384.255 731.48L384.255 731.48C361.314 735.253 339.542 720.393 335.626 698.289L335.129 695.48C331.213 673.377 346.637 652.4 369.578 648.627Z" fill="#000000" opacity="1"/>
<path d="M613.355 646.812L613.355 646.812C636.418 649.822 652.581 670.275 649.458 692.495L649.061 695.319C645.937 717.539 624.709 733.113 601.647 730.103L601.647 730.103C578.585 727.094 562.421 706.641 565.545 684.42L565.942 681.597C569.065 659.376 590.293 643.803 613.355 646.812Z" fill="#000000" opacity="1"/>
<path d="M486.891 832.744L479.939 826.456C471.939 819.22 469.194 814.779 486.362 814.779L518.278 815.461C535.445 815.461 530.816 819.22 522.815 826.456L515.863 832.744C507.863 839.98 494.892 839.98 486.891 832.744Z" fill="#fb6163" fill-opacity="0.792792" opacity="1"/>
<path d="M458.67 794.645C462.9 807.03 496.972 829.912 504.049 800.18C516.606 829.577 544.2 805.548 544.976 798.125" fill="none" opacity="1" stroke="#974e07"/>
<path d="M210.7 437.082C177.859 479.254 200.186 544.308 255.821 548.945C308.23 553.313 339.448 497.333 319.151 452.379C309.918 431.931 290.997 419.788 270.055 416.435C248.847 413.039 224.969 418.76 210.7 437.082Z" fill="#efefef" filter="url(#D5C3D5E2-73D6-44C2-88EF-7256B8CAC95B)" opacity="1" vectornator:shadowAngle="0.714395" vectornator:shadowColor="#000000" vectornator:shadowOffset="2.26744" vectornator:shadowOpacity="0.300251" vectornator:shadowRadius="13.0002"/>
<path d="M247.203 531.42C285.555 544.432 316.29 503.009 306.85 467.842C301.488 447.868 286.922 435.074 267.516 432.123C205.326 422.664 190.14 512.06 247.203 531.42Z" fill="#efefef" opacity="1" stroke="#f17171" stroke-linecap="round" stroke-linejoin="round" stroke-width="18"/>
<g filter="url(#F2093404-9898-471E-A273-EA5D8595607B)" opacity="1">
<path d="M241.074 461.326L285.265 469.655" fill="none" opacity="1" stroke="#c964ff"/>
<path d="M262.868 467.534L257.504 506.264" fill="none" opacity="1" stroke="#c964ff"/>
</g>
<path d="M313.175 566.436C313.175 566.436 323.324 555.912 342.487 557.365" fill="none" opacity="1" stroke="#974e07"/>
<path d="M665.401 564.616C665.401 564.616 655.252 554.092 636.09 555.545" fill="none" opacity="1" stroke="#974e07"/>
<path d="M187.419 302.401C169.326 302.401 154.619 314.659 154.619 329.826L154.619 346.316C154.619 347.188 154.847 347.998 154.942 348.849C154.88 349.476 154.619 350.087 154.619 350.716C154.619 395.66 313.982 432.057 510.531 432.057L528.43 432.057C724.979 432.057 884.296 395.66 884.296 350.716C884.296 350.101 884.032 349.507 883.973 348.894C884.071 348.028 884.296 347.203 884.296 346.316L884.296 329.826C884.296 314.659 869.636 302.401 851.542 302.401L187.419 302.401ZM222.526 373.785L816.435 373.785C751.77 394.17 646.989 407.432 528.43 407.432L510.531 407.432C391.973 407.432 287.205 394.17 222.526 373.785Z" fill="#aaafc0" opacity="1"/>
<path d="M510.505 245.666L528.411 245.666C724.96 245.666 884.295 282.1 884.295 327.044L884.295 327.043C884.295 371.987 724.96 408.421 528.411 408.421L510.505 408.421C313.955 408.421 154.62 371.987 154.62 327.043L154.62 327.044C154.62 282.1 313.955 245.666 510.505 245.666Z" fill="#bbc7da" opacity="1"/>
<path d="M646.577 291.267C622.017 291.162 603.049 304.947 604.417 321.922C605.784 338.897 626.994 352.94 651.554 353.046L785.615 353.627C810.175 353.733 829.136 339.865 827.768 322.889C826.401 305.914 805.198 291.954 780.638 291.848L646.577 291.267ZM669.931 306.764L714.783 307.001C727.12 307.066 737.687 314.154 738.276 322.813C738.865 331.472 729.26 338.537 716.923 338.472L672.071 338.235C659.734 338.171 649.161 330.998 648.572 322.339C647.983 313.68 657.594 306.699 669.931 306.764ZM770.234 307.257L788.414 307.333C798.414 307.374 807.17 314.303 807.881 322.791C808.591 331.278 800.996 338.222 790.996 338.181L772.816 338.105C762.816 338.065 754.053 331.052 753.343 322.565C752.632 314.077 760.234 307.216 770.234 307.257Z" fill="#aaafc0" filter="url(#872DE387-ACB3-415F-BB54-041469D69E77)" opacity="1" vectornator:shadowAngle="0.785398" vectornator:shadowColor="#000000" vectornator:shadowOffset="3.04264" vectornator:shadowOpacity="0.505172" vectornator:shadowRadius="3.69792"/>
</g>
</svg>
