<svg xmlns="http://www.w3.org/2000/svg" width="1em" height="1em" viewBox="0 0 1024 1024" version="1.1">
<linearGradient id="LinearGradient" x1="119.259" gradientTransform="matrix(0.962872 0.290295 -0.323315 0.991078 557.403 -221.656)" gradientUnits="userSpaceOnUse" y2="653.112" x2="301.58" y1="383.376">
<stop stop-color="#b053bc" offset="0.115702"/>
<stop offset="0.838843" stop-color="#680c83"/>
</linearGradient>
<linearGradient x1="119.259" x2="301.58" gradientTransform="matrix(0.962872 0.290295 -0.323315 0.991078 557.403 -221.656)" gradientUnits="userSpaceOnUse" y1="383.376" y2="653.112" id="LinearGradient_2">
<stop offset="0.103306" stop-color="#ffb3c3"/>
<stop offset="0.828512" stop-color="#c07086"/>
</linearGradient>
<linearGradient id="LinearGradient_3" y2="565.698" x2="361.522" gradientTransform="matrix(0.886369 0.46298 -0.46298 0.886369 554.865 -166.103)" y1="334.673" x1="186.693" gradientUnits="userSpaceOnUse">
<stop offset="0" stop-color="#ffb3c3"/>
<stop offset="0.981405" stop-color="#d18297"/>
</linearGradient>
<linearGradient gradientUnits="userSpaceOnUse" gradientTransform="matrix(0.917919 0.413645 -0.401105 0.961112 240.167 -276.191)" x2="925.756" y2="523.806" x1="680.46" id="LinearGradient_4" y1="523.806">
<stop offset="0.115702" stop-color="#b053bc"/>
<stop offset="0.838843" stop-color="#680c83"/>
</linearGradient>
<linearGradient y2="645.218" gradientUnits="userSpaceOnUse" x2="882.094" y1="391.594" id="LinearGradient_5" x1="724.624" gradientTransform="matrix(0.917919 0.413645 -0.401105 0.961112 240.167 -276.191)">
<stop stop-color="#b3ffce" offset="0.072314"/>
<stop stop-color="#70c092" offset="0.836777"/>
</linearGradient>
<linearGradient x1="721.083" y2="590.576" id="LinearGradient_6" gradientTransform="matrix(0.979078 0.203488 -0.203488 0.979078 106.738 -35.9756)" y1="302.125" gradientUnits="userSpaceOnUse" x2="812.543">
<stop stop-color="#b3ffce" offset="0.0123967"/>
<stop offset="0.981405" stop-color="#86d5a6"/>
</linearGradient>
<linearGradient gradientUnits="userSpaceOnUse" gradientTransform="matrix(0.934607 -0.365949 0.380744 0.972393 -136.261 68.8312)" y2="653.112" y1="383.376" x1="119.259" x2="301.58" id="LinearGradient_7">
<stop offset="0.115702" stop-color="#b053bc"/>
<stop stop-color="#680c83" offset="0.838843"/>
</linearGradient>
<linearGradient y2="653.112" y1="383.376" x2="301.58" x1="119.259" id="LinearGradient_8" gradientTransform="matrix(0.934607 -0.365949 0.380744 0.972393 -136.261 68.8312)" gradientUnits="userSpaceOnUse">
<stop stop-color="#b3d5ff" offset="0.103306"/>
<stop stop-color="#7087c0" offset="0.836777"/>
</linearGradient>
<linearGradient y2="502.634" x2="571.317" y1="247.883" gradientTransform="matrix(0.931164 -0.364601 0.364601 0.931164 -356.883 340.44)" x1="433.951" id="LinearGradient_9" gradientUnits="userSpaceOnUse">
<stop stop-color="#b3d4ff" offset="0.11157"/>
<stop stop-color="#7087c0" offset="0.913223"/>
</linearGradient>
<g>
<path d="M211.823+328.432C211.157+328.098+209.823+326.686+209.823+327.432C209.823+328.634+211.157+329.432+211.823+330.432" opacity="1" fill="#f5ebed"/>
<g opacity="1">
<g opacity="1">
<path d="M539.376+145.374L746.678+207.874C754.655+210.279+759.137+218.311+756.689+225.814L647.942+559.165C645.494+566.668+637.043+570.801+629.067+568.397L421.764+505.897C413.787+503.492+409.305+495.46+411.753+487.957L520.5+154.606C522.948+147.103+531.399+142.969+539.376+145.374Z" opacity="1" fill="url(#LinearGradient)"/>
<path d="M539.376+145.374L746.678+207.874C754.655+210.279+759.137+218.311+756.689+225.814L647.942+559.165C645.494+566.668+637.043+570.801+629.067+568.397L421.764+505.897C413.787+503.492+409.305+495.46+411.753+487.957L520.5+154.606C522.948+147.103+531.399+142.969+539.376+145.374Z" fill="url(#LinearGradient_2)" opacity="1"/>
<path fill="#f5ebed" opacity="1" d="M551.006+174.49L720.029+225.448C726.532+227.409+730.107+234.203+728.012+240.623L634.964+525.851C632.869+532.271+625.899+535.886+619.396+533.925L450.373+482.967C443.869+481.006+440.295+474.212+442.389+467.792L535.438+182.564C537.532+176.144+544.503+172.529+551.006+174.49Z"/>
</g>
<g opacity="1">
<path fill="#f5ebed" opacity="1" d="M610.536+265.641C605.95+280.107+600.395+293.788+595.031+307.933C591.396+317.517+588.669+327.756+584.71+337.182C583.52+340.015+581.262+342.319+580.083+345.157C572.797+362.696+570.979+381.32+566.021+399.445C560.846+418.363+554.119+436.989+548.191+455.687"/>
<path fill="none" d="M610.536+265.641C607.455+275.167+603.995+284.548+600.417+293.896C598.32+299.375+596.136+304.825+594.139+310.341C591.492+317.651+589.341+325.134+586.601+332.411C585.828+334.465+585.099+336.634+584.036+338.56C583.042+340.361+581.726+341.964+580.749+343.775C579.4+346.274+578.504+349.101+577.591+351.781C572.307+367.295+570.289+383.661+566.021+399.445C560.887+418.427+554.23+436.983+548.191+455.687L548.191+455.687L548.191+455.687C554.23+436.983+560.887+418.427+566.021+399.445C570.289+383.661+572.307+367.295+577.591+351.781C578.504+349.101+579.4+346.274+580.749+343.775C581.726+341.964+583.042+340.361+584.036+338.56C585.099+336.634+585.828+334.465+586.601+332.411C589.341+325.134+591.492+317.651+594.139+310.341C596.136+304.825+598.32+299.375+600.417+293.896C603.995+284.548+607.455+275.167+610.536+265.641L610.536+265.641Z" opacity="1"/>
</g>
<path fill="#f5ebed" d="M543.867+462.708L541.914+458.942L542.519+457.035L544.425+457.64L544.425+457.64" opacity="1"/>
<path opacity="1" fill="url(#LinearGradient_3)" d="M663.279+225.132C657.097+221.903+646.891+223.707+640.39+224.448C635.342+225.023+630.306+225.711+625.274+226.414C603.534+229.453+580.062+232.228+561.003+244.267C554.485+248.384+547.414+256.526+548.068+264.984C549.174+279.263+567.687+281.704+578.194+282.833C594.989+284.637+618.614+285.878+632.992+295.254C637.855+298.425+641.471+303.193+645.911+306.933C654.992+314.582+666.563+324.396+657.113+336.735C648.205+348.367+629.89+349.929+616.648+350.82C601.7+351.826+586.535+350.3+571.663+351.979C558.334+353.483+542.302+356.523+529.611+361.009C518.269+365.017+495.937+381.076+501.074+395.413C507.4+413.07+533.026+403.515+545.91+402.631C569.874+400.987+606.297+405.394+615.767+432.075C622.858+452.054+593.218+450.395+582.207+450.472C554.266+450.667+526.236+451.992+499.623+461.577C492.946+463.981+484.512+467.403+482.624+475.24C480.015+486.073+495.521+485.681+501.152+485.622C504.69+485.585+508.232+485.703+511.766+485.531C530.937+484.593+549.575+478.642+568.835+480.118C571.07+480.289+573.313+480.439+575.526+480.795C577.221+481.068+578.871+481.568+580.532+482.001C581.345+482.212+586.589+482.963+587.198+484.074C588.017+485.568+583.168+486.068+580.168+486.742C578.01+487.227+575.877+487.824+573.717+488.303C566.362+489.937+558.253+491.305+551.283+493.492C549.912+493.922+547.698+493.399+546.253+493.682C543.72+494.178+538.355+496.289+536.407+497.697"/>
</g>
<g opacity="1">
<g opacity="1">
<path fill="url(#LinearGradient_4)" opacity="1" d="M741.396+340.107L939.02+429.163C946.625+432.59+950.327+441.266+947.291+448.543L812.378+771.815C809.341+779.091+800.715+782.212+793.111+778.785L595.486+689.729C587.882+686.302+584.179+677.626+587.216+670.349L722.128+347.077C725.165+339.801+733.791+336.68+741.396+340.107Z"/>
<path fill="url(#LinearGradient_5)" d="M741.396+340.107L939.02+429.163C946.625+432.59+950.327+441.266+947.291+448.543L812.378+771.815C809.341+779.091+800.715+782.212+793.111+778.785L595.486+689.729C587.882+686.302+584.179+677.626+587.216+670.349L722.128+347.077C725.165+339.801+733.791+336.68+741.396+340.107Z" opacity="1"/>
<path opacity="1" fill="#ebf5f1" d="M750.298+370.982L911.43+443.593C917.63+446.387+920.549+453.699+917.951+459.925L802.515+736.529C799.916+742.755+792.784+745.537+786.584+742.743L625.452+670.132C619.252+667.338+616.333+660.026+618.931+653.8L734.367+377.196C736.966+370.97+744.098+368.188+750.298+370.982Z"/>
</g>
<path d="M865.872+432.214C860.436+427.844+850.074+427.629+843.553+427.091C838.489+426.673+833.416+426.369+828.343+426.08C806.427+424.833+782.864+422.99+761.827+431.093C754.633+433.863+746.114+440.474+745.111+448.898C743.418+463.12+761.103+469.115+771.19+472.265C787.314+477.302+810.245+483.113+822.526+495.106C826.679+499.162+829.299+504.543+832.927+509.075C840.347+518.344+849.788+530.221+838.119+540.487C827.119+550.164+808.85+548.134+795.687+546.433C780.829+544.513+766.25+540.066+751.336+538.821C737.968+537.704+721.651+537.568+708.331+539.5C696.426+541.226+671.397+552.635+673.648+567.698C676.419+586.248+703.414+581.858+716.224+583.497C740.05+586.545+774.921+597.952+779.021+625.965C782.091+646.941+753.339+639.55+742.524+637.484C715.078+632.241+687.325+628.09+659.357+632.316C652.34+633.376+643.401+635.092+640.025+642.412C635.359+652.531+650.645+655.162+656.18+656.199C659.658+656.851+663.11+657.656+666.61+658.174C685.596+660.983+705.036+658.77+723.642+663.963C725.801+664.566+727.971+665.149+730.073+665.929C731.682+666.526+733.203+667.338+734.748+668.085C735.505+668.45+740.503+670.207+740.884+671.415C741.397+673.039+736.543+672.588+733.47+672.665C731.258+672.721+729.05+672.891+726.839+672.942C719.306+673.114+711.086+672.878+703.824+673.668C702.395+673.824+700.325+672.88+698.852+672.876C696.272+672.87+690.599+673.897+688.414+674.9" opacity="1" fill="url(#LinearGradient_6)"/>
</g>
<g opacity="1">
<g opacity="1">
<path d="M83.8988+366.357L285.116+287.57C292.859+284.538+301.472+288.049+304.355+295.41L432.419+622.477C435.301+629.839+431.361+638.264+423.619+641.296L222.401+720.083C214.659+723.115+206.046+719.604+203.163+712.243L75.099+385.176C72.2165+377.815+76.1563+369.389+83.8988+366.357Z" fill="url(#LinearGradient_7)" opacity="1"/>
<path fill="url(#LinearGradient_8)" d="M83.8988+366.357L285.116+287.57C292.859+284.538+301.472+288.049+304.355+295.41L432.419+622.477C435.301+629.839+431.361+638.264+423.619+641.296L222.401+720.083C214.659+723.115+206.046+719.604+203.163+712.243L75.099+385.176C72.2165+377.815+76.1563+369.389+83.8988+366.357Z" opacity="1"/>
<path opacity="1" d="M111.528+381.922L275.589+317.684C281.902+315.212+289.019+318.315+291.485+324.614L401.062+604.464C403.528+610.763+400.41+617.873+394.097+620.345L230.036+684.584C223.724+687.056+216.607+683.953+214.14+677.654L104.564+397.803C102.097+391.504+105.215+384.394+111.528+381.922Z" fill="#ebeff5"/>
</g>
<path d="M240.62+347.771C233.688+348.541+226.226+355.732+221.244+359.974C217.375+363.268+213.58+366.649+209.797+370.041C193.452+384.693+175.521+400.093+166.422+420.718C163.311+427.771+161.985+438.473+167.248+445.127C176.132+456.36+192.858+448.056+202.207+443.13C217.152+435.255+237.449+423.104+254.612+422.861C260.417+422.779+266.079+424.719+271.85+425.345C283.654+426.626+298.732+428.313+297.775+443.826C296.873+458.449+282.546+469.965+272.053+478.093C260.21+487.268+246.774+494.464+235.369+504.155C225.147+512.841+213.539+524.309+205.51+535.112C198.335+544.767+188.762+570.554+201.025+579.586C216.127+590.709+232.061+568.481+242.26+560.558C261.229+545.823+293.915+529.157+316.661+546.015C333.693+558.637+308.17+573.8+299.075+580.007C275.997+595.759+253.475+612.499+236.739+635.302C232.54+641.023+227.449+648.568+230.256+656.125C234.135+666.571+246.784+657.594+251.424+654.403C254.339+652.398+257.345+650.52+260.181+648.405C275.567+636.93+287.714+621.592+304.52+612.07C306.471+610.965+308.415+609.838+310.451+608.899C312.009+608.18+313.658+607.674+315.277+607.106C316.07+606.828+320.841+604.525+321.966+605.107C323.479+605.89+319.735+609.011+317.621+611.244C316.1+612.85+314.664+614.536+313.139+616.139C307.947+621.599+301.981+627.258+297.417+632.962C296.519+634.084+294.39+634.886+293.348+635.927C291.524+637.751+288.249+642.496+287.418+644.752" opacity="1" fill="url(#LinearGradient_9)"/>
</g>
<path stroke-linejoin="round" d="M344.665+458.74C339.918+447.841+345.276+435.97+356.599+432.3C368.164+428.091+380.981+433.348+385.145+444.008L401.138+485.058L458.6+357.749C463.81+347.736+475.567+346.163+483.723+349.508C491.879+352.853+498.765+362.072+493.894+372.864L454.231+457.691L503.636+351.28C507.045+343.726+517.351+337.721+528.42+342.261C539.488+346.801+542+358.062+538.59+365.617C538.59+365.617+491.071+470.896+492.289+468.198L533.719+376.409C537.129+368.854+545.104+361.893+558.503+367.389C570.155+372.168+573.058+381.032+566.238+396.141L524.834+487.872L554.061+423.12C557.47+415.566+564.968+402.015+581.28+408.705C597.592+415.395+592.425+429.902+589.015+437.457L512.901+587.811C498.765+609.113+481.372+615.289+449.974+617.039C428.524+615.073+405.106+598.637+405.106+598.637C405.106+598.637+379.822+581.232+375.954+566.856L344.665+458.74Z" stroke="#dea974" stroke-width="10" fill="#ffc87d" stroke-linecap="round" opacity="1"/>
</g>
</svg>
