<svg xmlns="http://www.w3.org/2000/svg" width="1em" height="1em" viewBox="0 0 1024 1024" version="1.1">
<linearGradient id="LinearGradient" x1="119.259" y1="383.376" y2="653.112" gradientUnits="userSpaceOnUse" x2="301.58" gradientTransform="matrix(0.962872 0.290295 -0.323315 0.991078 709.754 -64.3101)">
<stop stop-color="#b053bc" offset="0.115702"/>
<stop offset="0.838843" stop-color="#680c83"/>
</linearGradient>
<linearGradient id="LinearGradient_2" y1="383.376" x1="119.259" x2="301.58" gradientTransform="matrix(0.962872 0.290295 -0.323315 0.991078 709.754 -64.3101)" gradientUnits="userSpaceOnUse" y2="653.112">
<stop stop-color="#ffb3c3" offset="0.103306"/>
<stop offset="0.828512" stop-color="#c07086"/>
</linearGradient>
<linearGradient gradientUnits="userSpaceOnUse" x1="186.693" y2="565.698" id="LinearGradient_3" y1="334.673" x2="361.522" gradientTransform="matrix(0.886369 0.46298 -0.46298 0.886369 707.216 -8.75692)">
<stop stop-color="#ffb3c3" offset="0"/>
<stop stop-color="#d18297" offset="0.981405"/>
</linearGradient>
<linearGradient gradientTransform="matrix(0.942314 -0.354572 0.393934 0.964073 -453.745 154.399)" gradientUnits="userSpaceOnUse" x1="680.46" y2="523.806" x2="925.756" y1="523.806" id="LinearGradient_4">
<stop offset="0.115702" stop-color="#b053bc"/>
<stop offset="0.838843" stop-color="#680c83"/>
</linearGradient>
<linearGradient gradientUnits="userSpaceOnUse" x2="882.094" y1="391.594" id="LinearGradient_5" x1="724.624" y2="645.218" gradientTransform="matrix(0.942314 -0.354572 0.393934 0.964073 -453.745 154.399)">
<stop offset="0.072314" stop-color="#b3ffce"/>
<stop offset="0.836777" stop-color="#70c092"/>
</linearGradient>
<linearGradient y2="590.576" x1="721.083" gradientUnits="userSpaceOnUse" id="LinearGradient_6" y1="302.125" x2="812.543" gradientTransform="matrix(0.837365 -0.546645 0.546645 0.837365 -378.797 418.766)">
<stop stop-color="#b3ffce" offset="0.0123967"/>
<stop offset="0.981405" stop-color="#86d5a6"/>
</linearGradient>
<linearGradient y2="653.112" y1="383.376" id="LinearGradient_7" gradientTransform="matrix(0.983933 -0.198205 0.206218 1.02371 23.1949 25.855)" gradientUnits="userSpaceOnUse" x1="119.259" x2="301.58">
<stop offset="0.115702" stop-color="#b053bc"/>
<stop stop-color="#680c83" offset="0.838843"/>
</linearGradient>
<linearGradient x2="301.58" y2="653.112" gradientTransform="matrix(0.983933 -0.198205 0.206218 1.02371 23.1949 25.855)" y1="383.376" gradientUnits="userSpaceOnUse" x1="119.259" id="LinearGradient_8">
<stop offset="0.103306" stop-color="#b3d5ff"/>
<stop stop-color="#7087c0" offset="0.836777"/>
</linearGradient>
<linearGradient id="LinearGradient_9" y1="247.883" gradientTransform="matrix(0.980308 -0.197475 0.197475 0.980308 -241.215 255.056)" y2="502.634" x2="571.317" x1="433.951" gradientUnits="userSpaceOnUse">
<stop offset="0.11157" stop-color="#b3d4ff"/>
<stop stop-color="#7087c0" offset="0.913223"/>
</linearGradient>
<g>
<path opacity="1" fill="#f5ebed" d="M211.823+328.432C211.157+328.098+209.823+326.686+209.823+327.432C209.823+328.634+211.157+329.432+211.823+330.432"/>
<g opacity="1">
<g opacity="1">
<path d="M691.727+302.721L899.03+365.22C907.006+367.625+911.488+375.657+909.041+383.16L800.293+716.511C797.845+724.015+789.395+728.148+781.418+725.743L574.115+663.243C566.138+660.839+561.656+652.806+564.104+645.303L672.852+311.952C675.299+304.449+683.75+300.316+691.727+302.721Z" opacity="1" fill="url(#LinearGradient)"/>
<path opacity="1" d="M691.727+302.721L899.03+365.22C907.006+367.625+911.488+375.657+909.041+383.16L800.293+716.511C797.845+724.015+789.395+728.148+781.418+725.743L574.115+663.243C566.138+660.839+561.656+652.806+564.104+645.303L672.852+311.952C675.299+304.449+683.75+300.316+691.727+302.721Z" fill="url(#LinearGradient_2)"/>
<path fill="#f5ebed" d="M703.357+331.836L872.38+382.794C878.884+384.755+882.458+391.549+880.364+397.969L787.315+683.197C785.221+689.617+778.25+693.232+771.747+691.272L602.724+640.313C596.221+638.353+592.646+631.559+594.741+625.138L687.789+339.91C689.884+333.49+696.854+329.875+703.357+331.836Z" opacity="1"/>
</g>
<g opacity="1">
<path d="M762.887+422.988C758.301+437.453+752.747+451.134+747.382+465.28C743.748+474.863+741.02+485.102+737.061+494.528C735.871+497.361+733.614+499.665+732.435+502.503C725.149+520.042+723.33+538.666+718.372+556.791C713.197+575.709+706.47+594.336+700.543+613.033" fill="#f5ebed" opacity="1"/>
<path fill="none" d="M762.887+422.988C759.806+432.514+756.346+441.894+752.768+451.243C750.671+456.721+748.487+462.172+746.49+467.688C743.843+474.997+741.692+482.481+738.953+489.757C738.179+491.811+737.45+493.981+736.388+495.906C735.393+497.707+734.077+499.311+733.1+501.122C731.751+503.62+730.855+506.447+729.942+509.128C724.658+524.641+722.64+541.007+718.372+556.791C713.239+575.773+706.581+594.329+700.543+613.033L700.543+613.033L700.543+613.033C706.581+594.329+713.239+575.773+718.372+556.791C722.64+541.007+724.658+524.641+729.942+509.128C730.855+506.447+731.751+503.62+733.1+501.122C734.077+499.311+735.393+497.707+736.388+495.906C737.45+493.981+738.179+491.811+738.953+489.757C741.692+482.481+743.843+474.997+746.49+467.688C748.487+462.172+750.671+456.721+752.768+451.243C756.346+441.894+759.806+432.514+762.887+422.988L762.887+422.988Z" opacity="1"/>
</g>
<path d="M696.219+620.055L694.265+616.288L694.87+614.382L696.776+614.986L696.776+614.986" fill="#f5ebed" opacity="1"/>
<path opacity="1" fill="url(#LinearGradient_3)" d="M815.63+382.479C809.448+379.25+799.243+381.054+792.741+381.794C787.693+382.369+782.658+383.057+777.625+383.761C755.885+386.8+732.413+389.575+713.354+401.613C706.836+405.731+699.765+413.872+700.42+422.33C701.525+436.61+720.038+439.05+730.545+440.179C747.341+441.984+770.965+443.224+785.343+452.6C790.206+455.771+793.822+460.539+798.263+464.279C807.343+471.928+818.914+481.742+809.465+494.081C800.556+505.714+782.242+507.275+768.999+508.167C754.052+509.172+738.886+507.646+724.014+509.325C710.685+510.829+694.653+513.87+681.962+518.355C670.621+522.364+648.288+538.422+653.425+552.76C659.751+570.417+685.378+560.861+698.261+559.977C722.225+558.333+758.649+562.741+768.118+589.421C775.21+609.4+745.569+607.741+734.558+607.818C706.617+608.013+678.587+609.339+651.974+618.923C645.298+621.328+636.863+624.749+634.976+632.586C632.366+643.419+647.872+643.027+653.503+642.968C657.041+642.931+660.584+643.05+664.118+642.877C683.288+641.94+701.927+635.989+721.187+637.464C723.422+637.635+725.664+637.785+727.877+638.141C729.572+638.414+731.222+638.915+732.883+639.347C733.696+639.559+738.94+640.309+739.549+641.42C740.368+642.914+735.519+643.415+732.52+644.088C730.361+644.573+728.228+645.17+726.069+645.65C718.713+647.283+710.605+648.651+703.634+650.838C702.263+651.268+700.049+650.745+698.604+651.028C696.072+651.524+690.707+653.635+688.758+655.043"/>
</g>
<g opacity="1">
<g opacity="1">
<path fill="url(#LinearGradient_4)" opacity="1" d="M336.291+237.446L539.168+161.108C546.974+158.17+555.721+161.706+558.703+169.005L691.204+493.273C694.186+500.572+690.275+508.87+682.469+511.807L479.592+588.145C471.786+591.083+463.04+587.547+460.057+580.248L327.557+255.98C324.574+248.681+328.485+240.383+336.291+237.446Z"/>
<path fill="url(#LinearGradient_5)" opacity="1" d="M336.291+237.446L539.168+161.108C546.974+158.17+555.721+161.706+558.703+169.005L691.204+493.273C694.186+500.572+690.275+508.87+682.469+511.807L479.592+588.145C471.786+591.083+463.04+587.547+460.057+580.248L327.557+255.98C324.574+248.681+328.485+240.383+336.291+237.446Z"/>
<path opacity="1" d="M364.385+253.042L529.799+190.801C536.163+188.406+543.392+191.527+545.944+197.772L659.316+475.229C661.868+481.474+658.777+488.478+652.412+490.873L486.999+553.114C480.634+555.509+473.406+552.388+470.854+546.143L357.481+268.687C354.929+262.442+358.02+255.437+364.385+253.042Z" fill="#ebf5f1"/>
</g>
<path fill="url(#LinearGradient_6)" d="M489.487+214.883C482.552+215.623+475.057+222.781+470.057+227.001C466.174+230.278+462.364+233.642+458.566+237.017C442.156+251.597+424.158+266.918+414.969+287.503C411.826+294.542+410.454+305.238+415.687+311.915C424.522+323.187+441.284+314.957+450.655+310.072C465.634+302.264+485.984+290.201+503.148+290.034C508.954+289.978+514.607+291.942+520.375+292.594C532.173+293.926+547.244+295.68+546.219+311.189C545.252+325.808+530.874+337.26+520.346+345.343C508.463+354.465+494.995+361.602+483.548+371.242C473.287+379.883+461.629+391.301+453.553+402.068C446.335+411.692+436.65+437.436+448.873+446.522C463.925+457.712+479.957+435.553+490.191+427.676C509.225+413.024+541.983+396.502+564.655+413.459C581.631+426.157+556.041+441.207+546.92+447.374C523.772+463.025+501.177+479.666+484.34+502.395C480.116+508.097+474.993+515.62+477.766+523.189C481.599+533.652+494.288+524.73+498.942+521.56C501.866+519.568+504.88+517.703+507.726+515.6C523.161+504.194+535.376+488.909+552.224+479.461C554.179+478.364+556.128+477.246+558.168+476.316C559.729+475.603+561.38+475.105+563.003+474.544C563.797+474.27+568.577+471.988+569.7+472.575C571.209+473.364+567.451+476.469+565.328+478.692C563.8+480.292+562.356+481.971+560.825+483.568C555.608+489.004+549.617+494.637+545.028+500.321C544.126+501.44+541.993+502.232+540.947+503.268C539.114+505.085+535.819+509.815+534.978+512.068" opacity="1"/>
</g>
<g opacity="1">
<g opacity="1">
<path d="M188.381+357.073L400.218+314.4C408.37+312.758+416.243+317.71+417.804+325.46L487.166+669.788C488.727+677.539+483.385+685.153+475.234+686.795L263.397+729.467C255.246+731.109+247.372+726.158+245.811+718.407L176.449+374.079C174.888+366.329+180.23+358.715+188.381+357.073Z" opacity="1" fill="url(#LinearGradient_7)"/>
<path fill="url(#LinearGradient_8)" d="M188.381+357.073L400.218+314.4C408.37+312.758+416.243+317.71+417.804+325.46L487.166+669.788C488.727+677.539+483.385+685.153+475.234+686.795L263.397+729.467C255.246+731.109+247.372+726.158+245.811+718.407L176.449+374.079C174.888+366.329+180.23+358.715+188.381+357.073Z" opacity="1"/>
<path opacity="1" fill="#ebeff5" d="M212.89+377.197L385.61+342.404C392.256+341.065+398.726+345.356+400.062+351.987L459.411+646.607C460.747+653.239+456.442+659.7+449.796+661.039L277.077+695.832C270.431+697.171+263.96+692.88+262.624+686.248L203.276+391.628C201.94+384.997+206.244+378.535+212.89+377.197Z"/>
</g>
<path opacity="1" d="M345.95+365.966C338.99+365.521+330.392+371.309+324.75+374.622C320.368+377.194+316.044+379.865+311.73+382.549C293.09+394.142+272.759+406.196+260.219+424.929C255.93+431.336+252.768+441.645+256.796+449.112C263.596+461.716+281.509+456.44+291.571+453.212C307.656+448.05+329.754+439.605+346.699+442.345C352.43+443.272+357.669+446.164+363.244+447.782C374.646+451.092+389.203+455.371+385.568+470.482C382.142+484.727+366.034+493.581+354.29+499.766C341.035+506.746+326.553+511.501+313.64+519.066C302.065+525.846+288.643+535.126+278.862+544.372C270.12+552.635+256.217+576.369+266.727+587.393C279.669+600.968+299.219+581.842+310.638+575.809C331.877+564.589+366.958+553.849+386.434+574.398C401.017+589.785+373.25+600.288+363.216+604.822C337.754+616.331+312.669+628.909+292.229+648.461C287.101+653.366+280.779+659.914+282.231+667.843C284.239+678.804+298.254+672.158+303.377+669.821C306.596+668.352+309.882+667.024+313.043+665.433C330.186+656.803+344.811+643.805+363.014+637.344C365.127+636.594+367.237+635.822+369.405+635.25C371.064+634.812+372.776+634.601+374.47+634.322C375.299+634.186+380.396+632.746+381.403+633.514C382.758+634.548+378.529+636.972+376.06+638.804C374.283+640.122+372.576+641.533+370.796+642.847C364.735+647.323+357.878+651.861+352.393+656.686C351.314+657.636+349.078+658.055+347.872+658.9C345.758+660.38+341.71+664.485+340.5+666.562" fill="url(#LinearGradient_9)"/>
</g>
<path fill="#ffc87d" stroke-linejoin="round" stroke="#dea974" d="M530.461+648.322C520.076+642.537+517.134+629.849+523.908+620.063C530.549+609.701+543.927+606.104+553.704+612.053L591.321+634.984L559.769+498.918C557.836+487.797+566.228+479.414+574.741+477.126C583.254+474.837+594.321+477.988+596.995+489.523L616.926+581.018L591.646+466.454C589.774+458.38+594.323+447.355+605.876+444.249C617.43+441.143+626.258+448.572+628.131+456.646C628.131+456.646+654.223+569.167+653.555+566.283L630.805+468.18C628.933+460.106+631.05+449.734+645.036+445.974C657.197+442.705+664.883+447.99+668.627+464.138L691.362+562.179L675.314+492.974C673.442+484.9+671.181+469.578+688.207+465.001C705.233+460.424+709.927+475.091+711.799+483.165L742.504+648.866C744.19+674.377+734.11+689.838+710.212+710.277C691.966+721.727+663.379+722.867+663.379+722.867C663.379+722.867+632.72+724.37+620.924+715.288L530.461+648.322Z" stroke-linecap="round" opacity="1" stroke-width="10"/>
</g>
</svg>
