<svg xmlns="http://www.w3.org/2000/svg" width="1em" height="1em" viewBox="0 0 1024 1024" version="1.1">
<linearGradient gradientTransform="matrix(0.962872 0.290295 -0.323315 0.991078 506.086 -202.805)" id="LinearGradient" gradientUnits="userSpaceOnUse" x1="119.259" y1="383.376" y2="653.112" x2="301.58">
<stop stop-color="#b053bc" offset="0.115702"/>
<stop stop-color="#680c83" offset="0.838843"/>
</linearGradient>
<linearGradient gradientTransform="matrix(0.962872 0.290295 -0.323315 0.991078 506.086 -202.805)" x2="301.58" id="LinearGradient_2" y2="653.112" x1="119.259" gradientUnits="userSpaceOnUse" y1="383.376">
<stop stop-color="#ffb3c3" offset="0.103306"/>
<stop offset="0.828512" stop-color="#c07086"/>
</linearGradient>
<linearGradient gradientTransform="matrix(0.886369 0.46298 -0.46298 0.886369 503.548 -147.251)" x2="361.522" x1="186.693" y1="334.673" gradientUnits="userSpaceOnUse" y2="565.698" id="LinearGradient_3">
<stop offset="0" stop-color="#ffb3c3"/>
<stop stop-color="#d18297" offset="0.981405"/>
</linearGradient>
<linearGradient y1="383.376" x2="301.58" gradientTransform="matrix(0.867042 0.505615 -0.526057 0.902096 735.471 11.6972)" x1="119.259" gradientUnits="userSpaceOnUse" id="LinearGradient_4" y2="653.112">
<stop offset="0.115702" stop-color="#b053bc"/>
<stop stop-color="#680c83" offset="0.838843"/>
</linearGradient>
<linearGradient gradientUnits="userSpaceOnUse" y1="383.376" x1="119.259" y2="653.112" x2="301.58" id="LinearGradient_5" gradientTransform="matrix(0.867042 0.505615 -0.526057 0.902096 735.471 11.6972)">
<stop offset="0.103306" stop-color="#b3d5ff"/>
<stop stop-color="#7087c0" offset="0.836777"/>
</linearGradient>
<linearGradient x1="433.951" y1="247.883" gradientUnits="userSpaceOnUse" y2="502.634" id="LinearGradient_6" x2="571.317" gradientTransform="matrix(0.863848 0.503753 -0.503753 0.863848 385.576 7.31297)">
<stop stop-color="#b3d4ff" offset="0.11157"/>
<stop stop-color="#7087c0" offset="0.913223"/>
</linearGradient>
<linearGradient x2="925.756" gradientUnits="userSpaceOnUse" y1="523.806" x1="680.46" id="LinearGradient_7" gradientTransform="matrix(0.833052 -0.565422 0.608787 0.844986 -700.031 521.911)" y2="523.806">
<stop offset="0.115702" stop-color="#b053bc"/>
<stop stop-color="#680c83" offset="0.838843"/>
</linearGradient>
<linearGradient gradientUnits="userSpaceOnUse" x1="724.624" gradientTransform="matrix(0.833052 -0.565422 0.608787 0.844986 -700.031 521.911)" id="LinearGradient_8" y2="645.218" y1="391.594" x2="882.094">
<stop stop-color="#b3ffce" offset="0.072314"/>
<stop offset="0.836777" stop-color="#70c092"/>
</linearGradient>
<linearGradient y1="302.125" id="LinearGradient_9" gradientUnits="userSpaceOnUse" gradientTransform="matrix(0.686033 -0.72757 0.72757 0.686033 -565.247 761.369)" x2="812.543" y2="590.576" x1="721.083">
<stop offset="0.0123967" stop-color="#b3ffce"/>
<stop stop-color="#86d5a6" offset="0.981405"/>
</linearGradient>
<g>
<path fill="#f5ebed" d="M211.823+328.432C211.157+328.098+209.823+326.686+209.823+327.432C209.823+328.634+211.157+329.432+211.823+330.432" opacity="1"/>
<g opacity="1">
<g opacity="1">
<path opacity="1" fill="url(#LinearGradient)" d="M488.059+164.226L695.362+226.726C703.338+229.131+707.821+237.163+705.373+244.666L596.625+578.017C594.177+585.52+585.727+589.653+577.75+587.248L370.447+524.749C362.47+522.344+357.988+514.312+360.436+506.809L469.184+173.458C471.631+165.954+480.082+161.821+488.059+164.226Z"/>
<path fill="url(#LinearGradient_2)" opacity="1" d="M488.059+164.226L695.362+226.726C703.338+229.131+707.821+237.163+705.373+244.666L596.625+578.017C594.177+585.52+585.727+589.653+577.75+587.248L370.447+524.749C362.47+522.344+357.988+514.312+360.436+506.809L469.184+173.458C471.631+165.954+480.082+161.821+488.059+164.226Z"/>
<path fill="#f5ebed" d="M499.689+193.342L668.712+244.3C675.216+246.261+678.79+253.055+676.696+259.475L583.647+544.703C581.553+551.123+574.582+554.738+568.079+552.777L399.056+501.819C392.553+499.858+388.978+493.064+391.073+486.644L484.121+201.416C486.216+194.996+493.186+191.381+499.689+193.342Z" opacity="1"/>
</g>
<g opacity="1">
<path fill="#f5ebed" d="M559.219+284.493C554.633+298.959+549.079+312.64+543.714+326.785C540.08+336.369+537.352+346.608+533.393+356.034C532.203+358.867+529.946+361.17+528.767+364.008C521.481+381.548+519.662+400.172+514.704+418.297C509.529+437.215+502.802+455.841+496.875+474.539" opacity="1"/>
<path opacity="1" fill="none" d="M559.219+284.493C556.138+294.019+552.678+303.399+549.1+312.748C547.004+318.227+544.819+323.677+542.822+329.193C540.175+336.503+538.024+343.986+535.285+351.263C534.511+353.317+533.783+355.486+532.72+357.412C531.725+359.213+530.409+360.816+529.432+362.627C528.083+365.126+527.187+367.953+526.274+370.633C520.99+386.146+518.972+402.513+514.704+418.297C509.571+437.279+502.913+455.835+496.875+474.539L496.875+474.539L496.875+474.539C502.913+455.835+509.571+437.279+514.704+418.297C518.972+402.513+520.99+386.146+526.274+370.633C527.187+367.953+528.083+365.126+529.432+362.627C530.409+360.816+531.725+359.213+532.72+357.412C533.783+355.486+534.511+353.317+535.285+351.263C538.024+343.986+540.175+336.503+542.822+329.193C544.819+323.677+547.004+318.227+549.1+312.748C552.678+303.399+556.138+294.019+559.219+284.493L559.219+284.493Z"/>
</g>
<path fill="#f5ebed" d="M492.551+481.56L490.597+477.794L491.202+475.887L493.108+476.492L493.108+476.492" opacity="1"/>
<path d="M611.962+243.984C605.78+240.755+595.575+242.559+589.073+243.3C584.025+243.875+578.99+244.563+573.957+245.266C552.218+248.305+528.745+251.08+509.686+263.119C503.168+267.236+496.097+275.378+496.752+283.836C497.857+298.115+516.37+300.556+526.877+301.685C543.673+303.489+567.297+304.73+581.675+314.106C586.538+317.277+590.155+322.045+594.595+325.785C603.675+333.434+615.246+343.248+605.797+355.587C596.888+367.219+578.574+368.781+565.331+369.672C550.384+370.678+535.218+369.152+520.346+370.83C507.017+372.335+490.985+375.375+478.294+379.861C466.953+383.869+444.62+399.927+449.757+414.265C456.083+431.922+481.71+422.367+494.593+421.483C518.557+419.839+554.981+424.246+564.45+450.927C571.542+470.905+541.901+469.247+530.89+469.324C502.949+469.519+474.919+470.844+448.306+480.429C441.63+482.833+433.195+486.255+431.308+494.092C428.698+504.925+444.204+504.533+449.835+504.474C453.373+504.437+456.916+504.555+460.45+504.383C479.62+503.445+498.259+497.494+517.519+498.97C519.754+499.141+521.996+499.291+524.209+499.647C525.904+499.92+527.554+500.42+529.215+500.853C530.028+501.064+535.272+501.815+535.881+502.926C536.7+504.419+531.851+504.92+528.852+505.594C526.693+506.079+524.56+506.676+522.401+507.155C515.045+508.789+506.937+510.157+499.966+512.344C498.595+512.774+496.381+512.251+494.936+512.534C492.404+513.03+487.039+515.14+485.09+516.549" opacity="1" fill="url(#LinearGradient_3)"/>
</g>
<g opacity="1">
<g opacity="1">
<path fill="url(#LinearGradient_4)" d="M638.856+368.989L825.527+477.846C832.71+482.035+835.304+490.967+831.321+497.797L654.381+801.219C650.398+808.048+641.347+810.189+634.164+806L447.493+697.143C440.31+692.955+437.716+684.023+441.699+677.193L618.639+373.771C622.622+366.941+631.673+364.801+638.856+368.989Z" opacity="1"/>
<path d="M638.856+368.989L825.527+477.846C832.71+482.035+835.304+490.967+831.321+497.797L654.381+801.219C650.398+808.048+641.347+810.189+634.164+806L447.493+697.143C440.31+692.955+437.716+684.023+441.699+677.193L618.639+373.771C622.622+366.941+631.673+364.801+638.856+368.989Z" opacity="1" fill="url(#LinearGradient_5)"/>
<path opacity="1" fill="#ebeff5" d="M643.803+400.313L796.003+489.069C801.859+492.484+803.844+499.99+800.437+505.833L649.04+765.453C645.632+771.297+638.122+773.265+632.265+769.85L480.065+681.094C474.209+677.679+472.224+670.174+475.631+664.33L627.028+404.71C630.436+398.867+637.946+396.898+643.803+400.313Z"/>
</g>
<path d="M750.708+480.328C745.801+475.37+735.531+473.983+729.113+472.71C724.129+471.722+719.123+470.845+714.115+469.984C692.481+466.264+669.278+461.764+647.459+467.433C639.998+469.371+630.784+474.975+628.834+483.231C625.542+497.17+642.434+505.128+652.1+509.401C667.55+516.23+689.676+524.601+700.519+537.907C704.187+542.408+706.181+548.05+709.272+552.964C715.595+563.014+723.631+575.883+710.874+584.762C698.849+593.131+680.927+589.046+668.041+585.865C653.497+582.275+639.515+576.206+624.838+573.28C611.682+570.657+595.486+568.675+582.032+569.086C570.008+569.453+543.849+577.954+544.379+593.175C545.032+611.92+572.351+610.615+584.893+613.694C608.221+619.42+641.575+634.702+642.477+662.999C643.153+684.188+615.422+673.588+604.911+670.311C578.235+661.994+551.131+654.727+522.864+655.759C515.772+656.018+506.696+656.711+502.513+663.602C496.731+673.127+511.621+677.472+517.003+679.129C520.385+680.171+523.723+681.362+527.142+682.272C545.688+687.213+565.254+687.216+583.152+694.482C585.229+695.325+587.319+696.15+589.319+697.163C590.85+697.938+592.27+698.918+593.721+699.835C594.431+700.284+599.198+702.594+599.44+703.838C599.765+705.51+594.994+704.512+591.932+704.241C589.728+704.046+587.515+703.965+585.311+703.765C577.808+703.083+569.667+701.918+562.362+701.881C560.925+701.873+558.975+700.701+557.513+700.531C554.949+700.233+549.197+700.611+546.912+701.359" opacity="1" fill="url(#LinearGradient_6)"/>
</g>
<g opacity="1">
<g opacity="1">
<path d="M87.4799+417.602L266.833+295.868C273.734+291.184+283.065+292.573+287.674+298.97L492.441+583.183C497.05+589.58+495.191+598.563+488.29+603.247L308.937+724.981C302.036+729.665+292.705+728.276+288.096+721.879L83.3295+437.666C78.7205+431.269+80.5787+422.286+87.4799+417.602Z" fill="url(#LinearGradient_7)" opacity="1"/>
<path opacity="1" fill="url(#LinearGradient_8)" d="M87.4799+417.602L266.833+295.868C273.734+291.184+283.065+292.573+287.674+298.97L492.441+583.183C497.05+589.58+495.191+598.563+488.29+603.247L308.937+724.981C302.036+729.665+292.705+728.276+288.096+721.879L83.3295+437.666C78.7205+431.269+80.5787+422.286+87.4799+417.602Z"/>
<path d="M118.445+426.184L264.679+326.93C270.306+323.111+278.064+324.452+282.008+329.926L457.214+573.109C461.158+578.583+459.793+586.116+454.166+589.935L307.933+689.19C302.306+693.009+294.547+691.667+290.604+686.194L115.398+443.01C111.454+437.537+112.818+430.003+118.445+426.184Z" fill="#ebf5f1" opacity="1"/>
</g>
<path opacity="1" fill="url(#LinearGradient_9)" d="M231.129+359.785C224.56+362.128+218.951+370.842+215.078+376.116C212.071+380.212+209.155+384.374+206.253+388.545C193.715+406.563+179.806+425.673+175.693+447.838C174.287+455.418+175.458+466.137+182.11+471.403C193.339+480.292+207.707+468.364+215.673+461.421C228.406+450.321+245.365+433.827+262.013+429.645C267.643+428.231+273.599+428.816+279.36+428.098C291.142+426.63+306.204+424.806+308.84+440.123C311.325+454.562+300.029+469.063+291.687+479.387C282.271+491.039+270.849+501.131+261.978+513.185C254.028+523.989+245.368+537.819+240.039+550.179C235.276+561.225+231.889+588.522+245.9+594.492C263.155+601.845+273.551+576.548+281.655+566.493C296.727+547.79+324.705+524.055+350.718+535.23C370.196+543.598+348.843+564.223+341.42+572.355C322.582+592.993+304.513+614.463+293.468+640.503C290.698+647.036+287.479+655.55+291.947+662.259C298.125+671.533+308.37+659.888+312.153+655.715C314.529+653.094+317.022+650.575+319.296+647.864C331.631+633.159+339.925+615.439+354.092+602.307C355.736+600.784+357.369+599.24+359.134+597.857C360.485+596.799+361.974+595.928+363.419+595.003C364.127+594.55+368.24+591.212+369.469+591.52C371.121+591.933+368.195+595.832+366.652+598.491C365.541+600.404+364.53+602.375+363.415+604.285C359.617+610.793+355.113+617.672+351.983+624.273C351.367+625.572+349.479+626.841+348.705+628.094C347.349+630.289+345.253+635.66+344.963+638.047"/>
</g>
<path fill="#ffc87d" stroke-width="10" d="M222.631+670.953C215.39+661.525+217.719+648.71+227.818+642.412C238.023+635.531+251.731+637.533+258.348+646.871L283.792+682.835L308.768+545.411C311.403+534.435+322.43+530.066+331.153+531.34C339.876+532.614+348.786+539.894+346.669+551.543L328.693+643.443L350.903+528.245C352.385+520.09+360.933+511.771+372.771+513.5C384.609+515.229+389.769+525.55+388.287+533.704C388.287+533.704+367.633+647.349+368.162+644.437L386.17+545.353C387.652+537.199+393.707+528.516+408.038+530.609C420.499+532.429+425.459+540.328+422.495+556.638L404.499+655.658L417.202+585.761C418.684+577.607+422.683+562.644+440.128+565.192C457.574+567.74+456.068+583.066+454.586+591.221L417.083+755.517C408.518+779.605+393.133+789.803+363.091+799.093C341.801+802.371+315.105+792.085+315.105+792.085C315.105+792.085+286.362+781.31+279.133+768.296L222.631+670.953Z" opacity="1" stroke="#dea974" stroke-linecap="round" stroke-linejoin="round"/>
</g>
</svg>
