<svg xmlns="http://www.w3.org/2000/svg" width="1em" height="1em" viewBox="0 0 1024 1024" version="1.1">
<linearGradient y2="653.112" x2="301.58" id="LinearGradient" y1="383.376" gradientTransform="matrix(0.964349 -0.285351 0.273209 1.00604 -28.482 75.8896)" x1="119.259" gradientUnits="userSpaceOnUse">
<stop stop-color="#b053bc" offset="0.115702"/>
<stop offset="0.838843" stop-color="#680c83"/>
</linearGradient>
<linearGradient x2="301.58" gradientTransform="matrix(0.964349 -0.285351 0.273209 1.00604 -28.482 75.8896)" id="LinearGradient_2" y1="383.376" x1="119.259" gradientUnits="userSpaceOnUse" y2="653.112">
<stop offset="0.103306" stop-color="#ffb3c3"/>
<stop stop-color="#c07086" offset="0.828512"/>
</linearGradient>
<linearGradient gradientUnits="userSpaceOnUse" id="LinearGradient_3" x1="186.693" y2="565.698" x2="361.522" gradientTransform="matrix(0.995088 -0.0989955 0.0989955 0.995088 -0.135954 123.734)" y1="334.673">
<stop offset="0" stop-color="#ffb3c3"/>
<stop offset="0.981405" stop-color="#d18297"/>
</linearGradient>
<linearGradient x1="119.259" y2="653.112" gradientUnits="userSpaceOnUse" y1="383.376" x2="301.58" id="LinearGradient_4" gradientTransform="matrix(0.912594 0.41783 -0.434723 0.94949 775.103 -137.608)">
<stop offset="0.115702" stop-color="#b053bc"/>
<stop stop-color="#680c83" offset="0.838843"/>
</linearGradient>
<linearGradient gradientTransform="matrix(0.912594 0.41783 -0.434723 0.94949 775.103 -137.608)" y2="653.112" y1="383.376" id="LinearGradient_5" x1="119.259" x2="301.58" gradientUnits="userSpaceOnUse">
<stop stop-color="#b3d5ff" offset="0.103306"/>
<stop stop-color="#7087c0" offset="0.836777"/>
</linearGradient>
<linearGradient gradientUnits="userSpaceOnUse" gradientTransform="matrix(0.909232 0.41629 -0.41629 0.909232 426.475 -107.535)" x1="433.951" y1="247.883" y2="502.634" id="LinearGradient_6" x2="571.317">
<stop stop-color="#b3d4ff" offset="0.11157"/>
<stop offset="0.913223" stop-color="#7087c0"/>
</linearGradient>
<linearGradient x1="680.46" gradientUnits="userSpaceOnUse" y2="523.806" id="LinearGradient_7" x2="925.756" y1="523.806" gradientTransform="matrix(0.924178 -0.399465 0.439828 0.944019 -486.158 158.804)">
<stop offset="0.115702" stop-color="#b053bc"/>
<stop offset="0.838843" stop-color="#680c83"/>
</linearGradient>
<linearGradient x2="882.094" x1="724.624" gradientTransform="matrix(0.924178 -0.399465 0.439828 0.944019 -486.158 158.804)" id="LinearGradient_8" gradientUnits="userSpaceOnUse" y1="391.594" y2="645.218">
<stop offset="0.072314" stop-color="#b3ffce"/>
<stop offset="0.836777" stop-color="#70c092"/>
</linearGradient>
<linearGradient x2="812.543" id="LinearGradient_9" y1="302.125" gradientUnits="userSpaceOnUse" y2="590.576" x1="721.083" gradientTransform="matrix(0.810115 -0.58627 0.58627 0.810115 -398.587 419.262)">
<stop offset="0.0123967" stop-color="#b3ffce"/>
<stop stop-color="#86d5a6" offset="0.981405"/>
</linearGradient>
<g>
<path d="M211.823+328.432C211.157+328.098+209.823+326.686+209.823+327.432C209.823+328.634+211.157+329.432+211.823+330.432" opacity="1" fill="#f5ebed"/>
<g opacity="1">
<g opacity="1">
<path opacity="1" d="M157.743+392.681L365.364+331.246C373.353+328.882+381.506+333.14+383.574+340.757L475.469+679.142C477.537+686.758+472.738+694.849+464.749+697.213L257.128+758.648C249.139+761.012+240.986+756.754+238.917+749.137L147.023+410.752C144.955+403.136+149.754+395.045+157.743+392.681Z" fill="url(#LinearGradient)"/>
<path opacity="1" d="M157.743+392.681L365.364+331.246C373.353+328.882+381.506+333.14+383.574+340.757L475.469+679.142C477.537+686.758+472.738+694.849+464.749+697.213L257.128+758.648C249.139+761.012+240.986+756.754+238.917+749.137L147.023+410.752C144.955+403.136+149.754+395.045+157.743+392.681Z" fill="url(#LinearGradient_2)"/>
<path d="M183.437+410.648L352.718+360.558C359.232+358.63+365.947+362.351+367.717+368.868L446.346+658.403C448.115+664.92+444.27+671.766+437.756+673.693L268.474+723.784C261.961+725.711+255.246+721.99+253.476+715.473L174.847+425.938C173.077+419.421+176.923+412.575+183.437+410.648Z" opacity="1" fill="#f5ebed"/>
</g>
<g opacity="1">
<path d="M283.207+454.218C287.306+468.829+290.164+483.315+293.437+498.086C295.654+508.092+298.989+518.15+300.848+528.203C301.407+531.225+300.783+534.389+301.353+537.409C304.88+556.071+313.574+572.642+319.369+590.517C325.417+609.174+330.008+628.438+335.306+647.323" opacity="1" fill="#f5ebed"/>
<path opacity="1" d="M283.207+454.218C285.855+463.873+288.106+473.615+290.242+483.394C291.494+489.125+292.656+494.88+294.012+500.588C295.807+508.152+298.113+515.589+299.813+523.177C300.293+525.318+300.873+527.532+301.041+529.725C301.197+531.776+300.976+533.839+301.152+535.889C301.395+538.718+302.196+541.573+302.902+544.316C306.992+560.186+314.281+574.977+319.369+590.517C325.487+609.204+330.097+628.372+335.306+647.323L335.306+647.323L335.306+647.323C330.097+628.372+325.487+609.204+319.369+590.517C314.281+574.977+306.992+560.186+302.902+544.316C302.196+541.573+301.395+538.718+301.152+535.889C300.976+533.839+301.197+531.776+301.041+529.725C300.873+527.532+300.293+525.318+299.813+523.177C298.113+515.589+295.807+508.152+294.012+500.588C292.656+494.88+291.494+489.125+290.242+483.394C288.106+473.615+285.855+463.873+283.207+454.218L283.207+454.218Z" fill="none"/>
</g>
<path opacity="1" fill="#f5ebed" d="M335.542+655.566L331.843+653.488L331.302+651.563L333.228+651.022L333.228+651.022"/>
<path fill="url(#LinearGradient_3)" d="M305.092+391.418C298.152+392.109+290.608+399.214+285.577+403.399C281.671+406.649+277.838+409.986+274.016+413.334C257.505+427.798+239.4+442.992+230.065+463.512C226.873+470.529+225.426+481.215+230.612+487.929C239.368+499.263+256.187+491.15+265.592+486.331C280.625+478.629+301.06+466.709+318.225+466.663C324.03+466.648+329.67+468.652+335.434+469.344C347.222+470.759+362.279+472.619+361.145+488.12C360.076+502.732+345.618+514.083+335.034+522.091C323.087+531.13+309.569+538.172+298.054+547.732C287.733+556.3+275.995+567.635+267.843+578.346C260.558+587.918+250.692+613.594+262.85+622.766C277.824+634.061+294.012+612.015+304.3+604.21C323.436+589.692+356.31+573.402+378.862+590.518C395.749+603.334+370.054+618.204+360.889+624.307C337.632+639.794+314.921+656.276+297.925+678.886C293.661+684.559+288.484+692.045+291.204+699.634C294.964+710.124+307.715+701.291+312.391+698.154C315.329+696.182+318.356+694.339+321.216+692.256C336.732+680.958+349.054+665.76+365.968+656.43C367.93+655.348+369.888+654.243+371.934+653.327C373.5+652.625+375.155+652.139+376.781+651.59C377.577+651.321+382.373+649.072+383.492+649.667C384.996+650.467+381.216+653.545+379.077+655.753C377.538+657.343+376.082+659.012+374.539+660.597C369.285+665.997+363.255+671.588+358.626+677.24C357.715+678.352+355.577+679.129+354.524+680.158C352.678+681.961+349.35+686.669+348.493+688.915" opacity="1"/>
</g>
<g opacity="1">
<g opacity="1">
<path opacity="1" fill="url(#LinearGradient_4)" d="M714.121+227.458L910.599+317.415C918.159+320.877+921.62+329.51+918.328+336.699L772.109+656.061C768.817+663.25+760.021+666.271+752.46+662.81L555.982+572.852C548.422+569.391+544.962+560.758+548.253+553.569L694.473+234.206C697.764+227.018+706.561+223.997+714.121+227.458Z"/>
<path fill="url(#LinearGradient_5)" d="M714.121+227.458L910.599+317.415C918.159+320.877+921.62+329.51+918.328+336.699L772.109+656.061C768.817+663.25+760.021+666.271+752.46+662.81L555.982+572.852C548.422+569.391+544.962+560.758+548.253+553.569L694.473+234.206C697.764+227.018+706.561+223.997+714.121+227.458Z" opacity="1"/>
<path d="M722.126+258.143L882.322+331.489C888.487+334.311+891.201+341.585+888.385+347.736L763.273+620.995C760.457+627.146+753.177+629.844+747.013+627.022L586.817+553.676C580.653+550.854+577.938+543.58+580.755+537.429L705.866+264.17C708.682+258.019+715.962+255.321+722.126+258.143Z" opacity="1" fill="#ebeff5"/>
</g>
<path d="M836.387+327.248C831.016+322.798+820.659+322.428+814.147+321.793C809.09+321.3+804.022+320.92+798.954+320.556C777.059+318.983+753.525+316.789+732.371+324.577C725.136+327.24+716.519+333.724+715.391+342.132C713.486+356.327+731.08+362.584+741.119+365.885C757.166+371.161+780.008+377.313+792.109+389.488C796.201+393.605+798.741+399.024+802.301+403.61C809.582+412.988+818.845+425.004+807.025+435.095C795.881+444.608+777.645+442.306+764.508+440.409C749.681+438.268+735.17+433.605+720.276+432.137C706.926+430.821+690.613+430.442+677.265+432.176C665.336+433.724+640.14+444.759+642.166+459.854C644.661+478.443+671.718+474.456+684.502+476.285C708.28+479.688+742.977+491.613+746.66+519.684C749.417+540.704+720.778+532.885+709.995+530.658C682.63+525.007+654.942+520.443+626.914+524.252C619.882+525.207+610.919+526.79+607.435+534.059C602.618+544.107+617.863+546.965+623.382+548.085C626.85+548.789+630.289+549.645+633.781+550.215C652.724+553.306+672.195+551.383+690.721+556.853C692.87+557.488+695.032+558.103+697.122+558.914C698.722+559.535+700.231+560.37+701.765+561.14C702.516+561.517+707.487+563.347+707.85+564.56C708.339+566.193+703.492+565.669+700.418+565.7C698.206+565.723+695.996+565.861+693.783+565.878C686.249+565.938+678.034+565.58+670.76+566.262C669.329+566.396+667.273+565.421+665.801+565.396C663.221+565.352+657.533+566.294+655.334+567.264" fill="url(#LinearGradient_6)" opacity="1"/>
</g>
<g opacity="1">
<g opacity="1">
<path fill="url(#LinearGradient_7)" d="M306.957+203.773L505.929+117.769C513.585+114.46+522.491+117.571+525.821+124.718L673.758+442.241C677.088+449.388+673.581+457.865+665.925+461.174L466.953+547.177C459.297+550.486+450.391+547.375+447.061+540.228L299.124+222.706C295.794+215.559+299.301+207.082+306.957+203.773Z" opacity="1"/>
<path d="M306.957+203.773L505.929+117.769C513.585+114.46+522.491+117.571+525.821+124.718L673.758+442.241C677.088+449.388+673.581+457.865+665.925+461.174L466.953+547.177C459.297+550.486+450.391+547.375+447.061+540.228L299.124+222.706C295.794+215.559+299.301+207.082+306.957+203.773Z" opacity="1" fill="url(#LinearGradient_8)"/>
<path opacity="1" d="M335.768+218.001L497.998+147.879C504.241+145.18+511.611+147.95+514.46+154.066L641.041+425.751C643.89+431.866+641.139+439.011+634.897+441.709L472.667+511.831C466.424+514.529+459.054+511.759+456.205+505.644L329.624+233.959C326.775+227.844+329.526+220.699+335.768+218.001Z" fill="#ebf5f1"/>
</g>
<path opacity="1" fill="url(#LinearGradient_9)" d="M458.891+173.871C451.999+174.943+444.858+182.454+440.066+186.909C436.345+190.369+432.702+193.912+429.07+197.466C413.38+212.818+396.14+228.986+387.95+249.989C385.15+257.172+384.293+267.921+389.842+274.339C399.208+285.173+415.555+276.146+424.68+270.817C439.266+262.297+459.013+249.27+476.15+248.278C481.945+247.943+487.686+249.633+493.48+250.007C505.328+250.771+520.465+251.798+520.187+267.338C519.925+281.987+506.114+294.117+495.987+302.696C484.556+312.379+471.446+320.155+460.476+330.335C450.643+339.459+439.547+351.424+431.998+362.567C425.251+372.527+416.814+398.707+429.46+407.195C445.033+417.648+459.982+394.744+469.824+386.384C488.132+370.834+520.058+352.756+543.519+368.604C561.086+380.47+536.249+396.733+527.435+403.332C505.066+420.077+483.298+437.785+467.573+461.297C463.628+467.196+458.872+474.957+462.006+482.384C466.338+492.651+478.583+483.129+483.079+479.739C485.904+477.608+488.825+475.601+491.566+473.363C506.436+461.228+517.901+445.374+534.275+435.127C536.176+433.937+538.069+432.726+540.061+431.699C541.587+430.913+543.212+430.336+544.805+429.698C545.585+429.385+550.251+426.876+551.4+427.408C552.946+428.124+549.342+431.406+547.328+433.729C545.879+435.4+544.517+437.147+543.064+438.815C538.115+444.496+532.402+450.411+528.091+456.309C527.243+457.469+525.151+458.363+524.156+459.449C522.413+461.351+519.349+466.235+518.617+468.525"/>
</g>
<path stroke="#dea974" d="M389.429+691.233C377.707+689.254+370.692+678.28+373.805+666.792C376.598+654.805+388.004+646.943+399.207+649.28L442.326+658.313L367.094+540.629C361.554+530.795+366.66+520.088+373.918+515.085C381.176+510.081+392.659+509.351+399.036+519.327L448.413+598.893L386.282+499.375C381.818+492.392+382.418+480.48+392.268+473.689C402.118+466.899+412.923+470.949+417.387+477.932C417.387+477.932+479.601+575.252+478.007+572.758L423.764+487.908C419.3+480.925+417.827+470.442+429.751+462.222C440.119+455.074+449.13+457.486+458.058+471.452L512.266+556.248L474.001+496.392C469.537+489.409+462.284+475.726+476.799+465.719C491.315+455.712+500.642+467.966+505.107+474.949L589.45+620.846C599.569+644.324+595.238+662.266+579.55+689.519C566.183+706.411+539.622+717.044+539.622+717.044C539.622+717.044+511.231+728.712+497.077+724.097L389.429+691.233Z" stroke-linejoin="round" opacity="1" stroke-width="10" fill="#ffc87d" stroke-linecap="round"/>
</g>
</svg>
