<svg width="1em" version="1.1" viewBox="0 0 1024 1024" xmlns="http://www.w3.org/2000/svg" height="1em">
<g >
<path fill="#f5a161" opacity="1" d="M876.999+915.886L183.402+915.886C165.861+915.886+152.367+901.685+153.262+884.167L167.853+598.697C167.853+527.055+232.424+483.214+281.359+478.515L413.788+469.661L622.622+469.234L747.281+478.515C808.61+483.214+860.787+527.055+860.787+598.697L876.999+915.886Z"/>
<path d="M511.722+110.569L519.278+110.569C617.868+110.569+697.791+196.81+697.791+303.194L697.791+303.194C697.791+409.578+617.868+495.819+519.278+495.819L511.722+495.819C413.131+495.819+333.208+409.578+333.208+303.194L333.208+303.194C333.208+196.81+413.131+110.569+511.722+110.569Z" opacity="1" fill="#ffe17e"/>
<path opacity="1" d="M513.641+350.256L518.054+350.256C575.632+350.256+622.309+400.324+622.309+462.085L622.309+462.085C622.309+523.847+575.632+573.914+518.054+573.914L513.641+573.914C456.062+573.914+409.386+523.847+409.386+462.085L409.386+462.085C409.386+400.324+456.062+350.256+513.641+350.256Z" fill="#ffe17e"/>
<path opacity="1" d="M676.202+824.093C676.202+750.358+735.976+690.584+809.711+690.584C883.446+690.584+943.22+750.358+943.22+824.093C943.22+897.829+883.446+957.603+809.711+957.603C735.976+957.603+676.202+897.829+676.202+824.093Z" fill="#18ea39"/>
<path opacity="1" fill="#ffffff" d="M706.597+823.588C706.597+766.567+752.822+720.342+809.844+720.342C866.866+720.342+913.091+766.567+913.091+823.588C913.091+880.61+866.866+926.836+809.844+926.836C752.822+926.836+706.597+880.61+706.597+823.588Z"/>
<path opacity="1" fill="#18ea39" d="M792.154+826.708C791.692+827.632+791.229+828.557+790.767+829.481"/>
<path opacity="1" fill="none" d="M757.105+820.113L799.26+873.928L857.56+782.443" stroke-linecap="round" stroke-width="32" stroke="#18ea39" stroke-linejoin="round"/>
</g>
</svg>
