<svg viewBox="0 0 1024 1024" width="1em" height="1em" version="1.1" xmlns="http://www.w3.org/2000/svg">
<g>
<path fill="#ee3238" d="M765.446+61.6434L265.335+61.6434C225.897+61.6434+193.89+99.1672+193.89+145.402L193.89+942.778C193.89+964.984+207.558+971.271+224.419+956.819L485.836+732.75C502.697+718.298+529.998+718.339+546.815+732.841L806.44+956.728C823.257+971.23+836.89+964.984+836.89+942.778L836.89+145.402C836.89+99.1672+804.883+61.6434+765.446+61.6434Z" opacity="1"/>
<path fill="#fff200" opacity="1" d="M564.108+384.645L622.566+386.29C633.328+386.592+635.153+392.336+626.642+399.118L580.202+436.129C571.692+442.911+567.247+457.024+570.275+467.651L586.908+526.026C589.936+536.653+585.209+540.168+576.349+533.876L528.041+499.566C519.182+493.275+504.819+493.276+495.961+499.57L447.648+533.897C438.79+540.191+434.064+536.678+437.092+526.052L453.725+467.676C456.753+457.049+452.308+442.936+443.798+436.154L397.358+399.143C388.847+392.361+390.672+386.618+401.434+386.315L459.892+384.67C470.654+384.367+482.279+375.655+485.858+365.211L505.52+307.833C509.099+297.389+514.902+297.389+518.482+307.833L538.14+365.186C541.72+375.63+553.346+384.342+564.108+384.645Z"/>
</g>
</svg>
