<svg width="1em" version="1.1" viewBox="0 0 1024 1024" xmlns="http://www.w3.org/2000/svg" height="1em">
<g>
<path d="M371.596+473.704L173.519+473.704C168.51+473.704+164.656+469.933+164.912+465.281L169.079+389.473C169.079+370.448+187.519+358.806+201.494+357.558L239.313+355.207L298.951+355.094L334.551+357.558C352.065+358.806+366.966+370.448+366.966+389.473L371.596+473.704Z" opacity="1" fill="#78acff"/>
<path d="M267.28+259.849L269.438+259.849C297.594+259.849+320.418+282.751+320.418+311.001L320.418+311.001C320.418+339.252+297.594+362.153+269.438+362.153L267.28+362.153C239.125+362.153+216.301+339.252+216.301+311.001L216.301+311.001C216.301+282.751+239.125+259.849+267.28+259.849Z" opacity="1" fill="#ffe17e"/>
<path fill="#ffe17e" d="M267.828+323.499L269.089+323.499C285.532+323.499+298.862+336.794+298.862+353.195L298.862+353.195C298.862+369.596+285.532+382.892+269.089+382.892L267.828+382.892C251.385+382.892+238.055+369.596+238.055+353.195L238.055+353.195C238.055+336.794+251.385+323.499+267.828+323.499Z" opacity="1"/>
<path fill="#ff7887" d="M644.028+472.784L842.1+474.143C847.109+474.178+850.989+470.433+850.765+465.78L847.118+389.945C847.249+370.921+828.889+359.152+814.923+357.809L777.121+355.198L717.485+354.675L681.869+356.896C664.347+358.023+649.366+369.563+649.236+388.587L644.028+472.784Z" opacity="1"/>
<path d="M749.809+259.65L747.651+259.635C719.496+259.442+696.515+282.187+696.321+310.437L696.321+310.437C696.128+338.687+718.794+361.744+746.949+361.938L749.107+361.952C777.261+362.145+800.242+339.401+800.436+311.151L800.436+311.151C800.63+282.901+777.963+259.843+749.809+259.65Z" opacity="1" fill="#ffe17e"/>
<path opacity="1" d="M748.824+323.295L747.564+323.286C731.121+323.173+717.7+336.377+717.587+352.778L717.587+352.778C717.475+369.178+730.713+382.565+747.156+382.678L748.416+382.687C764.859+382.799+778.28+369.596+778.392+353.195L778.392+353.195C778.505+336.794+765.267+323.408+748.824+323.295Z" fill="#ffe17e"/>
<path stroke-width="12.053" d="M104.915+427.893L443.299+427.893C453.31+427.893+461.424+436.008+461.424+446.018L461.424+684.499C461.424+694.51+453.31+702.624+443.299+702.624L104.915+702.624C94.9051+702.624+86.7902+694.51+86.7902+684.499L86.7902+446.018C86.7902+436.008+94.9051+427.893+104.915+427.893Z" stroke-linecap="round" opacity="1" fill="#ffa33c" stroke="#8b5111" stroke-linejoin="round"/>
<path opacity="1" fill="#ffa33c" d="M578.915+424.893L917.299+424.893C927.31+424.893+935.424+433.008+935.424+443.018L935.424+681.499C935.424+691.51+927.31+699.624+917.299+699.624L578.915+699.624C568.905+699.624+560.79+691.51+560.79+681.499L560.79+443.018C560.79+433.008+568.905+424.893+578.915+424.893Z"/>
<path stroke="#8b5111" stroke-width="12.053" stroke-linecap="round" fill="#ffa33c" d="M578.915+424.893L917.299+424.893C927.31+424.893+935.424+433.008+935.424+443.018L935.424+681.499C935.424+691.51+927.31+699.624+917.299+699.624L578.915+699.624C568.905+699.624+560.79+691.51+560.79+681.499L560.79+443.018C560.79+433.008+568.905+424.893+578.915+424.893Z" stroke-linejoin="round" opacity="1"/>
<path stroke-linecap="round" opacity="1" stroke-width="16" fill="#19ea39" stroke-linejoin="round" stroke="#18ea39" d="M447.419+264.056L332.652+282.036L320.418+184.598L348.059+260.675L447.419+264.056Z"/>
<path stroke-linecap="round" stroke-width="16" stroke-linejoin="round" stroke="#18ea39" opacity="1" fill="#19ea39" d="M570.921+752.843L685.688+734.863L697.922+832.302L670.281+756.224L570.921+752.843Z"/>
<path d="M519.281+159.031C510.383+158.893+501.459+159.393+492.625+160.469C452.812+165.319+415.346+182.029+382.094+203.969C370.856+211.383+360.12+219.45+349.625+227.875C340.258+236.039+339.274+250.258+347.438+259.625C355.601+268.992+369.82+269.976+379.188+261.812C387.965+253.514+396.987+245.483+406.5+238.031C437.487+213.76+473.81+194.776+513.406+190.531C521.89+189.622+530.448+189.383+538.969+189.844C550.982+190.493+562.918+192.502+574.5+195.75C590.1+200.125+605.043+206.686+619.062+214.781C637.155+225.228+653.797+238.24+668.656+252.906C672.837+257.033+676.889+261.29+680.75+265.719C682.055+267.216+683.309+268.74+684.562+270.281C685.14+270.991+685.694+271.854+686.344+272.5C688.595+275.777+693.067+276.595+696.344+274.344C699.621+272.092+700.439+267.621+698.188+264.344C692.483+255.633+685.983+247.449+679.125+239.625C670.184+229.424+660.484+219.883+650.125+211.125C634.53+197.941+617.331+186.446+598.812+177.781C584.432+171.053+569.352+165.898+553.781+162.75C542.43+160.455+530.861+159.211+519.281+159.031Z" opacity="1" fill="#18ea39"/>
<path opacity="1" fill="#18ea39" d="M327.406+741.406C325.595+741.07+323.639+741.437+322+742.562C318.723+744.814+317.905+749.286+320.156+752.562C325.861+761.273+332.36+769.457+339.219+777.281C348.16+787.482+357.859+797.023+368.219+805.781C383.814+818.965+401.013+830.46+419.531+839.125C433.912+845.854+448.991+851.008+464.562+854.156C475.914+856.451+487.483+857.665+499.062+857.844C507.961+857.982+516.885+857.514+525.719+856.438C565.532+851.588+602.998+834.877+636.25+812.938C647.488+805.523+658.223+797.456+668.719+789.031C678.086+780.868+679.07+766.648+670.906+757.281C662.743+747.914+648.523+746.93+639.156+755.094C630.378+763.392+621.357+771.424+611.844+778.875C580.856+803.146+544.503+822.13+504.906+826.375C496.422+827.285+487.865+827.523+479.344+827.062C467.33+826.413+455.426+824.405+443.844+821.156C428.244+816.781+413.301+810.22+399.281+802.125C381.188+791.678+364.546+778.667+349.688+764C345.506+759.873+341.455+755.585+337.594+751.156C336.288+749.659+335.003+748.166+333.75+746.625C333.173+745.915+332.65+745.052+332+744.406C330.874+742.768+329.218+741.742+327.406+741.406Z"/>
</g>
</svg>
