<svg xmlns="http://www.w3.org/2000/svg" width="1em" version="1.1" height="1em" viewBox="0 0 1024 1024">
<g visibility="hidden">
<g opacity="1">
<path d="M-1.63145-17.7196L1045.9-17.7196L1045.9+1045.76L-1.63145+1045.76L-1.63145-17.7196Z" fill="#ffd14d" opacity="1"/>
<path fill="#ffffff" d="M-1.625-35.4062C-6.50701-35.4062-10.9257-33.4181-14.125-30.2188C-14.9248-29.4189-15.6458-28.5343-16.2812-27.5938C-18.1875-24.7721-19.3125-21.3803-19.3125-17.7188C-19.3125+782.871-19.3125+516.012-19.3125+782.875C-19.3125+849.738-19.3125+916.606-19.3125+983.469C-19.3125+996.83-19.3125+1010.17-19.3125+1023.53C-19.3125+1028.91-19.3125+1034.31-19.3125+1039.69C-19.3125+1041.13-19.3125+1042.58-19.3125+1044.03C-19.3125+1044.28-19.4242+1045.55-19.3125+1045.75C-16.5021+1050.77-14.5429+1056.38-10.875+1060.81C-9.52445+1062.45-6.94369+1062.44-4.9375+1063.12C-4.47437+1063.28-3.98515+1063.25-3.5+1063.31C-1.90415+1063.52-0.165882+1063.44+1.4375+1063.44C2.11949+1063.44+2.78676+1063.44+3.46875+1063.44C4.15074+1063.44+4.84926+1063.44+5.53125+1063.44C19.5119+1063.44+33.4881+1063.44+47.4688+1063.44C105.778+1063.44+164.097+1063.44+222.406+1063.44C431.776+1063.44+641.131+1063.44+850.5+1063.44C901.649+1063.44+952.82+1063.44+1003.97+1063.44C1015.22+1063.44+1026.47+1063.44+1037.72+1063.44C1039.76+1063.44+1041.8+1063.44+1043.84+1063.44C1045.51+1063.44+1047.16+1063.44+1048.81+1063.12C1051.32+1062.64+1053.72+1061.65+1055.81+1060.19C1057.06+1059.32+1058.13+1058.36+1059.12+1057.22C1060.08+1056.12+1060.89+1054.92+1061.56+1053.62C1064.17+1048.63+1063.56+1042.87+1063.56+1037.44C1063.56+1028.78+1063.56+1020.12+1063.56+1011.47C1063.56+972.004+1063.56+932.558+1063.56+893.094C1063.56+736.965+1063.56+580.816+1063.56+424.688C1063.56+310.101+1063.56+195.524+1063.56+80.9375C1063.56+53.9352+1063.56+26.9398+1063.56-0.0625C1063.56-3.87052+1063.56-7.69198+1063.56-11.5C1063.56-16.4358+1063.97-20.9774+1061.56-25.5938C1060.89-26.888+1060.09-28.0543+1059.12-29.1562C1058.13-30.3003+1057.06-31.2879+1055.81-32.1562C1054.67-32.9568+1053.45-33.5725+1052.16-34.0938C1047.94-35.7909+1043.19-35.4062+1038.75-35.4062C1036.02-35.4062+1033.29-35.4062+1030.56-35.4062C1013.17-35.4062+995.766-35.4062+978.375-35.4062C910.517-35.4062+842.67-35.4062+774.812-35.4062C515.999-35.4062+774.815-35.4062-1.625-35.4062ZM16.0625-0.03125C741.758-0.03125+530.084-0.03125+787.094-0.03125C844.722-0.03125+902.341-0.03125+959.969-0.03125C979.064-0.03125+998.154-0.03125+1017.25-0.03125C1020.91-0.03125+1024.56-0.03125+1028.22-0.03125C1028.22+4.80698+1028.22+9.63052+1028.22+14.4688C1028.22+35.2398+1028.22+56.0102+1028.22+76.7812C1028.22+138.748+1028.22+200.721+1028.22+262.688C1028.22+448.934+1028.22+635.191+1028.22+821.438C1028.22+871.288+1028.22+921.118+1028.22+970.969C1028.22+987.586+1028.22+1004.23+1028.22+1020.84C1028.22+1023.25+1028.22+1025.65+1028.22+1028.06C1024.22+1028.06+1020.22+1028.06+1016.22+1028.06C997.123+1028.06+978.033+1028.06+958.938+1028.06C901.651+1028.06+844.38+1028.06+787.094+1028.06C611.824+1028.06+436.552+1028.06+261.281+1028.06C202.972+1028.06+144.653+1028.06+86.3438+1028.06C62.9142+1028.06+39.4929+1028.1+16.0625+1028.06C16.0625+1023.73+16.0625+1019.39+16.0625+1015.06C16.0625+994.655+16.0625+974.251+16.0625+953.844C16.0625+871.013+16.0625+788.206+16.0625+705.375C16.0625+470.244+16.0625+660.194+16.0625-0.03125Z" opacity="1"/>
</g>
</g>
<g>
<path opacity="1" stroke="#1a6ac9" fill="#000651" stroke-linecap="butt" stroke-linejoin="miter" fill-opacity="0" d="M643.345+252.254L370.847+252.254L370.847+236.562C370.847+207.418+404.909+185+449.19+185L568.408+185C609.282+185+643.345+207.418+643.345+236.562L643.345+252.254Z" stroke-width="35.3586"/>
<path fill="#24a8ec" d="M143.748+236.76C164.209+220.593+225.068+217.664+225.068+217.664C226.812+217.617+229.678+217.594+231.469+217.596L783.277+218.043C785.068+218.045+792.202+217.896+789.661+217.939C789.661+217.939+847.232+217.73+871.732+233.781C895.386+249.277+900.434+289.571+900.434+289.571C900.55+291.345+899.151+292.786+897.36+292.786L116.831+292.786C115.04+292.786+114.592+288.271+114.238+289.667C114.238+289.667+124.189+252.215+143.748+236.76Z" opacity="1"/>
<path fill="#2facec" d="M160.143+296.202C160.143+296.202+179.333+653.908+200.994+813.558C222.655+973.209+212.343+965.186+246.723+965.186C246.723+965.186+725.779+968.526+755.41+968.862C785.042+969.197+785.752+976.107+809.912+807.942C834.072+639.777+852.049+296.202+852.049+296.202" opacity="1"/>
<path opacity="1" fill="#1a6ac9" d="M454.545+882.549L454.331+882.549C448.456+882.549+443.484+877.792+443.224+871.923L422.676+407.365C422.417+401.497+426.968+396.739+432.843+396.739L454.545+396.739C460.42+396.739+465.182+401.501+465.182+407.376L465.182+871.913C465.182+877.787+460.42+882.549+454.545+882.549Z"/>
<path d="M553.622+882.549L553.407+882.549C547.532+882.549+542.77+877.787+542.77+871.913L542.77+407.376C542.77+401.501+547.532+396.739+553.407+396.739L575.109+396.739C580.984+396.739+585.535+401.497+585.276+407.365L564.728+871.923C564.469+877.792+559.496+882.549+553.622+882.549Z" opacity="1" fill="#1a6ac9"/>
<path d="M651.207+869.901L675.462+409.388C675.83+402.402+681.799+396.739+688.794+396.739L706.438+396.739C713.433+396.739+718.604+402.388+717.987+409.356L677.244+869.933C676.628+876.901+670.457+882.549+663.462+882.549L663.206+882.549C656.211+882.549+650.839+876.887+651.207+869.901Z" opacity="1" fill="#1a6ac9"/>
<path fill="#1a6ac9" opacity="1" d="M344.741+882.549L344.495+882.549C337.773+882.549+331.844+877.121+331.251+870.426L290.421+408.863C289.829+402.167+294.798+396.739+301.52+396.739L320.153+396.739C326.875+396.739+332.599+402.182+332.939+408.895L356.297+870.394C356.637+877.107+351.463+882.549+344.741+882.549Z"/>
<path fill="#1a6ac9" opacity="1" d="M120.337+290.243L895.855+290.243C899.907+290.243+903.192+293.528+903.192+297.58L903.192+297.58C903.192+301.632+899.907+304.917+895.855+304.917L120.337+304.917C116.285+304.917+113+301.632+113+297.58L113+297.58C113+293.528+116.285+290.243+120.337+290.243Z"/>
<path d="M230.887+963.73L775.639+963.73C778.469+963.73+780.763+966.024+780.763+968.854L780.763+968.854C780.763+971.684+778.469+973.978+775.639+973.978L230.887+973.978C228.057+973.978+225.763+971.684+225.763+968.854L225.763+968.854C225.763+966.024+228.057+963.73+230.887+963.73Z" opacity="1" fill="#1a6ac9"/>
<path d="M506.096+364.33L506.096+364.33L506.096+367.368L506.096+367.368L506.096+364.33Z" opacity="1" fill="#000a91"/>
<path fill="#000a91" d="M506.716+287.786L507.476+287.786L507.476+287.786L506.716+287.786Z" opacity="1"/>
<path opacity="1" d="M506.096+385.596L506.096+385.596L506.096+387.115L506.096+387.115L506.096+385.596Z" fill="#000a91"/>
<path fill="#000a91" d="M507.096+284.857L507.096+284.857L507.096+287.786L507.096+287.786L507.096+284.857Z" opacity="1"/>
<path d="M507.096+284.857L507.096+284.857L507.096+287.786L507.096+287.786L507.096+284.857Z" opacity="1" fill="#000a91"/>
<path d="M506.096+535.978L506.096+535.978L506.096+537.497L506.096+537.497L506.096+535.978Z" opacity="1" fill="#000a91"/>
</g>
</svg>
