<svg xmlns="http://www.w3.org/2000/svg" width="1em" version="1.1" height="1em"  viewBox="0 0 1024 1024">
<g>
<path d="M681.212 147.368L797.463 147.368C807.049 147.368 814.819 153.548 814.819 161.171L814.819 362.384C814.819 370.006 807.049 376.186 797.463 376.186L681.212 376.186C671.626 376.186 663.855 370.006 663.855 362.384L663.855 161.171C663.855 153.548 671.626 147.368 681.212 147.368Z" fill="#ff3e3e" fill-rule="evenodd" opacity="1" stroke="none"/>
<path d="M897.791 442.323L126.209 442.323C99.1138 442.323 93.6974 428.508 114.111 411.466L446.772 133.753C482.797 103.679 541.203 103.679 577.228 133.753L909.889 411.466C930.303 428.508 924.886 442.323 897.791 442.323Z" fill="#ff3e3e" fill-rule="evenodd" opacity="1" stroke="none"/>
<path d="M196.594 429.832L463.154 208.706C490.5 186.02 534.725 186.162 561.933 209.023L827.347 432.038C835.062 438.52 841.316 452.063 841.316 462.286L841.316 821.607C841.316 858.431 812.181 888.283 776.242 888.283L250.865 888.283C214.739 888.283 185.258 858.276 185.019 821.261L182.684 459.965C182.618 449.75 188.846 436.259 196.594 429.832Z" fill="#ffeca6" fill-rule="evenodd" opacity="1" stroke="none"/>
<path d="M415.804 540.552L612.461 540.552C631.628 540.552 647.165 555.218 647.165 573.309L647.165 888.283L374.975 888.283L374.975 579.09C374.975 557.806 393.255 540.552 415.804 540.552Z" fill="#bfbfbf" fill-rule="evenodd" opacity="1" stroke="none"/>
<path d="M648.165 884.925L458.872 968.835C440.423 977.939 425.468 969.518 425.468 950.028L425.468 646.604C425.468 637.346 432.572 626.335 441.335 622.011L632.298 537.276C641.061 532.952 648.165 536.952 648.165 546.21L648.165 884.925Z" fill="#8ed6ff" fill-rule="evenodd" opacity="1" stroke="none"/>
</g>
</svg>
