<svg xmlns="http://www.w3.org/2000/svg" width="1em" version="1.1" height="1em"  viewBox="0 0 1024 1024">
<g>
<path d="M681.212 147.368L797.463 147.368C807.049 147.368 814.819 153.548 814.819 161.171L814.819 362.384C814.819 370.006 807.049 376.186 797.463 376.186L681.212 376.186C671.626 376.186 663.855 370.006 663.855 362.384L663.855 161.171C663.855 153.548 671.626 147.368 681.212 147.368Z" fill="#ff3e3e" fill-rule="evenodd" opacity="1" stroke="none"/>
<path d="M897.791 442.323L126.209 442.323C99.1138 442.323 93.6974 428.508 114.111 411.466L446.772 133.753C482.797 103.679 541.203 103.679 577.228 133.753L909.889 411.466C930.303 428.508 924.886 442.323 897.791 442.323Z" fill="#ff3e3e" fill-rule="evenodd" opacity="1" stroke="none"/>
<path d="M196.594 429.832L463.154 208.706C490.5 186.02 534.725 186.162 561.933 209.023L827.347 432.038C835.062 438.52 841.316 452.063 841.316 462.286L841.316 821.607C841.316 858.431 812.181 888.283 776.242 888.283L250.865 888.283C214.739 888.283 185.258 858.276 185.019 821.261L182.684 459.965C182.618 449.75 188.846 436.259 196.594 429.832Z" fill="#ffeca6" fill-rule="evenodd" opacity="1" stroke="none"/>
<path d="M409.052 529.206L621.567 529.206C642.279 529.206 659.069 544.35 659.069 563.031L659.069 888.283L364.931 888.283L364.931 569.001C364.931 547.022 384.684 529.206 409.052 529.206Z" fill="#8ed6ff" fill-rule="evenodd" opacity="1" stroke="none"/>
</g>
</svg>
