<svg xmlns="http://www.w3.org/2000/svg" width="1em" version="1.1" height="1em"  viewBox="0 0 1024 1024">
<g>
<path d="M743.459 84.3732L743.459 84.3732C732.38 75.2189 714.768 75.2189 703.974 84.3732L694.884 91.8844L685.794 84.3732C674.715 75.2189 657.103 75.2189 646.309 84.3732L646.309 84.3732C635.23 93.5275 635.23 108.08 646.309 117L743.743 117C754.537 108.08 754.537 93.2928 743.459 84.3732Z" fill="#ff93a2" fill-rule="evenodd" opacity="1" stroke="none"/>
<path d="M220.531 112C214.906 112 182.344 144.646 182.344 150.625L180.344 867.406C180.243 868.591 180 869.727 180 870.938C180 894.007 198.687 912.75 221.75 912.75C222.018 912.75 222.264 912.661 222.531 912.656L222.531 912.688L263.844 912.688L263.844 870.188L263.844 828.906L263.844 112L220.531 112Z" fill="#59b190" fill-rule="evenodd" opacity="1" stroke="none"/>
<path d="M261.844 112L261.844 912.719C261.844 912.719 788.72 912.587 798.634 912.371C798.649 912.371 811.479 911.229 811.468 897.552C803.157 896.576 795.589 878.904 796.706 864.548C797.823 850.191 811 840.219 811 840.219L811.118 840.219C817.542 840.219 822.75 835.011 822.75 828.586L822.75 127.438C822.75 121.123 814.432 112 809.094 112L261.844 112Z" fill="#6ad1aa" fill-rule="evenodd" opacity="1" stroke="none"/>
<path d="M643 160L643 600" fill="none" fill-rule="evenodd" opacity="1" stroke="#64837b" stroke-linecap="round" stroke-linejoin="round" stroke-width="4.5"/>
<path d="M656.333 160L656.333 600" fill="none" fill-rule="evenodd" opacity="1" stroke="#64837b" stroke-linecap="round" stroke-linejoin="round" stroke-width="4.5"/>
<path d="M729.667 160L729.667 600" fill="none" fill-rule="evenodd" opacity="1" stroke="#64837b" stroke-linecap="round" stroke-linejoin="round" stroke-width="4.5"/>
<path d="M743 160L743 600" fill="none" fill-rule="evenodd" opacity="1" stroke="#64837b" stroke-linecap="round" stroke-linejoin="round" stroke-width="4.5"/>
<path d="M656.333 196.667L729.667 196.667" fill="none" fill-rule="evenodd" opacity="1" stroke="#64837b" stroke-linecap="round" stroke-linejoin="round" stroke-width="4.5"/>
<path d="M656.333 270L729.667 270" fill="none" fill-rule="evenodd" opacity="1" stroke="#64837b" stroke-linecap="round" stroke-linejoin="round" stroke-width="4.5"/>
<path d="M656.333 343.333L729.667 343.333" fill="none" fill-rule="evenodd" opacity="1" stroke="#64837b" stroke-linecap="round" stroke-linejoin="round" stroke-width="4.5"/>
<path d="M656.333 416.667L729.667 416.667" fill="none" fill-rule="evenodd" opacity="1" stroke="#64837b" stroke-linecap="round" stroke-linejoin="round" stroke-width="4.5"/>
<path d="M656.333 490L729.667 490" fill="none" fill-rule="evenodd" opacity="1" stroke="#64837b" stroke-linecap="round" stroke-linejoin="round" stroke-width="4.5"/>
<path d="M656.333 563.333L729.667 563.333" fill="none" fill-rule="evenodd" opacity="1" stroke="#64837b" stroke-linecap="round" stroke-linejoin="round" stroke-width="4.5"/>
<path d="M219 841C202.431 841 189 854.431 189 871C189 887.569 202.431 901 219 901C219.526 901 220.012 900.87 220.531 900.844C221.091 900.915 221.639 901 222.219 901L810.056 901C810.056 901 810.056 848.377 810.056 840.408L222.219 841C221.639 841 221.091 841.085 220.531 841.156C220.012 841.13 219.526 841 219 841Z" fill="#eae9e8" fill-rule="evenodd" opacity="1" stroke="#59b190" stroke-linecap="round" stroke-linejoin="round" stroke-width="2.66722"/>
<g fill="#64827a" opacity="1" stroke="#64837b" stroke-linecap="round" stroke-linejoin="round" stroke-width="3.47524">
<path clip-path="url(#TextBounds)" d="M693.575 209.803C693.494 210.327 692.789 210.72 691.458 210.982C690.127 211.245 688.635 211.376 686.982 211.376C684.562 211.376 683.04 211.255 682.415 211.013C681.79 210.771 680.893 210.206 679.723 209.319C678.554 208.432 677.969 207.887 677.969 207.686C677.969 207.605 678.09 207.545 678.332 207.504C678.413 207.504 678.534 207.484 678.695 207.444C679.139 207.444 679.996 207.535 681.266 207.716C682.536 207.898 683.373 207.988 683.776 207.988L690.551 207.988C691.68 207.988 692.466 208.079 692.91 208.26C693.353 208.442 693.575 208.815 693.575 209.38L693.575 209.803ZM702.83 215.186C702.83 215.912 702.356 216.356 701.408 216.517C700.461 216.678 699.604 216.759 698.837 216.759L695.874 216.699C689.905 216.699 683.917 217.122 677.909 217.969C676.86 218.251 675.832 218.513 674.824 218.755C674.219 218.755 673.1 218.322 671.467 217.455C669.834 216.588 669.017 215.953 669.017 215.549C669.017 215.348 669.239 215.247 669.682 215.247C670.408 215.247 671.84 215.388 673.977 215.67C675.187 215.832 676.074 215.912 676.638 215.912C678.01 215.912 681.084 215.741 685.863 215.398C690.641 215.055 693.252 214.803 693.696 214.642C694.22 214.642 694.966 214.42 695.934 213.977C696.902 213.533 697.769 213.311 698.535 213.311C700.35 213.311 701.519 213.422 702.043 213.644C702.568 213.866 702.83 214.299 702.83 214.944L702.83 215.186ZM723.396 226.679C723.275 227.405 722.912 227.859 722.307 228.04C721.702 228.221 720.532 228.312 718.798 228.312L711.54 228.433L711.358 233.635C711.358 234.764 711.177 235.934 710.814 237.143C710.29 238.877 709.564 239.744 708.636 239.744C708.233 239.744 707.981 239.008 707.88 237.537C707.78 236.065 707.729 235.067 707.729 234.542L707.669 209.138C707.669 208.694 706.54 208.008 704.281 207.081C702.023 206.153 700.894 205.569 700.894 205.327C700.894 205.085 701.146 204.873 701.65 204.692C702.154 204.51 702.769 204.42 703.495 204.42C704.906 204.42 706.671 204.692 708.788 205.236C710.905 205.78 711.963 206.537 711.963 207.504C711.963 207.787 711.913 208.23 711.812 208.835C711.711 209.44 711.661 209.863 711.661 210.105L711.6 226.437L714.685 226.195L717.528 224.804L720.311 224.743C721.641 224.743 722.498 224.874 722.881 225.137C723.264 225.399 723.456 225.792 723.456 226.316L723.396 226.679ZM697.265 230.066C697.265 232.526 695.914 234.563 693.212 236.176C690.873 237.587 688.393 238.293 685.772 238.293C682.062 238.293 679.118 237.244 676.941 235.147C675.086 233.373 674.158 231.357 674.158 229.099C674.158 225.469 675.993 223.009 679.663 221.719C683.332 220.429 685.167 219.521 685.167 218.997C685.167 218.755 685.117 218.402 685.016 217.939C684.915 217.475 684.865 217.162 684.865 217.001L685.046 216.578C685.49 216.578 686.085 216.951 686.831 217.697C687.577 218.443 687.95 219.078 687.95 219.602C687.95 219.804 687.889 220.025 687.768 220.267C687.728 220.348 687.667 220.449 687.587 220.57C689.764 220.892 691.377 221.296 692.426 221.78C695.652 223.312 697.265 225.893 697.265 229.522L697.265 230.066ZM712.145 242.648C711.822 243.414 711.52 244.16 711.237 244.886L710.754 255.955C710.754 256.923 710.552 258.173 710.149 259.705C709.624 261.681 709.04 262.669 708.395 262.669C708.072 262.669 707.8 262.054 707.578 260.824C707.356 259.594 707.245 258.254 707.245 256.802L707.124 243.797C704.503 243.797 700.904 243.908 696.327 244.13C691.75 244.352 688.938 244.624 687.889 244.946C687.647 244.946 687.204 245.108 686.558 245.43C685.913 245.753 685.45 245.914 685.167 245.914C684.441 245.914 683 245.45 680.842 244.523C678.685 243.595 677.606 242.87 677.606 242.345C677.606 242.265 677.747 242.184 678.03 242.103C678.473 242.103 679.179 242.164 680.147 242.285C682.405 242.567 683.695 242.708 684.018 242.708C685.47 242.708 689.19 242.587 695.178 242.345C701.166 242.103 704.382 241.902 704.826 241.74C705.31 241.74 705.894 241.62 706.58 241.378C706.782 241.297 707.084 241.176 707.487 241.015C708.536 241.136 709.574 241.357 710.602 241.68C711.631 242.003 712.145 242.325 712.145 242.648ZM694.18 229.34L694.18 228.796C694.18 227.022 693.555 225.53 692.305 224.32C690.692 222.747 689.2 221.961 687.829 221.961C687.788 222.042 686.034 222.727 682.566 224.018C679.502 225.147 677.969 226.961 677.969 229.461C677.969 231.034 678.776 232.425 680.389 233.635C682.002 234.845 683.796 235.45 685.772 235.45C687.869 235.45 689.724 234.966 691.337 233.998C693.232 232.869 694.18 231.316 694.18 229.34Z" fill-rule="evenodd"/>
<path clip-path="url(#TextBounds)" d="M723.456 301.563C723.456 302.208 723.164 302.642 722.579 302.863C721.994 303.085 721.117 303.196 719.948 303.196L713.899 303.015C711.278 303.015 709.282 303.035 707.911 303.075C701.096 303.277 696.922 303.378 695.39 303.378C691.559 303.378 688.272 303.478 685.53 303.68C682.788 303.882 680.893 304.083 679.844 304.285C679.401 304.325 678.635 304.527 677.546 304.89C676.941 305.091 676.517 305.192 676.276 305.192C675.469 305.192 673.886 304.678 671.527 303.65C669.168 302.621 667.989 301.805 667.989 301.2C667.989 300.958 668.231 300.837 668.715 300.837C670.529 301.039 672.293 301.21 674.007 301.351C675.721 301.492 677.203 301.563 678.453 301.563L685.046 301.623L692.184 301.502L706.096 300.958C706.257 300.273 706.398 299.688 706.519 299.204C707.407 295.938 708.032 293.377 708.395 291.522C708.636 290.312 708.878 288.76 709.12 286.864C709.161 286.34 709.241 285.695 709.362 284.929C708.032 285.05 706.429 285.161 704.554 285.261C702.678 285.362 700.39 285.413 697.688 285.413L685.954 286.078C685.631 286.078 685.288 286.159 684.925 286.32C683.957 286.764 683.353 286.985 683.111 286.985C682.385 286.985 681.034 286.491 679.058 285.503C677.082 284.515 676.094 283.78 676.094 283.296C676.094 282.973 676.336 282.812 676.82 282.812C677.989 282.973 679.31 283.124 680.782 283.265C682.254 283.407 683.655 283.477 684.986 283.477L690.974 283.598C692.789 283.598 695.833 283.487 700.108 283.265C704.382 283.044 707.165 282.933 708.455 282.933C708.657 282.933 709.01 282.781 709.514 282.479C710.018 282.177 710.391 282.025 710.633 282.025C711.439 282.025 712.467 282.328 713.717 282.933C714.564 283.336 714.988 283.699 714.988 284.021C714.988 284.263 714.756 284.606 714.292 285.05C713.828 285.493 713.576 285.796 713.536 285.957C713.294 287.127 712.377 289.879 710.784 294.214C709.191 298.549 708.395 300.797 708.395 300.958L712.81 300.353C714.302 300.071 715.794 299.789 717.286 299.506C718.899 299.506 720.331 299.658 721.581 299.96C722.831 300.262 723.456 300.797 723.456 301.563ZM709.665 311.785L709.302 325.698C709.302 328.117 709.08 330.093 708.636 331.625C708.193 333.158 707.568 333.924 706.761 333.924C706.197 333.924 705.854 333.581 705.733 332.896C705.612 332.21 705.552 331.605 705.552 331.081L705.612 330.174L686.196 330.537C686.034 331.383 685.873 332.008 685.712 332.412C685.228 333.702 684.623 334.388 683.897 334.468C683.292 334.468 682.939 333.833 682.838 332.563C682.738 331.293 682.687 330.153 682.687 329.145L682.566 314.326C682.566 313.842 681.689 313.237 679.935 312.511C678.181 311.785 677.304 311.342 677.304 311.18C677.304 311.019 677.485 310.828 677.848 310.606C678.211 310.384 678.614 310.273 679.058 310.273C681.034 310.273 682.506 310.354 683.474 310.515C685.651 310.878 686.74 311.564 686.74 312.572L686.619 316.866L705.552 316.624L705.552 312.027C705.552 311.705 704.846 311.16 703.435 310.394C702.023 309.628 701.317 309.104 701.317 308.821C701.317 308.418 701.741 308.217 702.588 308.217C703.838 308.217 705.189 308.378 706.64 308.7C708.737 309.184 709.786 309.83 709.786 310.636L709.665 311.785ZM705.552 328.057L705.552 318.56L686.619 318.923L686.558 328.48L705.552 328.057Z" fill-rule="evenodd"/>
<path clip-path="url(#TextBounds)" d="M713.173 356.425L712.931 372.031C712.931 375.298 712.719 377.808 712.296 379.562C711.873 381.316 711.258 382.193 710.451 382.193C710.048 382.193 709.756 381.608 709.574 380.439C709.393 379.27 709.302 377.979 709.302 376.568L709.181 356.365C709.181 355.921 708.052 355.256 705.794 354.369C703.535 353.482 702.406 352.937 702.406 352.736C702.406 352.332 702.658 352.06 703.162 351.919C703.666 351.778 704.14 351.707 704.584 351.707L704.886 351.707C706.459 351.99 708.052 352.252 709.665 352.494C712.125 353.058 713.355 353.824 713.355 354.792L713.173 356.425ZM696.176 369.551C696.176 372.414 694.845 374.814 692.184 376.749C689.764 378.524 687.063 379.411 684.078 379.411C680.61 379.411 677.626 378.443 675.126 376.507C672.384 374.37 671.013 371.608 671.013 368.22C671.013 364.551 672.868 361.889 676.578 360.236C677.788 359.712 679.643 359.248 682.143 358.845C682.385 358.603 682.506 358.341 682.506 358.059L682.324 357.03C682.324 356.95 682.465 356.849 682.748 356.728C683.312 356.728 683.927 356.96 684.593 357.423C685.258 357.887 685.591 358.401 685.591 358.966C687.93 359.611 689.684 360.256 690.853 360.901C694.402 362.958 696.176 365.841 696.176 369.551ZM718.315 405.058C718.315 405.703 717.952 406.136 717.226 406.358C716.5 406.58 715.532 406.691 714.322 406.691L709.786 406.57C707.447 406.57 704.493 406.61 700.924 406.691C697.356 406.771 694.019 406.852 690.914 406.933C689.22 406.933 687.93 406.65 687.042 406.086C685.954 405.36 685.409 404.191 685.409 402.578L685.349 397.073C685.349 396.71 684.593 396.307 683.08 395.863C681.568 395.42 680.812 395.117 680.812 394.956C680.812 394.633 681.014 394.392 681.417 394.23C681.82 394.069 682.324 393.988 682.929 393.988C683.937 393.988 685.006 394.089 686.135 394.291C687.264 394.492 688.454 394.714 689.704 394.956C691.559 394.956 695.45 394.754 701.378 394.351C704.362 394.15 706.701 394.049 708.395 394.049L708.697 386.125L701.983 386.427C700.209 386.427 697.809 386.548 694.785 386.79C693.736 386.871 692.285 387.012 690.43 387.214C690.309 387.214 689.764 387.435 688.796 387.879C688.353 388.081 687.93 388.181 687.526 388.181C686.962 388.181 685.712 387.718 683.776 386.79C681.84 385.863 680.873 385.238 680.873 384.915C680.873 384.673 681.074 384.552 681.477 384.552C682.566 384.552 684.099 384.623 686.075 384.764C688.05 384.905 689.321 384.976 689.885 384.976C694.765 384.976 698.686 384.885 701.65 384.703C704.614 384.522 706.277 384.371 706.64 384.25C706.923 384.25 707.326 384.129 707.85 383.887C708.374 383.645 708.657 383.524 708.697 383.524C709.262 383.524 710.189 383.756 711.479 384.22C712.77 384.683 713.415 385.117 713.415 385.52C713.415 385.802 713.294 386.085 713.052 386.367C712.81 386.649 712.588 386.891 712.387 387.093C712.306 387.173 711.963 388.222 711.358 390.238L710.451 393.928C711.016 393.928 711.58 393.978 712.145 394.079C712.709 394.18 712.992 394.492 712.992 395.017C712.992 395.5 712.679 395.793 712.054 395.894C711.429 395.994 710.915 396.045 710.512 396.045L689.341 396.892L689.341 403.727C689.341 404.574 689.784 404.997 690.672 404.997L699.321 404.816C702.184 404.816 704.211 404.785 705.4 404.725C706.59 404.664 707.427 404.553 707.911 404.392C708.354 404.392 708.999 404.15 709.846 403.666C710.693 403.182 711.782 402.94 713.113 402.94C714.645 402.94 715.895 403.082 716.863 403.364C717.831 403.646 718.315 404.211 718.315 405.058ZM692.547 368.886C692.547 366.224 691.317 364.067 688.857 362.414C688.05 361.889 686.8 361.325 685.107 360.72C684.986 360.962 684.824 361.164 684.623 361.325C684.22 361.728 683.655 361.99 682.929 362.111C680.59 362.514 678.937 362.998 677.969 363.563C676.034 364.692 675.066 366.406 675.066 368.704C675.066 370.721 676.094 372.495 678.151 374.027C680.006 375.398 681.982 376.084 684.078 376.084C686.256 376.084 688.171 375.439 689.825 374.148C691.639 372.737 692.547 370.983 692.547 368.886Z" fill-rule="evenodd"/>
<path clip-path="url(#TextBounds)" d="M701.378 464.396L701.015 464.457C700.491 464.457 699.21 463.418 697.174 461.341C695.138 459.265 693.152 457.218 691.216 455.202C689.119 453.024 687.95 451.936 687.708 451.936C686.498 453.105 685.47 454.053 684.623 454.779C682.203 456.916 679.693 458.932 677.092 460.827C674.491 462.723 672.223 464.275 670.287 465.485C667.989 466.896 666.517 467.602 665.872 467.602L665.509 467.3C665.509 467.017 666.093 466.453 667.263 465.606C670.408 463.267 672.041 462.057 672.162 461.977C674.663 460.081 677.183 457.944 679.723 455.565C682.425 453.065 684.885 450.383 687.103 447.52C688.676 445.463 690.047 443.427 691.216 441.411C691.619 440.604 692.043 439.798 692.486 438.991L685.349 439.354L678.393 439.959C678.151 440.12 677.889 440.272 677.606 440.413C677.324 440.554 676.981 440.624 676.578 440.624C675.973 440.624 674.713 440.161 672.797 439.233C670.882 438.306 669.924 437.66 669.924 437.298C669.924 437.177 670.086 437.076 670.408 436.995C670.489 436.995 670.67 436.975 670.953 436.935C671.961 436.935 673.513 437.015 675.61 437.177C677.707 437.338 679.28 437.419 680.328 437.419C683.433 437.419 686.478 437.318 689.462 437.116C689.986 437.116 690.651 437.056 691.458 436.935C691.579 436.935 691.861 436.854 692.305 436.693C693.313 436.33 693.877 436.148 693.998 436.148C694.563 436.148 695.42 436.39 696.569 436.874C697.718 437.358 698.293 437.822 698.293 438.265C698.293 438.548 698.112 438.83 697.749 439.112C697.386 439.394 697.043 439.657 696.72 439.899C696.196 440.786 695.773 441.471 695.45 441.955C694.523 443.367 693.676 444.596 692.91 445.645C692.426 446.29 691.599 447.278 690.43 448.609C689.422 449.738 688.917 450.363 688.917 450.484L692.244 453.387C692.688 453.75 693.414 454.194 694.422 454.718C695.43 455.242 696.458 455.746 697.507 456.23C698.918 457.561 700.057 458.831 700.924 460.041C701.791 461.251 702.225 462.239 702.225 463.005C702.225 463.65 701.943 464.114 701.378 464.396ZM713.173 429.555L712.871 475.707C712.871 477.159 712.75 478.49 712.508 479.7C712.104 481.716 711.479 482.724 710.633 482.724C710.31 482.724 710.048 482.391 709.846 481.726C709.645 481.06 709.544 479.941 709.544 478.369L709.181 430.462C709.181 430.14 708.354 429.585 706.701 428.799C705.048 428.013 703.354 427.196 701.62 426.349C701.62 426.067 701.902 425.815 702.467 425.593C703.031 425.371 703.495 425.26 703.858 425.26C705.027 425.26 706.761 425.583 709.06 426.228C711.883 427.035 713.294 427.861 713.294 428.708L713.173 429.555Z" fill-rule="evenodd"/>
</g>
<path d="M221.265 112L222.735 112C244.31 112 261.8 129.819 261.8 151.8L261.8 151.8C261.8 173.781 244.31 191.6 222.735 191.6L221.265 191.6C199.69 191.6 182.2 173.781 182.2 151.8L182.2 151.8C182.2 129.819 199.69 112 221.265 112Z" fill="#59b190" fill-rule="evenodd" opacity="1" stroke="none"/>
<path d="M189.75 868.658L808.939 872.358" fill="#59b190" fill-rule="evenodd" opacity="1" stroke="none"/>
<path d="M191.909 896.557L811.097 900.258" fill="#59b190" fill-rule="evenodd" opacity="1" stroke="none"/>
<path d="M189.75 870L810 870" fill="none" fill-rule="evenodd" opacity="1" stroke="#59b190" stroke-linecap="round" stroke-linejoin="round" stroke-width="0.538958"/>
<path d="M191.909 897.899L812.158 897.899" fill="none" fill-rule="evenodd" opacity="1" stroke="#59b190" stroke-linecap="round" stroke-linejoin="round" stroke-width="0.538958"/>
<path d="M187.645 854.208L807.894 854.208" fill="none" fill-rule="evenodd" opacity="1" stroke="#59b190" stroke-linecap="round" stroke-linejoin="round" stroke-width="0.538958"/>
<path d="M189.803 882.107L810.053 882.107" fill="none" fill-rule="evenodd" opacity="1" stroke="#59b190" stroke-linecap="round" stroke-linejoin="round" stroke-width="0.538958"/>
<path d="M188.698 846.838L808.947 846.838" fill="none" fill-rule="evenodd" opacity="1" stroke="#59b190" stroke-linecap="round" stroke-linejoin="round" stroke-width="0.538958"/>
<path d="M190.856 874.738L811.106 874.738" fill="none" fill-rule="evenodd" opacity="1" stroke="#59b190" stroke-linecap="round" stroke-linejoin="round" stroke-width="0.538958"/>
<path d="M190.723 862.63L809.474 862.63" fill="none" fill-rule="evenodd" opacity="1" stroke="#59b190" stroke-linecap="round" stroke-linejoin="round" stroke-width="0.538958"/>
<path d="M192.881 890.53L811.632 890.53" fill="none" fill-rule="evenodd" opacity="1" stroke="#59b190" stroke-linecap="round" stroke-linejoin="round" stroke-width="0.538958"/>
</g>
</svg>
