<svg  viewBox="0 0 1024 1024" height="1em" version="1.1"  width="1em" xmlns="http://www.w3.org/2000/svg">
<linearGradient y2="630.275" x1="726.076" x2="786.709" id="LinearGradient" y1="630.275" gradientTransform="matrix(1 0 0 1 0 0)" gradientUnits="userSpaceOnUse">
<stop stop-color="#ffe1d1" stop-opacity="0.623874" offset="0.179752"/>
<stop offset="0.845041" stop-color="#ffe1d1" stop-opacity="0.246226"/>
</linearGradient>
<linearGradient x2="660.549" y1="670.728" x1="624.55" gradientUnits="userSpaceOnUse" id="LinearGradient_2" y2="699.809" gradientTransform="matrix(0.913443 0 0 1 55.8196 0)">
<stop offset="0.167355" stop-opacity="0.668919" stop-color="#ffe1d1"/>
<stop stop-opacity="0.246226" stop-color="#ffe1d1" offset="0.822314"/>
</linearGradient>
<linearGradient x2="756.95" y2="708.612" gradientTransform="matrix(1 0 0 1 0 0)" x1="751.855" gradientUnits="userSpaceOnUse" y1="688.231" id="LinearGradient_3">
<stop offset="0.167355" stop-color="#ffe1d1" stop-opacity="0.574324"/>
<stop offset="0.822314" stop-opacity="0.246226" stop-color="#ffe1d1"/>
</linearGradient>
<linearGradient x1="637.879" y2="622.21" gradientTransform="matrix(1.11924 0 0 1 -75.2299 0)" x2="676.728" y1="608.622" gradientUnits="userSpaceOnUse" id="LinearGradient_4">
<stop stop-opacity="0.59009" offset="0.11157" stop-color="#ffe1d1"/>
<stop offset="0.778926" stop-color="#ffe1d1" stop-opacity="0.158388"/>
</linearGradient>
<g>
<path opacity="1" fill="#90e4f0" d="M160.831+167.43C125.536+167.43+96.9443+198.599+96.9443+237.112L96.9443+794.766C96.9443+833.279+125.536+864.481+160.831+864.481L448.215+864.481C448.247+864.481+448.273+864.481+448.305+864.481C448.337+864.481+448.363+864.481+448.395+864.481L863.552+864.481C898.847+864.481+927.439+833.279+927.439+794.766L927.439+237.112C927.439+198.599+898.847+167.43+863.552+167.43L160.831+167.43Z"/>
<path d="M192.786+237.112L320.559+237.112C338.19+237.112+352.487+252.747+352.487+271.986L352.487+411.383C352.487+430.622+338.19+446.257+320.559+446.257L192.786+446.257C175.154+446.257+160.827+430.622+160.827+411.383L160.827+271.986C160.827+252.747+175.154+237.112+192.786+237.112Z" opacity="1" fill="#68d9e7"/>
<path d="M448.305+237.112L576.078+237.112C593.71+237.112+608.006+252.747+608.006+271.986L608.006+411.383C608.006+430.622+593.71+446.257+576.078+446.257L575.539+446.257C575.476+446.257+575.454+446.257+575.39+446.257L448.305+446.257C430.673+446.257+416.377+430.622+416.377+411.383L416.377+271.986C416.377+252.747+430.673+237.112+448.305+237.112Z" fill="#68d9e7" opacity="1"/>
<path fill="#68d9e7" opacity="1" d="M703.851+237.112L831.594+237.112C849.226+237.112+863.552+252.747+863.552+271.986L863.552+411.383C863.552+430.622+849.226+446.257+831.594+446.257L703.851+446.257C686.219+446.257+671.893+430.622+671.893+411.383L671.893+271.986C671.893+252.747+686.219+237.112+703.851+237.112Z"/>
<path opacity="1" d="M211.59+510.447L414.547+510.447C442.553+510.447+465.262+530.631+465.262+555.519L465.262+735.892C465.262+760.78+442.553+780.963+414.547+780.963L211.59+780.963C183.584+780.963+160.827+760.78+160.827+735.892L160.827+555.519C160.827+530.631+183.584+510.447+211.59+510.447Z" fill="#68d9e7"/>
<path fill="#68d9e7" opacity="1" d="M580.549+510.447L806.793+510.447C838.013+510.447+863.327+530.631+863.327+555.519L863.327+735.892C863.327+760.78+838.013+780.963+806.793+780.963L580.549+780.963C549.33+780.963+523.962+760.78+523.962+735.892L523.962+555.519C523.962+530.631+549.33+510.447+580.549+510.447Z"/>
<path d="M479.136+341.968C485.356+344.667+493.055+343.625+498.173+336.541C495.34+343.336+507.615+358.496+521.129+347.56C525.556+343.961+521.623+338.763+518.64+337.433C523.585+340.534+537.139+345.439+547.513+340.605C561.737+333.97+560.181+319.047+546.327+322.093C558.199+319.178+573.781+317.153+580.942+306.802C589.531+294.404+575.869+285.982+560.44+289.237C573.627+287.164+579.638+275.944+571+272.259C560.644+267.842+546.475+274.16+539.055+284.369C539.711+278.328+536.55+271.643+526.509+272.403C507.04+273.849+508.115+286.625+511.366+294.088C507+291.233+489.314+288.78+481.14+296.051C471.301+304.832+483.233+314.265+494.347+315.215C488.765+315.014+480.313+314.625+476.891+318.854C469.062+328.496+484.893+326.104+494.894+321.669C494.882+321.686+469.846+333.98+479.136+341.968Z" opacity="1" fill="#4ca729"/>
<path fill="#15bc16" d="M456.172+325.252C461.892+328.893+469.659+329.071+475.825+322.876C471.962+329.144+481.708+346.041+496.769+337.358C501.706+334.497+498.636+328.747+495.898+326.966C500.296+330.804+512.914+337.772+523.917+334.624C539.006+330.301+539.808+315.318+525.648+316.156C537.83+315.137+553.536+315.58+562.232+306.479C572.658+295.58+560.485+285.122+544.736+285.917C558.085+285.937+565.781+275.798+557.827+270.805C548.292+264.819+533.308+268.838+524.378+277.758C525.974+271.894+523.9+264.796+513.863+263.973C494.409+262.349+493.468+275.136+495.509+283.017C491.644+279.512+474.562+274.317+465.349+280.217C454.255+287.347+464.561+298.534+475.389+301.215C469.907+300.141+461.62+298.432+457.578+302.072C448.334+310.368+464.345+310.487+474.917+307.674C474.902+307.689+448.249+315.907+456.172+325.252Z" opacity="1"/>
<path d="M558.653+421.497C550.859+424.909+541.209+423.592+534.795+414.639C538.345+423.227+522.961+442.386+506.025+428.565C500.477+424.017+505.406+417.448+509.145+415.767C502.946+419.686+485.96+425.884+472.959+419.775C455.132+411.39+457.082+392.53+474.444+396.38C459.566+392.696+440.037+390.137+431.062+377.055C420.298+361.386+437.42+350.743+456.757+354.856C440.231+352.236+432.697+338.056+443.522+333.4C456.501+327.817+474.259+335.802+483.559+348.704C482.736+341.07+486.698+332.621+499.283+333.581C523.682+335.409+522.335+351.555+518.261+360.987C523.732+357.379+545.897+354.278+556.142+363.468C568.474+374.565+553.519+386.487+539.59+387.687C546.586+387.434+557.179+386.942+561.467+392.286C571.279+404.472+551.439+401.449+538.905+395.844C538.92+395.865+570.297+411.403+558.653+421.497Z" opacity="1" fill="#209407"/>
<path opacity="1" fill="#1daf23" d="M537.806+394.661C530.124+396.223+521.673+393.338+517.598+384.396C519.16+392.505+501.625+406.392+488.991+391.32C484.856+386.365+490.556+381.541+494.25+380.754C487.911+383.044+471.407+385.372+460.849+377.716C446.372+367.211+451.734+351.162+466.657+357.64C453.943+351.754+436.819+346.008+431.223+333.014C424.509+317.449+441.984+311.28+458.638+318.342C444.233+313.085+440.147+299.396+450.8+297.299C463.572+294.783+478.061+304.928+483.985+317.824C484.701+311.037+489.888+304.404+501.054+307.508C522.71+313.495+518.411+327.293+512.935+334.761C518.559+332.609+539.141+333.909+546.625+343.746C555.627+355.619+539.862+363.291+527.071+361.824C533.429+362.864+543.076+364.346+545.923+369.767C552.445+382.132+535.128+375.926+524.895+368.793C524.904+368.814+550.235+387.982+537.806+394.661Z"/>
<path d="M549.085+340.583C543.832+342.206+537.733+340.75+534.269+334.731C535.922+340.334+524.648+351.307+514.783+341.556C511.553+338.348+515.197+334.563+517.72+333.757C513.455+335.802+502.097+338.565+494.196+333.893C483.363+327.482+485.991+315.817+496.856+319.361C487.574+316.083+475.223+313.204+470.415+304.436C464.648+293.933+476.416+288.399+488.53+292.237C478.111+289.517+474.309+280.156+481.598+277.954C490.338+275.313+501.155+281.469+506.185+290.146C506.213+285.318+509.373+280.294+517.382+281.719C532.912+284.46+530.87+294.468+527.567+300.1C531.343+298.202+545.798+297.715+551.705+304.132C558.812+311.879+548.342+318.354+539.313+318.193C543.823+318.492+550.659+318.878+553.022+322.501C558.432+330.764+545.916+327.574+538.278+323.248C538.286+323.262+557.296+335.033+549.085+340.583Z" fill="#148d14" opacity="1"/>
<path d="M507.911+366.519C512.31+368.568+517.869+367.622+521.731+361.914C519.519+367.358+527.945+379.215+537.939+370.317C541.214+367.389+538.523+363.32+536.414+362.309C539.887+364.697+549.498+368.385+557.077+364.385C567.47+358.894+566.74+347.06+556.707+349.694C565.313+347.195+576.561+345.346+581.976+337.011C588.47+327.028+578.872+320.547+567.701+323.37C577.231+321.52+581.841+312.512+575.731+309.718C568.404+306.367+558.06+311.605+552.462+319.831C553.091+315.021+550.993+309.757+543.759+310.516C529.732+311.964+530.172+322.099+532.314+327.98C529.251+325.778+516.608+324.101+510.545+330.004C503.247+337.132+511.576+344.444+519.536+345.028C515.53+344.955+509.468+344.775+506.899+348.188C501.023+355.97+512.46+353.826+519.762+350.148C519.752+350.162+501.444+360.315+507.911+366.519Z" fill="#49b637" opacity="1"/>
<path d="M514.634+383.666C519.033+385.716+524.592+384.769+528.454+379.061C526.242+384.505+534.667+396.362+544.662+387.464C547.936+384.536+545.245+380.467+543.136+379.456C546.609+381.844+556.221+385.532+563.8+381.532C574.193+376.041+573.463+364.207+563.43+366.841C572.035+364.342+583.284+362.493+588.699+354.158C595.193+344.175+585.595+337.694+574.424+340.517C583.953+338.667+588.564+329.659+582.453+326.865C575.127+323.514+564.782+328.752+559.185+336.978C559.814+332.168+557.716+326.905+550.481+327.663C536.455+329.111+536.895+339.246+539.037+345.127C535.974+342.925+523.33+341.248+517.268+347.151C509.969+354.279+518.298+361.591+526.259+362.175C522.253+362.102+516.19+361.922+513.622+365.335C507.746+373.117+519.183+370.973+526.484+367.295C526.475+367.309+508.166+377.462+514.634+383.666Z" opacity="1" fill="#3fc10d"/>
<path opacity="1" d="M255.638+369.849C270.974+366.744+334.836+342.807+356.718+310.126C378.599+277.445+369.699+233.482+336.832+211.903C303.966+190.324+259.572+199.311+237.687+231.975C215.802+264.639+217.491+327.866+221.446+347.4L255.638+369.849Z" fill="#e8a432"/>
<path d="M224.542+347.55L200.611+383.267C197.897+382.479+195.068+382.112+192.106+382.711C182.432+384.67+176.155+394.038+178.095+403.623C180.036+413.207+189.462+419.396+199.137+417.438C201.077+427.022+210.504+433.211+220.178+431.253C229.852+429.294+236.129+419.926+234.189+410.341C233.595+407.407+232.153+404.969+230.364+402.801L254.294+367.084" opacity="1" fill="#fff5cb"/>
<path d="M544.609+356.173L544.609+356.173C545.775+357.433+545.698+359.399+544.438+360.564L542.309+362.533C541.049+363.699+539.084+363.622+537.918+362.362L537.918+362.362C536.753+361.102+536.83+359.137+538.09+357.971L540.218+356.002C541.478+354.837+543.444+354.914+544.609+356.173Z" opacity="1" fill="#bc4015"/>
<path opacity="1" fill="#bc4015" d="M511.714+321.23L511.714+321.23C511.981+319.989+513.081+319.23+514.17+319.534L516.011+320.048C517.101+320.351+517.767+321.603+517.5+322.844L517.5+322.844C517.234+324.084+516.134+324.843+515.045+324.539L513.203+324.026C512.114+323.722+511.447+322.47+511.714+321.23Z"/>
<path d="M498.336+376.961L498.336+376.961C499.091+376.041+500.487+375.877+501.455+376.595L503.09+377.807C504.058+378.524+504.231+379.851+503.476+380.771L503.476+380.771C502.721+381.691+501.325+381.855+500.357+381.138L498.722+379.926C497.754+379.208+497.581+377.881+498.336+376.961Z" opacity="1" fill="#bc4015"/>
<path fill="#bc4015" opacity="1" d="M485.681+354.948L485.681+354.948C486.692+355.637+486.941+356.998+486.236+357.987L485.046+359.658C484.342+360.647+482.951+360.89+481.94+360.201L481.94+360.201C480.929+359.512+480.681+358.152+481.385+357.163L482.575+355.491C483.28+354.502+484.67+354.259+485.681+354.948Z"/>
<path d="M547.949+312.61L547.949+312.61C549.29+312.208+550.687+313.027+551.069+314.439L551.715+316.825C552.096+318.236+551.319+319.707+549.977+320.109L549.977+320.109C548.636+320.511+547.239+319.692+546.857+318.28L546.212+315.894C545.83+314.482+546.608+313.012+547.949+312.61Z" opacity="1" fill="#bc4015"/>
<path d="M488.691+295.137L488.691+295.137C489.44+293.592+491.299+292.948+492.843+293.696L495.452+294.961C496.996+295.71+497.641+297.568+496.893+299.113L496.893+299.113C496.144+300.657+494.286+301.302+492.741+300.553L490.132+299.288C488.588+298.539+487.943+296.681+488.691+295.137Z" fill="#bc4015" opacity="1"/>
<path opacity="1" fill="#ff9f00" d="M742.146+214.222L742.146+214.222C706.807+256.957+712.177+320.957+754.135+357.161C796.102+393.369+858.767+388.079+894.11+345.344L894.11+345.339L742.146+214.222Z"/>
<path d="M698.082+270.461L698.082+270.461C662.743+313.196+668.114+377.196+710.071+413.4C752.038+449.608+814.704+444.318+850.047+401.583L850.046+401.578L698.082+270.461Z" opacity="1" fill="#ff9f00"/>
<path fill="#fdde45" d="M759.626+349.999C794.976+380.185+846.318+378.66+879.743+348.287C882.836+345.476+885.775+342.418+888.534+339.116L822.176+282.343L748.692+219.701C716.11+258.691+721.005+317.031+759.626+349.999Z" opacity="1"/>
<path fill="#ffd20d" opacity="1" d="M762.196+346.721C765.509+349.588+768.967+352.16+772.542+354.44C806.266+375.95+850.308+371.462+879.058+343.14L879.043+342.794C884.547+337.962+874.347+326.841+869.203+322.38C869.203+322.38+852.054+306.642+838.293+295.718C828.928+288.285+819.624+287.095+819.624+287.095C819.624+287.095+814.417+276.785+807.41+270.21C792.34+256.07+768.897+235.566+768.897+235.566C763.24+230.678+752.04+223.708+745.44+229.582L745.07+229.662C721.463+266.881+728.124+317.242+762.196+346.721Z"/>
<path opacity="1" fill="#fdde45" d="M715.562+406.238C754.183+439.217+811.894+434.345+844.471+395.355L778.113+338.582L704.629+275.94C672.046+314.93+676.942+373.27+715.562+406.238Z"/>
<path fill="#ffd400" d="M718.132+402.96C721.445+405.827+724.904+408.399+728.479+410.679C762.203+432.189+806.244+427.701+834.994+399.379L834.979+399.033C834.979+399.033+830.283+383.08+825.139+378.619C825.139+378.619+807.991+362.881+794.229+351.957C784.864+344.524+775.561+343.334+775.561+343.334C775.561+343.334+770.353+333.024+763.346+326.449C748.276+312.309+724.834+291.805+724.834+291.805C719.177+286.918+707.976+279.947+701.376+285.821L701.006+285.901C677.4+323.12+684.06+373.481+718.132+402.96Z" fill-opacity="0.72556" opacity="1"/>
<path fill="#d4682f" d="M629.75+547.536L760.729+547.536C798.47+547.536+829.064+578.632+829.064+616.991L829.064+678.695C829.064+717.054+798.47+748.15+760.729+748.15L629.75+748.15C592.01+748.15+561.415+717.054+561.415+678.695L561.415+616.991C561.415+578.632+592.01+547.536+629.75+547.536Z" opacity="1"/>
<path fill="#ffe1d1" d="M722.121+976.671L722.121+976.671C722.377+976.671+722.584+976.879+722.584+977.134L722.584+979.913C722.584+980.169+722.377+980.376+722.121+980.376L722.121+980.376C721.865+980.376+721.658+980.169+721.658+979.913L721.658+977.134C721.658+976.879+721.865+976.671+722.121+976.671Z" opacity="1" fill-opacity="0.691662"/>
<path d="M743.442+607.277L779.312+614.914C784.739+616.069+787.871+621.885+786.306+627.904L782.002+644.468C780.438+650.487+774.77+654.429+769.343+653.274L733.473+645.637C728.046+644.482+724.914+638.666+726.479+632.647L730.783+616.083C732.347+610.064+738.015+606.121+743.442+607.277Z" opacity="1" fill="url(#LinearGradient)"/>
<path d="M620.491+682.657L640.406+665.9C643.96+662.909+650.96+664.306+656.041+669.02L673.43+685.155C678.511+689.869+679.748+696.115+676.194+699.106L656.279+715.863C652.724+718.854+645.724+717.457+640.644+712.743L623.254+696.608C618.174+691.894+616.936+685.648+620.491+682.657Z" opacity="1" fill="url(#LinearGradient_2)"/>
<path opacity="1" d="M743.416+688.27L759.47+681.146C762.618+679.749+766.382+682.706+767.879+687.75L772.247+702.475C773.744+707.519+772.405+712.741+769.257+714.137L753.203+721.262C750.055+722.659+746.29+719.702+744.794+714.658L740.425+699.933C738.929+694.889+740.268+689.667+743.416+688.27Z" fill="url(#LinearGradient_3)"/>
<path fill="url(#LinearGradient_4)" d="M670.272+598.997L691.283+619.169C694.924+622.665+692.684+627.109+686.28+629.097L671.878+633.566C665.474+635.553+657.33+634.33+653.689+630.834L632.678+610.663C629.037+607.167+631.278+602.722+637.682+600.735L652.083+596.266C658.488+594.279+666.631+595.502+670.272+598.997Z" opacity="1"/>
<path fill="#009207" opacity="1" d="M636.761+626.894L643.845+629.069C649.958+630.945+653.392+637.422+651.516+643.535L651.516+643.535C649.639+649.648+643.162+653.082+637.049+651.206L629.966+649.031C623.853+647.155+620.418+640.678+622.295+634.565L622.295+634.565C624.171+628.452+630.648+625.018+636.761+626.894Z" fill-opacity="0.644364"/>
<path opacity="1" fill-opacity="0.644364" d="M753.037+586.277L759.56+582.762C765.189+579.728+772.211+581.832+775.245+587.461L775.245+587.461C778.279+593.09+776.175+600.113+770.546+603.146L764.023+606.662C758.394+609.696+751.371+607.592+748.338+601.963L748.338+601.963C745.304+596.334+747.408+589.311+753.037+586.277Z" fill="#009207"/>
<path d="M709.591+690.712L716.815+688.623C723.049+686.82+730.826+688.071+734.186+691.416L734.186+691.416C737.546+694.761+735.216+698.934+728.982+700.737L721.758+702.826C715.524+704.629+707.747+703.379+704.387+700.034L704.387+700.034C701.027+696.689+703.357+692.515+709.591+690.712Z" opacity="1" fill="#009207" fill-opacity="0.644364"/>
<path fill="#fffbec" d="M270.281+561.25C261.678+561.25+254.281+566.44+251.031+573.844C247.177+569.326+241.528+566.406+235.125+566.406C223.52+566.406+214.094+575.801+214.094+587.406L214.094+590C214.094+592.199+214.53+594.258+215.156+596.25C211.052+598.716+208.344+602.888+208.344+607.625L208.344+609.312C208.344+609.473+208.4+609.623+208.406+609.781C208.143+609.769+207.891+609.719+207.625+609.719C199.103+609.719+192.219+615.859+192.219+623.438L192.219+625.094C192.219+630.55+195.814+635.226+201+637.438C200.944+638.269+200.812+639.095+200.812+639.938L200.812+641.656C196.12+644.01+192.938+648.43+192.938+653.562L192.938+655.25C192.938+658.038+193.862+660.647+195.469+662.812C194.108+665.595+193.281+668.694+193.281+672L193.281+674.562C193.281+678.914+194.609+682.959+196.875+686.312C195.473+688.379+194.625+690.786+194.625+693.375L194.625+695.062C194.625+699.336+196.869+703.108+200.312+705.625C200.232+706.371+200.094+707.107+200.094+707.875L200.094+710.438C200.094+722.042+209.52+731.469+221.125+731.469C222.039+731.469+222.898+731.301+223.781+731.188C225.551+733.056+227.852+734.462+230.5+735.281C233.001+739.859+238.236+743.062+244.344+743.062C251.062+743.062+256.725+739.204+258.844+733.875C260.036+733.517+261.177+733.061+262.219+732.469C262.214+732.607+262.188+732.736+262.188+732.875L262.188+734.562C262.187+742.141+269.103+748.281+277.625+748.281C284.582+748.281+290.387+744.158+292.312+738.531C292.808+738.511+293.295+738.461+293.781+738.406C296.611+741.312+300.745+743.188+305.406+743.188C310.724+743.187+315.444+740.796+318.219+737.156C318.272+737.157+318.322+737.156+318.375+737.156C322.763+737.156+326.69+735.521+329.5+732.906C330.107+732.771+330.713+732.649+331.312+732.5C334.095+734.923+337.891+736.438+342.094+736.438C342.158+736.437+342.217+736.407+342.281+736.406C345.388+738.22+348.956+739.344+352.812+739.344C358.368+739.344+363.399+737.146+367.156+733.625C367.072+734.207+366.969+734.773+366.969+735.375L366.969+737.062C366.969+744.641+373.884+750.781+382.406+750.781C389.499+750.781+395.414+746.515+397.219+740.719C405.52+740.495+412.188+734.468+412.188+727.031L412.188+725.344C412.187+723.362+411.694+721.483+410.844+719.781C414.687+717.285+417.219+713.275+417.219+708.719L417.219+707.031C417.219+703.447+415.625+700.226+413.094+697.781C413.219+697.507+413.381+697.246+413.5+696.969C418.791+693.153+422.281+686.959+422.281+679.938L422.281+677.375C422.281+674.209+421.535+671.224+420.281+668.531C427.967+665.407+433.406+657.902+433.406+649.094L433.406+646.5C433.406+641.242+431.41+636.498+428.219+632.812C430.278+630.48+431.562+627.57+431.562+624.375L431.562+622.719C431.562+618.011+428.874+613.878+424.812+611.406C424.975+610.608+425.094+609.809+425.094+608.969L425.094+607.281C425.094+604.22+423.937+601.408+422.031+599.125C422.501+597.812+422.844+596.452+422.844+595L422.844+593.312C422.844+585.734+415.928+579.594+407.406+579.594C404.577+579.594+401.967+580.318+399.688+581.5C396.307+578.883+392.163+577.275+387.594+577.125C384.994+572.829+379.961+569.886+374.094+569.875C371.629+565.212+366.334+561.969+360.156+561.969C352.421+561.969+346.054+567.054+344.938+573.656C343.949+573.549+342.972+573.416+341.969+573.344C339.249+571.208+335.726+569.875+331.812+569.875C327.07+569.875+322.862+571.787+320.031+574.781C319.828+574.821+319.64+574.896+319.438+574.938C315.596+570.75+310.13+568.063+304+568.062C298.374+568.062+293.303+570.306+289.531+573.906C286.296+566.468+278.91+561.25+270.281+561.25Z" opacity="1"/>
<path d="M1218.41+833.992L1225.27+833.992C1226.69+833.992+1227.85+835.144+1227.85+836.565L1227.85+836.565C1227.85+837.986+1226.69+839.138+1225.27+839.138L1218.41+839.138C1216.99+839.138+1215.84+837.986+1215.84+836.565L1215.84+836.565C1215.84+835.144+1216.99+833.992+1218.41+833.992Z" fill="#fffcf0" opacity="1"/>
<path d="M261.788+647.764L262.708+647.952C264.23+648.264+265.277+649.433+265.046+650.562L265.046+650.562C264.814+651.691+263.392+652.354+261.869+652.041L260.95+651.853C259.427+651.541+258.38+650.372+258.612+649.243L258.612+649.243C258.843+648.114+260.266+647.451+261.788+647.764Z" opacity="1" fill="#ffe748"/>
<path d="M303.571+662.301L304.345+662.831C305.627+663.71+306.138+665.193+305.487+666.144L305.487+666.144C304.835+667.095+303.267+667.154+301.985+666.275L301.211+665.744C299.929+664.866+299.417+663.383+300.069+662.432L300.069+662.432C300.721+661.481+302.288+661.422+303.571+662.301Z" opacity="1" fill="#ffe748"/>
<path fill="#ffe748" opacity="1" d="M354.293+649.399L354.553+650.301C354.983+651.794+354.434+653.264+353.327+653.583L353.327+653.583C352.219+653.902+350.972+652.95+350.542+651.457L350.282+650.555C349.851+649.062+350.4+647.592+351.508+647.273L351.508+647.273C352.615+646.953+353.862+647.905+354.293+649.399Z"/>
<path d="M279.116+621.327L278.654+622.094C277.888+623.363+276.661+624.026+275.912+623.575L275.912+623.575C275.163+623.123+275.177+621.728+275.943+620.459L276.405+619.693C277.17+618.423+278.398+617.76+279.146+618.211L279.146+618.211C279.895+618.663+279.881+620.058+279.116+621.327Z" opacity="1" fill="#ffe748"/>
<path opacity="1" fill="#ffe748" d="M309.177+620.087L308.881+620.931C308.39+622.33+307.323+623.229+306.498+622.939L306.498+622.939C305.673+622.649+305.403+621.281+305.894+619.882L306.19+619.038C306.682+617.639+307.749+616.74+308.574+617.03L308.574+617.03C309.398+617.32+309.669+618.689+309.177+620.087Z"/>
<path fill="#ffe748" opacity="1" d="M342.407+669.226L342.949+669.937C343.848+671.116+344.013+672.501+343.318+673.032L343.318+673.032C342.623+673.562+341.331+673.036+340.432+671.857L339.889+671.146C338.99+669.967+338.825+668.582+339.52+668.051L339.52+668.051C340.215+667.521+341.508+668.047+342.407+669.226Z"/>
<path d="M330.292+636.357L329.407+636.222C327.942+635.999+326.86+635.118+326.992+634.254L326.992+634.254C327.123+633.389+328.418+632.869+329.884+633.093L330.768+633.227C332.234+633.45+333.315+634.332+333.184+635.196L333.184+635.196C333.052+636.06+331.757+636.58+330.292+636.357Z" fill="#ffe748" opacity="1"/>
<path opacity="1" fill="#ffe748" d="M327.465+693.479L327.073+694.283C326.424+695.616+325.26+696.386+324.474+696.003L324.474+696.003C323.688+695.62+323.577+694.229+324.227+692.896L324.619+692.092C325.268+690.759+326.432+689.99+327.218+690.372L327.218+690.372C328.003+690.755+328.114+692.146+327.465+693.479Z"/>
<path fill="#ffe748" d="M320.463+656.199L319.667+656.607C318.347+657.282+316.954+657.199+316.556+656.421L316.556+656.421C316.158+655.643+316.904+654.464+318.224+653.788L319.02+653.381C320.34+652.705+321.733+652.788+322.131+653.566L322.131+653.566C322.529+654.345+321.783+655.523+320.463+656.199Z" opacity="1"/>
<path d="M289.385+686.336L289.622+685.474C290.015+684.044+291.017+683.073+291.86+683.305L291.86+683.305C292.703+683.537+293.068+684.883+292.675+686.313L292.438+687.176C292.045+688.605+291.043+689.576+290.2+689.344L290.2+689.344C289.357+689.112+288.992+687.766+289.385+686.336Z" opacity="1" fill="#ffe748"/>
<path opacity="1" fill="#ffe748" d="M296.376+652.427L295.482+652.47C294.001+652.542+292.766+651.892+292.724+651.019L292.724+651.019C292.682+650.146+293.848+649.38+295.329+649.308L296.222+649.265C297.703+649.193+298.938+649.843+298.98+650.716L298.98+650.716C299.022+651.589+297.856+652.355+296.376+652.427Z"/>
<path opacity="1" d="M880.708+954.023L882.368+954.023C883.59+954.023+884.581+955.014+884.581+956.236L884.581+956.236C884.581+957.458+883.59+958.449+882.368+958.449L880.708+958.449C879.486+958.449+878.495+957.458+878.495+956.236L878.495+956.236C878.495+955.014+879.486+954.023+880.708+954.023Z" fill="#ffe748"/>
<path d="M252.301+638.295L252.301+638.295C252.469+638.295+252.605+638.334+252.605+638.382L252.605+638.382C252.605+638.43+252.469+638.469+252.301+638.469L252.301+638.469C252.134+638.469+251.998+638.43+251.998+638.382L251.998+638.382C251.998+638.334+252.134+638.295+252.301+638.295Z" fill="#ffe748" opacity="1"/>
</g>
</svg>
