<svg  xmlns="http://www.w3.org/2000/svg" viewBox="0 0 1024 1024" width="1em" version="1.1" height="1em">
<g>
<path d="M852.688 143.817L806.6 143.817L806.6 290.205L852.688 290.205C859.048 290.205 864.209 283.647 864.209 275.566L864.209 158.455C864.209 150.375 859.048 143.817 852.688 143.817L852.688 143.817Z" fill="#f17a7a" opacity="1"/>
<path d="M854.84 290.205L808.752 290.205L808.752 436.594L854.84 436.594C861.2 436.594 866.361 430.036 866.361 421.955L866.361 304.844C866.361 296.764 861.2 290.205 854.84 290.205L854.84 290.205Z" fill="#f9b37b" opacity="1"/>
<path d="M853.227 436.594L807.14 436.594L807.14 582.983L853.227 582.983C859.587 582.983 864.749 576.425 864.749 568.344L864.749 451.233C864.749 443.152 859.587 436.594 853.227 436.594L853.227 436.594Z" fill="#fff283" opacity="1"/>
<path d="M853.227 582.983L807.14 582.983L807.14 729.372L853.227 729.372C859.587 729.372 864.749 722.813 864.749 714.733L864.749 597.622C864.749 589.541 859.587 582.983 853.227 582.983L853.227 582.983Z" fill="#8af291" opacity="1"/>
<path d="M247.857 912L247.857 112L795.082 112C800.42 112 808.752 121.12 808.752 127.429L808.752 896.571C808.752 902.88 800.42 912 795.082 912L247.857 912Z" fill="#60baff" opacity="1"/>
<path d="M180.526 912C174.901 912 166.336 902.88 166.336 896.571L166.336 127.429C166.336 121.12 174.901 112 180.526 112L247.857 112L247.857 912L180.526 912Z" fill="#046bc6" opacity="1"/>
<path d="M399.183 226.131L654.099 226.131C683.46 226.131 707.262 249.975 707.262 279.388L707.262 539.701C707.262 569.115 683.46 592.959 654.099 592.959L399.183 592.959C369.822 592.959 346.02 569.115 346.02 539.701L346.02 279.388C346.02 249.975 369.822 226.131 399.183 226.131Z" fill="#848484" fill-opacity="0.637387" opacity="1"/>
<path d="M381.04 464.466C381.04 435.872 408.114 418.375 428.632 416.499L464.761 414.2C475.474 413.518 492.859 412.948 503.593 412.928L552.284 412.833C563.018 412.812 580.399 413.41 591.107 414.169L623.988 416.499C649.702 418.375 671.58 435.872 671.58 464.466L677.335 571.653C677.911 582.372 669.676 591.061 658.941 591.061L393.678 591.061C382.944 591.061 374.709 582.372 375.285 571.653L381.04 464.466Z" fill="#fff283" opacity="1"/>
<path d="M525.22 266.646L528.389 266.646C569.726 266.646 603.237 301.066 603.237 343.526L603.237 343.526C603.237 385.985 569.726 420.405 528.389 420.405L525.22 420.405C483.883 420.405 450.372 385.985 450.372 343.526L450.372 343.526C450.372 301.066 483.883 266.646 525.22 266.646Z" fill="#ffdfab" opacity="1"/>
<path d="M525.483 368.309L527.141 368.309C548.775 368.309 566.312 388.292 566.312 412.942L566.312 412.942C566.312 437.592 548.775 457.574 527.141 457.574L525.483 457.574C503.849 457.574 486.312 437.592 486.312 412.942L486.312 412.942C486.312 388.292 503.849 368.309 525.483 368.309Z" fill="#ffdfab" opacity="1"/>
<g opacity="1">
<path d="M500.732 328.848L500.732 328.848C503.784 328.848 506.258 331.568 506.258 334.924L506.258 335.374C506.258 338.729 503.784 341.449 500.732 341.449L500.732 341.449C497.68 341.449 495.206 338.729 495.206 335.374L495.206 334.924C495.206 331.568 497.68 328.848 500.732 328.848Z" fill="#484848" opacity="1" stroke="#484848" stroke-linecap="round" stroke-linejoin="round" stroke-width="2"/>
<path d="M552.244 328.223L552.244 328.223C555.296 328.223 557.77 330.943 557.77 334.299L557.77 334.749C557.77 338.104 555.296 340.825 552.244 340.825L552.244 340.825C549.192 340.825 546.718 338.104 546.718 334.749L546.718 334.299C546.718 330.943 549.192 328.223 552.244 328.223Z" fill="#484848" opacity="1" stroke="#484848" stroke-linecap="round" stroke-linejoin="round" stroke-width="2"/>
<path d="M497.035 362.949C513.051 377.905 540.709 378.665 556.433 362.633" fill="none" opacity="1" stroke="#484848" stroke-linecap="round" stroke-linejoin="round" stroke-width="9.03619"/>
</g>
<path d="M577.463 458.844L629.375 458.844C632.197 458.844 634.485 460.89 634.485 463.415L634.485 492.135C634.485 494.66 632.197 496.706 629.375 496.706L577.463 496.706C574.641 496.706 572.352 494.66 572.352 492.135L572.352 463.415C572.352 460.89 574.641 458.844 577.463 458.844Z" fill="#f1f4e4" opacity="1"/>
<path d="M579.407 468.72L588.433 468.836L587.183 475.229" fill="none" opacity="1" stroke="#4c4c4c" stroke-linecap="butt" stroke-linejoin="miter" stroke-width="2"/>
<path d="M593.438 466.269L592.762 476.496" fill="none" opacity="1" stroke="#4c4c4c" stroke-linecap="butt" stroke-linejoin="miter" stroke-width="2"/>
<path d="M584.225 479.793L584.056 486.893L593.269 486.893L592.593 480.046L584.225 479.793Z" fill="none" opacity="1" stroke="#4c4c4c" stroke-linecap="butt" stroke-linejoin="miter" stroke-width="2"/>
<path d="M604.325 467.99L604.325 467.99C607.793 467.99 610.605 471.9 610.605 476.724L610.605 477.095C610.605 481.919 607.793 485.829 604.325 485.829L604.325 485.829C600.856 485.829 598.044 481.919 598.044 477.095L598.044 476.724C598.044 471.9 600.856 467.99 604.325 467.99Z" fill="none" opacity="1" stroke="#4c4c4c" stroke-linecap="round" stroke-linejoin="round" stroke-width="2"/>
<path d="M620.521 468.097L620.521 468.097C623.99 468.097 626.802 472.007 626.802 476.831L626.802 477.202C626.802 482.026 623.99 485.936 620.521 485.936L620.521 485.936C617.052 485.936 614.24 482.026 614.24 477.202L614.24 476.831C614.24 472.007 617.052 468.097 620.521 468.097Z" fill="none" opacity="1" stroke="#4c4c4c" stroke-linecap="round" stroke-linejoin="round" stroke-width="2"/>
</g>
</svg>
