<svg width="1em" version="1.1" viewBox="0 0 1024 1024" xmlns="http://www.w3.org/2000/svg" height="1em">
<g >
<path d="M768.066 206.905C746.64 203.701 731.825 183.628 735.036 162.153C738.248 140.678 758.288 125.816 779.714 129.021C801.14 132.225 815.955 152.298 812.744 173.773C809.532 195.248 789.492 210.11 768.066 206.905Z" fill="#b7c7d4" opacity="1"/>
<path d="M787.352 216.84L716.709 206.275C695.283 203.071 675.244 217.932 672.032 239.407L658.796 327.913C657.627 335.729 663.015 343.021 670.807 344.186C678.599 345.352 685.885 339.955 687.054 332.138L697.143 264.669C697.43 262.75 699.291 261.371 701.205 261.657C703.119 261.943 704.495 263.807 704.208 265.725L680.035 427.365C678.379 438.438 683.075 447.364 694.131 449.017C704.6 450.583 713.727 443.544 715.357 432.647L728.955 341.72C729.247 339.766 731.066 338.416 733.016 338.708C734.966 338.999 736.311 340.822 736.019 342.776L722.112 435.771C722.134 435.817 722.186 435.854 722.208 435.901C721.711 445.838 728.167 454.107 737.929 455.567C748.978 457.219 756.087 450.059 757.743 438.985L781.731 278.578C782.018 276.659 783.878 275.28 785.792 275.566C787.707 275.852 789.082 277.716 788.795 279.635L778.89 345.872C777.721 353.689 783.109 360.981 790.9 362.146C798.692 363.311 805.978 357.915 807.147 350.098L820.382 261.592C823.594 240.117 808.778 220.044 787.352 216.84Z" fill="#b7c7d4" opacity="1"/>
<path d="M681.613 264.212C653.308 258.449 634.984 230.686 640.76 202.316C646.537 173.946 674.258 155.559 702.563 161.322C730.868 167.085 749.192 194.848 743.416 223.218C737.64 251.588 709.918 269.975 681.613 264.212Z" fill="#90a7bc" opacity="1"/>
<path d="M721.37 282.066L628.047 263.065C599.742 257.302 572.021 275.689 566.245 304.059L542.438 420.979C540.336 431.306 547 441.391 557.294 443.487C567.587 445.583 577.665 438.906 579.767 428.58L597.916 339.449C598.432 336.914 601.005 335.207 603.534 335.722C606.063 336.237 607.764 338.815 607.248 341.349L563.77 554.884C560.791 569.513 566.42 581.725 581.025 584.699C594.856 587.515 607.5 578.78 610.431 564.384L634.889 444.265C635.415 441.683 637.932 440.014 640.508 440.538C643.083 441.063 644.747 443.584 644.221 446.165L619.208 569.016C619.233 569.08 619.3 569.132 619.326 569.196C617.971 582.392 625.988 593.854 638.886 596.48C653.481 599.452 663.447 590.415 666.425 575.786L709.572 363.879C710.088 361.344 712.661 359.637 715.19 360.152C717.72 360.667 719.421 363.244 718.904 365.779L701.088 453.282C698.985 463.609 705.65 473.694 715.943 475.79C726.237 477.886 736.314 471.209 738.417 460.883L762.223 343.962C768 315.593 749.675 287.83 721.37 282.066Z" fill="#90a7bc" opacity="1"/>
<path d="M575.44 326.261C541.04 322.004 516.529 290.497 520.795 256.018C525.061 221.539 556.511 196.956 590.912 201.213C625.312 205.469 649.823 236.976 645.557 271.455C641.291 305.934 609.841 330.517 575.44 326.261Z" fill="#5b7a96" opacity="1"/>
<path d="M624.744 343.645L511.323 329.612C476.923 325.356 445.472 349.938 441.206 384.417L423.624 526.517C422.071 539.068 430.985 550.512 443.495 552.06C456.005 553.608 467.44 544.681 468.992 532.131L482.395 423.805C482.776 420.724 485.696 418.442 488.77 418.823C491.843 419.203 494.118 422.128 493.737 425.208L461.628 684.728C459.428 702.508 467.301 716.594 485.051 718.79C501.86 720.87 516.173 709.24 518.338 691.745L536.401 545.757C536.789 542.62 539.645 540.388 542.775 540.775C545.905 541.162 548.131 544.023 547.743 547.161L529.269 696.468C529.306 696.542 529.391 696.598 529.428 696.672C529.037 712.586 539.697 725.551 555.372 727.491C573.111 729.685 584.191 717.944 586.39 700.165L618.256 442.623C618.637 439.542 621.556 437.26 624.63 437.641C627.704 438.021 629.979 440.946 629.598 444.026L616.439 550.374C614.887 562.924 623.8 574.369 636.311 575.917C648.821 577.464 660.255 568.538 661.808 555.987L679.389 413.887C683.656 379.408 659.145 347.901 624.744 343.645Z" fill="#5b7a96" opacity="1"/>
<path d="M432.726 381.292C387.953 381.292 351.536 344.791 351.536 299.916C351.536 255.041 387.953 218.54 432.726 218.54C477.499 218.54 513.917 255.041 513.917 299.916C513.917 344.791 477.499 381.292 432.726 381.292Z" fill="#3ba3ff" opacity="1"/>
<path d="M506.536 396.088L358.917 396.088C351.536 393.824 351.536 517.412 351.536 521.422L351.536 714.302L351.536 859.191C351.536 882.331 363.862 899.139 386.964 899.139C408.842 899.139 425.345 881.961 425.345 859.191L425.345 669.185C425.345 665.102 428.652 661.788 432.726 661.788C436.801 661.788 440.107 665.102 440.107 669.185L440.107 863.511C440.166 863.6 440.284 863.659 440.343 863.748C442.366 884.21 458.087 899.139 478.488 899.139C501.576 899.139 513.917 882.331 513.917 859.191L513.917 523.996C513.917 519.986 517.297 516.598 521.298 516.598C525.298 516.598 528.679 519.986 528.679 523.996L528.679 662.409C528.679 678.743 541.92 692 558.203 692C574.485 692 587.726 678.743 587.726 662.409L587.726 477.464C587.726 432.589 551.309 396.088 506.536 396.088Z" fill="#3ba3ff" opacity="1"/>
<path d="M443.959 428.688C441.826 428.688 439.713 429.079 437.689 429.839L406.867 445.2C399.579 447.95 394.661 455.675 394.661 464.372C394.661 475.54 402.651 484.584 412.516 484.584L424.288 484.584L424.288 607.557C424.288 619.855 433.175 629.916 444.038 629.916C454.901 629.916 463.789 619.855 463.789 607.557L463.789 484.584L463.789 473.405L463.789 451.136C463.789 438.738 454.911 428.688 443.959 428.688Z" fill="#ffbc00" opacity="1"/>
<path d="M337.171 512L197.358 283.459C187.922 267.424 196.369 248.703 216.173 241.686C235.977 234.669 259.741 241.976 269.177 258.011L369.948 400.493C369.948 400.493 388.371 546.966 337.171 512Z" fill="#3ba3ff" opacity="1"/>
</g>
</svg>
