<svg width="1em" version="1.1" viewBox="0 0 1024 1024" xmlns="http://www.w3.org/2000/svg" height="1em">
<g >
<path d="M728.656 203.612C706.992 203.612 689.371 185.95 689.371 164.236C689.371 142.523 706.992 124.861 728.656 124.861C750.321 124.861 767.942 142.523 767.942 164.236C767.942 185.95 750.321 203.612 728.656 203.612ZM764.371 210.771L692.942 210.771C671.278 210.771 653.656 228.433 653.656 250.147L653.656 339.636C653.656 347.54 660.063 353.954 667.942 353.954C675.821 353.954 682.228 347.54 682.228 339.636L682.228 271.416C682.228 269.476 683.863 267.837 685.799 267.837C687.735 267.837 689.371 269.476 689.371 271.416L689.371 434.853C689.371 446.05 695.335 454.183 706.513 454.183C717.099 454.183 725.085 445.871 725.085 434.853L725.085 342.915C725.085 340.939 726.685 339.335 728.656 339.335C730.628 339.335 732.228 340.939 732.228 342.915L732.228 436.944C732.256 436.987 732.313 437.015 732.342 437.058C733.321 446.959 740.928 454.183 750.799 454.183C761.971 454.183 767.942 446.05 767.942 434.853L767.942 272.662C767.942 270.722 769.578 269.083 771.513 269.083C773.449 269.083 775.085 270.722 775.085 272.662L775.085 339.636C775.085 347.54 781.492 353.954 789.371 353.954C797.249 353.954 803.656 347.54 803.656 339.636L803.656 250.147C803.656 228.433 786.035 210.771 764.371 210.771Z" fill="#b7c7d4" opacity="1"/>
<path d="M653.656 260.862C624.771 260.862 601.275 237.313 601.275 208.362C601.275 179.41 624.771 155.861 653.656 155.861C682.542 155.861 706.037 179.41 706.037 208.362C706.037 237.313 682.542 260.862 653.656 260.862ZM701.275 270.408L606.037 270.408C577.152 270.408 553.656 293.957 553.656 322.908L553.656 442.228C553.656 452.766 562.199 461.319 572.704 461.319C583.209 461.319 591.752 452.766 591.752 442.228L591.752 351.268C591.752 348.681 593.933 346.495 596.513 346.495C599.094 346.495 601.275 348.681 601.275 351.268L601.275 569.184C601.275 584.113 609.228 594.957 624.133 594.957C638.247 594.957 648.894 583.874 648.894 569.184L648.894 446.6C648.894 443.965 651.028 441.827 653.656 441.827C656.285 441.827 658.418 443.965 658.418 446.6L658.418 571.971C658.456 572.028 658.533 572.067 658.571 572.124C659.875 585.325 670.018 594.957 683.18 594.957C698.075 594.957 706.037 584.113 706.037 569.184L706.037 352.929C706.037 350.342 708.218 348.156 710.799 348.156C713.38 348.156 715.561 350.342 715.561 352.929L715.561 442.228C715.561 452.766 724.104 461.319 734.609 461.319C745.113 461.319 753.656 452.766 753.656 442.228L753.656 322.908C753.656 293.957 730.161 270.408 701.275 270.408Z" fill="#90a7bc" opacity="1"/>
<path d="M554.562 324.22C519.899 324.22 491.705 295.962 491.705 261.22C491.705 226.478 519.899 198.219 554.562 198.219C589.225 198.219 617.419 226.478 617.419 261.22C617.419 295.962 589.225 324.22 554.562 324.22ZM611.705 335.675L497.419 335.675C462.756 335.675 434.562 363.934 434.562 398.676L434.562 541.859C434.562 554.505 444.813 564.768 457.419 564.768C470.025 564.768 480.276 554.505 480.276 541.859L480.276 432.708C480.276 429.603 482.893 426.98 485.99 426.98C489.087 426.98 491.705 429.603 491.705 432.708L491.705 694.206C491.705 712.121 501.247 725.134 519.133 725.134C536.07 725.134 548.847 711.835 548.847 694.206L548.847 547.105C548.847 543.944 551.407 541.378 554.562 541.378C557.716 541.378 560.276 543.944 560.276 547.105L560.276 697.551C560.322 697.62 560.413 697.666 560.459 697.734C562.025 713.576 574.196 725.134 589.99 725.134C607.865 725.134 617.419 712.121 617.419 694.206L617.419 434.701C617.419 431.596 620.036 428.973 623.133 428.973C626.23 428.973 628.847 431.596 628.847 434.701L628.847 541.859C628.847 554.505 639.099 564.768 651.705 564.768C664.31 564.768 674.562 554.505 674.562 541.859L674.562 398.676C674.562 363.934 646.367 335.675 611.705 335.675Z" fill="#5b7a96" opacity="1"/>
<path d="M432.726 381.292C387.953 381.292 351.536 344.791 351.536 299.916C351.536 255.041 387.953 218.54 432.726 218.54C477.499 218.54 513.917 255.041 513.917 299.916C513.917 344.791 477.499 381.292 432.726 381.292ZM506.536 396.088L358.917 396.088C314.144 396.088 277.726 432.589 277.726 477.464L277.726 662.409C277.726 678.743 290.968 692 307.25 692C323.533 692 336.774 678.743 336.774 662.409L336.774 521.422C336.774 517.412 340.154 514.024 344.155 514.024C348.155 514.024 351.536 517.412 351.536 521.422L351.536 859.191C351.536 882.331 363.862 899.139 386.964 899.139C408.842 899.139 425.345 881.961 425.345 859.191L425.345 669.185C425.345 665.102 428.652 661.788 432.726 661.788C436.801 661.788 440.107 665.102 440.107 669.185L440.107 863.511C440.166 863.6 440.284 863.659 440.343 863.748C442.366 884.21 458.087 899.139 478.488 899.139C501.576 899.139 513.917 882.331 513.917 859.191L513.917 523.996C513.917 519.986 517.297 516.598 521.298 516.598C525.298 516.598 528.679 519.986 528.679 523.996L528.679 662.409C528.679 678.743 541.92 692 558.203 692C574.485 692 587.726 678.743 587.726 662.409L587.726 477.464C587.726 432.589 551.309 396.088 506.536 396.088Z" fill="#3ba3ff" opacity="1"/>
<path d="M433.045 445.074C431.483 445.074 429.936 445.372 428.454 445.952L405.891 457.674C400.555 459.773 396.955 465.668 396.955 472.305C396.955 480.828 402.804 487.73 410.026 487.73L418.643 487.73L418.643 581.574C418.643 590.959 425.15 598.637 433.103 598.637C441.055 598.637 447.562 590.959 447.562 581.574L447.562 487.73L447.562 479.199L447.562 462.204C447.562 452.743 441.062 445.074 433.045 445.074Z" fill="#ffbc00" opacity="1"/>
</g>
</svg>
