<svg height="1em" version="1.1" 
viewBox="0 0 396 396" 
width="1em" 
xmlns="http://www.w3.org/2000/svg">
<g>
<g opacity="1">
<path d="M48 90L48 132L90 132L132 132L132 90L132 48L90 48L48 48L48 90ZM120 90L120 120L90 120L60 120L60 90L60 60L90 60L120 60L120 90Z" fill="#000000" fill-rule="nonzero" opacity="1" stroke="none"/>
<path d="M72 90L72 108L90 108L108 108L108 90L108 72L90 72L72 72L72 90Z" fill="#000000" fill-rule="nonzero" opacity="1" stroke="none"/>
<path d="M180 54L180 60L168 60L156 60L156 66L156 72L168 72L180 72L180 66L180 60L198 60L216 60L216 72L216 84L210 84L204 84L204 78L204 72L198 72L192 72L192 84L192 96L204 96L216 96L216 102L216 108L198 108L180 108L180 114L180 120L174 120L168 120L168 132L168 144L162 144L156 144L156 150L156 156L150 156L144 156L144 150L144 144L126 144L108 144L108 150L108 156L102 156L96 156L96 162L96 168L90 168L84 168L84 162L84 156L78 156L72 156L72 150L72 144L60 144L48 144L48 150L48 156L54 156L60 156L60 168L60 180L54 180L48 180L48 186L48 192L60 192L72 192L72 186L72 180L78 180L84 180L84 186L84 192L90 192L96 192L96 198L96 204L102 204L108 204L108 222L108 240L90 240L72 240L72 246L72 252L90 252L108 252L108 246L108 240L114 240L120 240L120 246L120 252L126 252L132 252L132 246L132 240L138 240L144 240L144 234L144 228L138 228L132 228L132 222L132 216L126 216L120 216L120 210L120 204L126 204L132 204L132 198L132 192L138 192L144 192L144 204L144 216L150 216L156 216L156 222L156 228L168 228L180 228L180 222L180 216L192 216L204 216L204 204L204 192L198 192L192 192L192 186L192 180L186 180L180 180L180 174L180 168L174 168L168 168L168 156L168 144L174 144L180 144L180 150L180 156L186 156L192 156L192 162L192 168L198 168L204 168L204 174L204 180L210 180L216 180L216 186L216 192L222 192L228 192L228 210L228 228L240 228L252 228L252 234L252 240L204 240L156 240L156 246L156 252L150 252L144 252L144 270L144 288L150 288L156 288L156 276L156 264L162 264L168 264L168 258L168 252L174 252L180 252L180 264L180 276L174 276L168 276L168 288L168 300L162 300L156 300L156 306L156 312L162 312L168 312L168 318L168 324L156 324L144 324L144 336L144 348L174 348L204 348L204 336L204 324L216 324L228 324L228 330L228 336L234 336L240 336L240 342L240 348L252 348L264 348L264 336L264 324L246 324L228 324L228 312L228 300L234 300L240 300L240 306L240 312L246 312L252 312L252 306L252 300L258 300L264 300L264 306L264 312L270 312L276 312L276 306L276 300L288 300L300 300L300 270L300 240L306 240L312 240L312 246L312 252L318 252L324 252L324 240L324 228L330 228L336 228L336 234L336 240L342 240L348 240L348 228L348 216L342 216L336 216L336 210L336 204L342 204L348 204L348 186L348 168L342 168L336 168L336 162L336 156L324 156L312 156L312 150L312 144L300 144L288 144L288 150L288 156L282 156L276 156L276 162L276 168L270 168L264 168L264 162L264 156L258 156L252 156L252 162L252 168L246 168L240 168L240 150L240 132L246 132L252 132L252 108L252 84L246 84L240 84L240 78L240 72L234 72L228 72L228 60L228 48L204 48L180 48L180 54ZM228 90L228 96L234 96L240 96L240 114L240 132L234 132L228 132L228 138L228 144L210 144L192 144L192 138L192 132L186 132L180 132L180 126L180 120L186 120L192 120L192 126L192 132L198 132L204 132L204 126L204 120L210 120L216 120L216 114L216 108L222 108L228 108L228 102L228 96L222 96L216 96L216 90L216 84L222 84L228 84L228 90ZM144 168L144 180L138 180L132 180L132 186L132 192L126 192L120 192L120 186L120 180L108 180L96 180L96 174L96 168L108 168L120 168L120 162L120 156L132 156L144 156L144 168ZM216 162L216 168L222 168L228 168L228 174L228 180L240 180L252 180L252 186L252 192L258 192L264 192L264 186L264 180L270 180L276 180L276 186L276 192L282 192L288 192L288 186L288 180L294 180L300 180L300 186L300 192L306 192L312 192L312 180L312 168L318 168L324 168L324 174L324 180L330 180L336 180L336 192L336 204L330 204L324 204L324 216L324 228L318 228L312 228L312 222L312 216L300 216L288 216L288 210L288 204L282 204L276 204L276 210L276 216L270 216L264 216L264 210L264 204L258 204L252 204L252 198L252 192L240 192L228 192L228 186L228 180L222 180L216 180L216 174L216 168L210 168L204 168L204 162L204 156L210 156L216 156L216 162ZM168 174L168 180L174 180L180 180L180 186L180 192L186 192L192 192L192 198L192 204L186 204L180 204L180 210L180 216L174 216L168 216L168 198L168 180L162 180L156 180L156 174L156 168L162 168L168 168L168 174ZM204 258L204 264L210 264L216 264L216 258L216 252L228 252L240 252L240 264L240 276L234 276L228 276L228 288L228 300L222 300L216 300L216 294L216 288L204 288L192 288L192 270L192 252L198 252L204 252L204 258ZM288 270L288 288L270 288L252 288L252 270L252 252L270 252L288 252L288 270ZM204 312L204 324L192 324L180 324L180 330L180 336L174 336L168 336L168 330L168 324L174 324L180 324L180 318L180 312L186 312L192 312L192 306L192 300L198 300L204 300L204 312Z" fill="#000000" fill-rule="nonzero" opacity="1" stroke="none"/>
<path d="M264 90L264 132L306 132L348 132L348 90L348 48L306 48L264 48L264 90ZM336 90L336 120L306 120L276 120L276 90L276 60L306 60L336 60L336 90Z" fill="#000000" fill-rule="nonzero" opacity="1" stroke="none"/>
<path d="M288 90L288 108L306 108L324 108L324 90L324 72L306 72L288 72L288 90Z" fill="#000000" fill-rule="nonzero" opacity="1" stroke="none"/>
<path d="M144 96L144 108L156 108L168 108L168 102L168 96L162 96L156 96L156 90L156 84L150 84L144 84L144 96Z" fill="#000000" fill-rule="nonzero" opacity="1" stroke="none"/>
<path d="M48 228L48 252L54 252L60 252L60 234L60 216L66 216L72 216L72 222L72 228L78 228L84 228L84 222L84 216L78 216L72 216L72 210L72 204L60 204L48 204L48 228Z" fill="#000000" fill-rule="nonzero" opacity="1" stroke="none"/>
<path d="M48 306L48 348L90 348L132 348L132 306L132 264L90 264L48 264L48 306ZM120 306L120 336L90 336L60 336L60 306L60 276L90 276L120 276L120 306Z" fill="#000000" fill-rule="nonzero" opacity="1" stroke="none"/>
<path d="M72 306L72 324L90 324L108 324L108 306L108 288L90 288L72 288L72 306Z" fill="#000000" fill-rule="nonzero" opacity="1" stroke="none"/>
<path d="M336 270L336 276L330 276L324 276L324 282L324 288L318 288L312 288L312 294L312 300L318 300L324 300L324 306L324 312L312 312L300 312L300 318L300 324L288 324L276 324L276 330L276 336L288 336L300 336L300 342L300 348L306 348L312 348L312 342L312 336L306 336L300 336L300 330L300 324L312 324L324 324L324 318L324 312L330 312L336 312L336 330L336 348L342 348L348 348L348 324L348 300L336 300L324 300L324 294L324 288L330 288L336 288L336 282L336 276L342 276L348 276L348 270L348 264L342 264L336 264L336 270Z" fill="#000000" fill-rule="nonzero" opacity="1" stroke="none"/>
</g>
</g>
</svg>
