<svg height="100%" 
stroke-miterlimit="10" 
style="fill-rule:nonzero;clip-rule:evenodd;stroke-linecap:round;stroke-linejoin:round;" 
version="1.1" 
viewBox="0 0 1024 1024" 
width="100%" 
xmlns="http://www.w3.org/2000/svg" 
>
 <filter color-interpolation-filters="sRGB" filterUnits="userSpaceOnUse" height="63.618" id="Filter" width="117.483" x="241.65" y="727.49">
<feGaussianBlur in="SourceGraphic" result="Blur" stdDeviation="5.91085"/>
</filter>
<filter color-interpolation-filters="sRGB" filterUnits="userSpaceOnUse" height="159.986" id="Filter_2" width="156.062" x="193.138" y="381.408">
<feDropShadow dx="1.71303" dy="1.48554" flood-color="#000000" flood-opacity="0.300251" in="SourceGraphic" result="Shadow" stdDeviation="6.50012"/>
</filter>
<filter color-interpolation-filters="sRGB" filterUnits="userSpaceOnUse" height="75.917" id="Filter_3" width="72.8994" x="237.939" y="424.369">
<feDropShadow dx="0.705251" dy="1.93766" flood-color="#000000" flood-opacity="0.556974" in="SourceGraphic" result="Shadow" stdDeviation="2.91485"/>
</filter>
<filter color-interpolation-filters="sRGB" filterUnits="userSpaceOnUse" height="63.618" id="Filter_4" width="117.483" x="614.625" y="757.18">
<feGaussianBlur in="SourceGraphic" result="Blur" stdDeviation="5.91085"/>
</filter>
<filter color-interpolation-filters="sRGB" filterUnits="userSpaceOnUse" height="550.637" id="Filter_5" width="459.978" x="440.012" y="355.307">
<feGaussianBlur in="SourceGraphic" result="Blur" stdDeviation="2"/>
</filter>
<filter color-interpolation-filters="sRGB" filterUnits="userSpaceOnUse" height="135.137" id="Filter_6" width="424.489" x="485.251" y="314.324">
<feGaussianBlur in="SourceGraphic" result="Blur" stdDeviation="2"/>
</filter>
<filter color-interpolation-filters="sRGB" filterUnits="userSpaceOnUse" height="82.8521" id="Filter_7" width="229.718" x="625.125" y="303.316">
<feDropShadow dx="2.15147" dy="2.15147" flood-color="#000000" flood-opacity="0.505172" in="SourceGraphic" result="Shadow" stdDeviation="1.84896"/>
</filter> 
<g id="레이어-1">
 <path d="M177.873 734.222C160.238 732.595 144.803 743.22 143.44 758.003L141.958 774.075C141.879 774.924 142.029 775.735 142.045 776.573C141.928 777.178 141.619 777.75 141.562 778.364C137.523 822.167 289.573 871.965 481.137 889.631L498.582 891.24C690.146 908.906 848.694 887.752 852.734 843.949C852.789 843.349 852.585 842.746 852.583 842.143C852.756 841.308 853.049 840.525 853.129 839.66L854.611 823.588C855.975 808.806 842.788 795.541 825.153 793.915L177.873 734.222ZM205.673 806.951L784.52 860.333C719.663 874.388 616.347 877.897 500.795 867.24L483.35 865.631C367.798 854.975 266.879 832.632 205.673 806.951Z" fill="#aaafc0" fill-rule="nonzero" opacity="1" stroke="none"/>
<path d="M182.851 323.975L172.761 433.386L153.172 645.797L152.747 650.403L143.079 755.239L142.657 759.814L143.28 759.871C149.87 802.493 297.832 849.505 482.636 866.548L500.093 868.158C684.897 885.201 838.899 866.036 853.174 825.338L853.827 825.399L854.249 820.824L863.917 715.988L883.931 498.971L894.021 389.56L182.851 323.975Z" fill="#f17171" fill-rule="nonzero" opacity="1" stroke="none"/>
<path d="M297.566 742.677L306.21 743.474C328.088 745.492 345.154 754.391 344.327 763.351L344.327 763.351C343.501 772.311 325.095 777.938 303.217 775.921L294.574 775.124C272.696 773.106 255.63 764.207 256.456 755.247L256.456 755.247C257.283 746.287 275.688 740.659 297.566 742.677Z" fill="#ff3d4d" fill-opacity="0.792792" fill-rule="nonzero" filter="url(#Filter)" opacity="1" stroke="none"/>
<!-- <path d="M224.045 410.331C187.47 449.308 203.728 516.138 258.702 525.864C310.489 535.027 346.716 482.15 330.633 435.522C323.317 414.313 305.59 400.483 285.045 395.221C264.239 389.892 239.936 393.396 224.045 410.331Z" fill="#efefef" fill-rule="nonzero" filter="url(#Filter_2)" stroke="none" vectornator:shadowAngle="0.714395" vectornator:shadowColor="#000000" vectornator:shadowOffset="2.26744" vectornator:shadowOpacity="0.300251" vectornator:shadowRadius="13.0002"/> -->
<path d="M251.731 507.622C288.725 524.1 323.134 485.675 316.963 449.79C313.459 429.408 300.129 415.33 281.076 410.609C220.017 395.48 196.687 483.103 251.731 507.622Z" fill="#efefef" fill-rule="nonzero" opacity="1" stroke="#f17171" stroke-linecap="round" stroke-linejoin="round" stroke-width="18"/> -->
<!-- <g filter="url(#Filter_3)" 
vectornator:shadowAngle="1.22173" 
vectornator:shadowColor="#000000" 
vectornator:shadowOffset="2.06202" 
vectornator:shadowOpacity="0.556974" 
vectornator:shadowRadius="5.82971"> -->
<path d="M252.064 437.261L295.304 449.613" fill="none" opacity="1" stroke="#c964ff" stroke-linecap="round" stroke-linejoin="round" stroke-width="18"/>
<path d="M273.196 445.444L264.298 483.518" fill="none" opacity="1" stroke="#c964ff" stroke-linecap="round" stroke-linejoin="round" stroke-width="18"/>
<!-- </g>  -->
<path d="M670.541 772.367L679.184 773.164C701.063 775.182 718.129 784.081 717.302 793.041L717.302 793.041C716.476 802.001 698.07 807.629 676.192 805.611L667.549 804.814C645.671 802.797 628.605 793.897 629.431 784.938L629.431 784.938C630.257 775.978 648.663 770.35 670.541 772.367Z" fill="#ff3d4d" fill-opacity="0.792792" fill-rule="nonzero" filter="url(#Filter_4)" opacity="1" stroke="none"/>
<path d="M894.989 376.489L853.923 821.797L853.671 824.526L853.499 826.389L852.189 840.598C852.11 841.448 851.842 842.22 851.685 843.042C851.682 843.658 851.85 844.273 851.793 844.887C847.754 888.691 708.208 911.597 540.135 896.097L524.829 894.686C497.068 892.126 470.398 888.611 445.012 884.441C575.02 887.188 672.953 865.274 676.325 828.705C676.382 828.092 676.213 827.476 676.217 826.86C676.374 826.038 676.642 825.266 676.721 824.416L678.031 810.207L678.203 808.344L678.455 805.615L719.521 360.307L894.989 376.489Z" fill="#6e6e6e" fill-opacity="0.435896" fill-rule="nonzero" filter="url(#Filter_5)" opacity="1" stroke="none"/>
<path d="M213.231 274.08C195.213 272.419 179.443 283.274 178.05 298.377L176.536 314.798C176.456 315.666 176.609 316.494 176.625 317.35C176.506 317.969 176.19 318.553 176.132 319.179C172.005 363.933 327.352 414.811 523.07 432.86L540.894 434.504C736.612 452.553 898.598 430.94 902.726 386.187C902.782 385.574 902.574 384.958 902.571 384.342C902.749 383.489 903.048 382.689 903.13 381.805L904.644 365.384C906.037 350.282 892.564 336.729 874.547 335.068L213.231 274.08ZM241.634 348.387L833.033 402.926C766.77 417.286 661.213 420.871 543.155 409.983L525.332 408.34C407.274 397.452 304.167 374.625 241.634 348.387Z" fill="#aaafc0" fill-rule="nonzero" opacity="1" stroke="none"/>
<path d="M878.614 335.454C894.371 336.907 906.029 350.368 904.626 365.585L903.1 382.128C903.019 383.003 902.748 383.832 902.587 384.678C902.583 385.312 902.752 385.905 902.693 386.537C898.535 431.629 756.395 455.362 585.228 439.577L569.657 438.141C542.068 435.597 515.546 432.085 490.251 427.957C547.698 429.229 598.954 425.777 639.096 418.353C721.124 422.271 793.168 416.92 841.455 404.264L712.832 392.402C721.745 385.819 727.046 378.455 727.788 370.407C727.846 369.775 727.678 369.182 727.682 368.548C727.843 367.702 728.114 366.873 728.195 365.998L729.72 349.455C731.124 334.238 719.465 320.777 703.708 319.324L878.614 335.454Z" fill="#6e6e6e" fill-opacity="0.435896" fill-rule="nonzero" filter="url(#Filter_6)" opacity="1" stroke="none"/>
<path d="M540.161 247.255L557.991 248.899C753.71 266.948 909.026 317.86 904.899 362.614L904.899 362.614C900.771 407.368 738.764 429.016 543.045 410.966L525.215 409.322C329.495 391.272 174.18 340.36 178.307 295.607L178.307 295.607C182.434 250.853 344.442 229.205 540.161 247.255Z" fill="#bbc7da" fill-rule="nonzero" opacity="1" stroke="none"/>
<!-- <path d="M671.47 305.159C647.024 302.798 626.87 314.783 626.673 331.813C626.476 348.842 646.307 364.773 670.753 367.134L804.195 380.023C828.641 382.384 848.795 370.316 848.992 353.287C849.19 336.257 829.358 320.409 804.912 318.048L671.47 305.159ZM693.303 322.735L737.943 327.09C750.222 328.287 760.094 336.315 759.885 344.992C759.677 353.668 749.463 359.822 737.184 358.624L692.543 354.27C680.265 353.072 670.395 344.959 670.604 336.283C670.813 327.606 681.024 321.538 693.303 322.735ZM793.137 332.437L811.232 334.181C821.187 335.141 829.27 342.845 829.198 351.362C829.126 359.879 820.925 366.096 810.971 365.136L792.875 363.392C782.921 362.433 774.839 354.646 774.911 346.129C774.983 337.611 783.182 331.477 793.137 332.437Z" fill="#aaafc0" fill-rule="nonzero" filter="url(#Filter_7)" stroke="none" vectornator:shadowAngle="0.785398" vectornator:shadowColor="#000000" vectornator:shadowOffset="3.04264" vectornator:shadowOpacity="0.505172" vectornator:shadowRadius="3.69792"/> -->
<g opacity="1">
<g opacity="1">
<path d="M103.435 561.689L534.939 599.441L531.357 640.389L99.8528 602.637L103.435 561.689Z" fill="#161616" fill-rule="nonzero" opacity="1" stroke="none"/>
<path d="M122.525 604.541L490.48 636.733L486.903 677.617L118.948 645.425L122.525 604.541Z" fill="#161616" fill-rule="nonzero" opacity="1" stroke="none"/>
<path d="M125.471 523.487L493.426 555.679L489.051 605.683L121.096 573.491L125.471 523.487Z" fill="#161616" fill-rule="nonzero" opacity="1" stroke="none"/>
<path d="M161.62 628.56L447.807 653.598L444.231 694.482L158.043 669.444L161.62 628.56Z" fill="#161616" fill-rule="nonzero" opacity="1" stroke="none"/>
<path d="M200.715 652.579L405.135 670.463L401.558 711.347L197.139 693.463L200.715 652.579Z" fill="#161616" fill-rule="nonzero" opacity="1" stroke="none"/>
<path d="M239.811 676.598L362.463 687.328L358.886 728.212L236.234 717.482L239.811 676.598Z" fill="#161616" fill-rule="nonzero" opacity="1" stroke="none"/>
<path d="M265.936 695.753L333.119 701.631L329.617 741.663L262.434 735.785L265.936 695.753Z" fill="#161616" fill-rule="nonzero" opacity="1" stroke="none"/>
<path d="M652.851 729.604L720.034 735.482L716.532 775.514L649.349 769.636L652.851 729.604Z" fill="#161616" fill-rule="nonzero" opacity="1" stroke="none"/>
<path d="M472.244 593.941L900.392 631.399L896.815 672.283L468.667 634.825L472.244 593.941Z" fill="#161616" fill-rule="nonzero" opacity="1" stroke="none"/>
<path d="M509.551 638.402L877.506 670.594L873.929 711.478L505.974 679.286L509.551 638.402Z" fill="#161616" fill-rule="nonzero" opacity="1" stroke="none"/>
<path d="M512.516 557.127L880.471 589.319L876.261 637.447L508.305 605.255L512.516 557.127Z" fill="#161616" fill-rule="nonzero" opacity="1" stroke="none"/>
<path d="M548.646 662.421L834.834 687.459L831.257 728.343L545.069 703.304L548.646 662.421Z" fill="#161616" fill-rule="nonzero" opacity="1" stroke="none"/>
<path d="M587.742 686.439L792.161 704.324L788.584 745.208L584.165 727.323L587.742 686.439Z" fill="#161616" fill-rule="nonzero" opacity="1" stroke="none"/>
<path d="M626.837 710.458L749.489 721.189L745.912 762.073L623.26 751.342L626.837 710.458Z" fill="#161616" fill-rule="nonzero" opacity="1" stroke="none"/>
</g>
<g opacity="1">
<path d="M181.478 555.27L180.055 571.542L196.326 572.965L212.597 574.389L214.021 558.118L215.444 541.846L199.173 540.423L182.902 538.999L181.478 555.27ZM209.372 557.711L208.355 569.333L196.733 568.316L185.11 567.299L186.127 555.677L187.144 544.055L198.766 545.072L210.389 546.089L209.372 557.711Z" fill="#ffffff" fill-rule="nonzero" opacity="1" stroke="none"/>
<path d="M190.776 556.084L190.166 563.057L197.139 563.667L204.113 564.277L204.723 557.304L205.333 550.331L198.36 549.721L191.386 549.111L190.776 556.084Z" fill="#ffffff" fill-rule="nonzero" opacity="1" stroke="none"/>
<path d="M233.836 545.798L233.633 548.122L228.984 547.715L224.335 547.309L224.132 549.633L223.929 551.958L228.577 552.364L233.226 552.771L233.43 550.447L233.633 548.122L240.606 548.732L247.58 549.342L247.173 553.991L246.766 558.64L244.442 558.437L242.117 558.233L242.321 555.909L242.524 553.585L240.2 553.381L237.875 553.178L237.469 557.827L237.062 562.476L241.711 562.882L246.36 563.289L246.156 565.614L245.953 567.938L238.98 567.328L232.006 566.718L231.803 569.042L231.599 571.367L229.275 571.163L226.951 570.96L226.544 575.609L226.137 580.258L223.813 580.054L221.488 579.851L221.285 582.176L221.081 584.5L218.757 584.297L216.433 584.093L216.636 581.769L216.839 579.444L209.866 578.834L202.893 578.224L202.689 580.549L202.486 582.873L200.161 582.67L197.837 582.466L197.634 584.791L197.43 587.115L195.106 586.912L192.781 586.709L192.985 584.384L193.188 582.06L190.864 581.856L188.539 581.653L188.742 579.328L188.946 577.004L184.297 576.597L179.648 576.191L179.445 578.515L179.241 580.839L181.566 581.043L183.89 581.246L183.483 585.895L183.077 590.544L180.752 590.341L178.428 590.137L178.224 592.462L178.021 594.786L182.67 595.193L187.319 595.6L187.522 593.275L187.726 590.951L190.05 591.154L192.375 591.357L192.171 593.682L191.968 596.006L194.292 596.21L196.617 596.413L196.413 598.738L196.21 601.062L198.534 601.265L200.859 601.469L200.249 608.442L199.639 615.415L192.665 614.805L185.692 614.195L185.489 616.52L185.285 618.844L192.259 619.454L199.232 620.064L199.435 617.74L199.639 615.415L201.963 615.619L204.288 615.822L204.084 618.147L203.881 620.471L206.205 620.674L208.53 620.878L208.733 618.553L208.937 616.229L211.261 616.432L213.585 616.636L213.789 614.311L213.992 611.987L211.668 611.783L209.343 611.58L209.547 609.255L209.75 606.931L207.426 606.728L205.101 606.524L205.304 604.2L205.508 601.875L207.832 602.079L210.157 602.282L210.36 599.958L210.563 597.633L212.888 597.837L215.212 598.04L214.806 602.689L214.399 607.338L216.723 607.541L219.048 607.744L218.844 610.069L218.641 612.393L223.29 612.8L227.939 613.207L228.142 610.882L228.346 608.558L232.995 608.965L237.643 609.371L238.05 604.722L238.457 600.074L236.132 599.87L233.808 599.667L234.011 597.342L234.215 595.018L231.89 594.815L229.566 594.611L229.769 592.287L229.973 589.962L227.648 589.759L225.324 589.556L225.73 584.907L226.137 580.258L228.462 580.461L230.786 580.664L230.583 582.989L230.379 585.313L232.704 585.517L235.028 585.72L234.825 588.045L234.621 590.369L236.946 590.572L239.27 590.776L239.067 593.1L238.864 595.425L241.188 595.628L243.513 595.831L243.309 598.156L243.106 600.48L245.43 600.684L247.755 600.887L247.145 607.86L246.535 614.834L251.183 615.24L255.832 615.647L255.629 617.972L255.426 620.296L236.83 618.669L218.234 617.042L218.031 619.367L217.828 621.691L215.503 621.488L213.179 621.284L212.569 628.258L211.959 635.231L214.283 635.435L216.607 635.638L217.014 630.989L217.421 626.34L219.745 626.543L222.07 626.747L222.273 624.422L222.477 622.098L224.801 622.301L227.125 622.505L226.719 627.154L226.312 631.802L223.988 631.599L221.663 631.396L221.256 636.045L220.85 640.694L218.525 640.49L216.201 640.287L215.997 642.611L215.794 644.936L218.118 645.139L220.443 645.342L220.24 647.667L220.036 649.991L215.387 649.585L210.738 649.178L210.332 653.827L209.925 658.476L221.547 659.493L233.169 660.509L233.576 655.86L233.983 651.212L238.632 651.618L243.281 652.025L243.077 654.349L242.874 656.674L245.198 656.877L247.523 657.081L247.32 659.405L247.116 661.73L251.765 662.136L256.414 662.543L256.821 657.894L257.227 653.245L250.254 652.635L243.281 652.025L243.687 647.376L244.094 642.727L246.419 642.931L248.743 643.134L248.54 645.458L248.336 647.783L250.661 647.986L252.985 648.19L253.189 645.865L253.392 643.541L255.716 643.744L258.041 643.947L257.838 646.272L257.634 648.596L259.959 648.8L262.283 649.003L262.486 646.679L262.69 644.354L267.339 644.761L271.988 645.168L273.004 633.545L274.021 621.923L276.346 622.126L278.67 622.33L278.467 624.654L278.263 626.979L280.588 627.182L282.912 627.385L283.319 622.736L283.726 618.088L286.05 618.291L288.375 618.494L288.171 620.819L287.968 623.143L290.292 623.347L292.617 623.55L293.024 618.901L293.43 614.252L291.106 614.049L288.781 613.845L288.985 611.521L289.188 609.196L291.513 609.4L293.837 609.603L294.447 602.63L295.057 595.656L292.733 595.453L290.408 595.25L290.612 592.925L290.815 590.601L286.166 590.194L281.517 589.787L281.721 587.463L281.924 585.138L277.275 584.732L272.626 584.325L272.423 586.649L272.219 588.974L269.895 588.771L267.571 588.567L267.367 590.892L267.164 593.216L264.839 593.013L262.515 592.809L262.718 590.485L262.922 588.16L260.597 587.957L258.273 587.754L258.069 590.078L257.866 592.403L255.542 592.199L253.217 591.996L253.827 585.023L254.437 578.049L256.762 578.253L259.086 578.456L259.9 569.158L260.713 559.86L258.389 559.657L256.064 559.454L256.268 557.129L256.471 554.805L254.146 554.601L251.822 554.398L252.229 549.749L252.635 545.1L243.338 544.287L234.04 543.473L233.836 545.798ZM251.212 561.371L251.009 563.696L253.333 563.899L255.657 564.103L255.047 571.076L254.437 578.049L252.113 577.846L249.788 577.642L249.585 579.967L249.382 582.291L242.408 581.681L235.435 581.071L235.638 578.747L235.842 576.422L233.517 576.219L231.193 576.016L231.396 573.691L231.599 571.367L233.924 571.57L236.248 571.773L236.045 574.098L235.842 576.422L238.166 576.626L240.491 576.829L240.694 574.505L240.897 572.18L243.222 572.384L245.546 572.587L245.75 570.262L245.953 567.938L248.277 568.141L250.602 568.345L250.805 566.02L251.009 563.696L248.684 563.492L246.36 563.289L246.563 560.965L246.766 558.64L249.091 558.844L251.415 559.047L251.212 561.371ZM216.026 588.742L215.619 593.391L213.295 593.188L210.97 592.984L210.767 595.309L210.563 597.633L208.239 597.43L205.915 597.226L206.118 594.902L206.321 592.578L201.672 592.171L197.023 591.764L197.227 589.44L197.43 587.115L202.079 587.522L206.728 587.929L206.931 585.604L207.135 583.28L211.784 583.687L216.433 584.093L216.026 588.742ZM244.123 588.858L243.919 591.182L246.244 591.386L248.568 591.589L248.365 593.914L248.161 596.238L252.81 596.645L257.459 597.052L257.256 599.376L257.053 601.7L259.377 601.904L261.701 602.107L261.905 599.783L262.108 597.458L264.433 597.662L266.757 597.865L266.554 600.189L266.35 602.514L268.675 602.717L270.999 602.921L271.203 600.596L271.406 598.272L273.73 598.475L276.055 598.678L275.852 601.003L275.648 603.327L277.973 603.531L280.297 603.734L280.704 599.085L281.111 594.436L283.435 594.64L285.759 594.843L285.556 597.167L285.353 599.492L287.677 599.695L290.002 599.899L289.595 604.548L289.188 609.196L286.864 608.993L284.539 608.79L284.133 613.439L283.726 618.088L281.401 617.884L279.077 617.681L279.28 615.356L279.484 613.032L274.835 612.625L270.186 612.218L270.389 609.894L270.593 607.57L268.268 607.366L265.944 607.163L265.74 609.487L265.537 611.812L263.212 611.608L260.888 611.405L261.091 609.081L261.295 606.756L258.97 606.553L256.646 606.349L256.849 604.025L257.053 601.7L252.404 601.294L247.755 600.887L247.958 598.563L248.161 596.238L245.837 596.035L243.513 595.831L243.716 593.507L243.919 591.182L241.595 590.979L239.27 590.776L239.474 588.451L239.677 586.127L242.002 586.33L244.326 586.534L244.123 588.858ZM225.12 591.88L224.917 594.204L227.241 594.408L229.566 594.611L229.362 596.936L229.159 599.26L231.484 599.463L233.808 599.667L233.605 601.991L233.401 604.316L231.077 604.112L228.752 603.909L228.549 606.233L228.346 608.558L226.021 608.355L223.697 608.151L224.307 601.178L224.917 594.204L222.592 594.001L220.268 593.798L220.471 591.473L220.675 589.149L222.999 589.352L225.324 589.556L225.12 591.88ZM236.22 625.643L236.017 627.967L238.341 628.17L240.665 628.374L240.869 626.049L241.072 623.725L245.721 624.132L250.37 624.538L249.963 629.187L249.557 633.836L247.232 633.633L244.908 633.429L244.501 638.078L244.094 642.727L241.77 642.524L239.445 642.32L239.649 639.996L239.852 637.672L235.203 637.265L230.554 636.858L231.164 629.885L231.774 622.911L234.099 623.115L236.423 623.318L236.22 625.643ZM268.356 633.139L267.745 640.112L260.772 639.502L253.799 638.892L254.409 631.918L255.019 624.945L261.992 625.555L268.966 626.165L268.356 633.139ZM234.39 646.563L233.983 651.212L229.334 650.805L224.685 650.398L224.482 652.723L224.278 655.047L221.954 654.844L219.629 654.64L219.833 652.316L220.036 649.991L222.361 650.195L224.685 650.398L224.888 648.074L225.092 645.749L227.416 645.953L229.741 646.156L229.944 643.831L230.147 641.507L232.472 641.71L234.796 641.914L234.39 646.563Z" fill="#ffffff" fill-rule="nonzero" opacity="1" stroke="none"/>
<path d="M265.159 562.591L263.735 578.863L280.006 580.286L296.277 581.71L297.701 565.439L299.125 549.167L282.853 547.744L266.582 546.32L265.159 562.591ZM293.052 565.032L292.035 576.654L280.413 575.637L268.791 574.62L269.808 562.998L270.824 551.376L282.447 552.393L294.069 553.41L293.052 565.032Z" fill="#ffffff" fill-rule="nonzero" opacity="1" stroke="none"/>
<path d="M274.456 563.405L273.846 570.378L280.82 570.988L287.793 571.598L288.403 564.625L289.013 557.652L282.04 557.042L275.067 556.432L274.456 563.405Z" fill="#ffffff" fill-rule="nonzero" opacity="1" stroke="none"/>
<path d="M218.466 560.849L218.059 565.498L222.708 565.904L227.357 566.311L227.561 563.987L227.764 561.662L225.44 561.459L223.115 561.255L223.318 558.931L223.522 556.607L221.197 556.403L218.873 556.2L218.466 560.849Z" fill="#ffffff" fill-rule="nonzero" opacity="1" stroke="none"/>
<path d="M176.801 608.733L175.987 618.031L178.312 618.234L180.636 618.437L181.246 611.464L181.857 604.491L184.181 604.694L186.505 604.897L186.302 607.222L186.099 609.546L188.423 609.75L190.748 609.953L190.951 607.629L191.154 605.304L188.83 605.101L186.505 604.897L186.709 602.573L186.912 600.249L182.263 599.842L177.614 599.435L176.801 608.733Z" fill="#ffffff" fill-rule="nonzero" opacity="1" stroke="none"/>
<path d="M174.157 638.951L172.734 655.222L189.005 656.645L205.276 658.069L206.7 641.798L208.123 625.527L191.852 624.103L175.581 622.68L174.157 638.951ZM202.051 641.391L201.034 653.013L189.412 651.997L177.789 650.98L178.806 639.357L179.823 627.735L191.445 628.752L203.067 629.769L202.051 641.391Z" fill="#ffffff" fill-rule="nonzero" opacity="1" stroke="none"/>
<path d="M183.455 639.764L182.845 646.738L189.818 647.348L196.792 647.958L197.402 640.984L198.012 634.011L191.038 633.401L184.065 632.791L183.455 639.764Z" fill="#ffffff" fill-rule="nonzero" opacity="1" stroke="none"/>
<path d="M286.951 634.765L286.748 637.09L284.423 636.887L282.099 636.683L281.896 639.008L281.692 641.332L279.368 641.129L277.043 640.925L276.84 643.25L276.637 645.574L278.961 645.778L281.285 645.981L281.082 648.305L280.879 650.63L276.23 650.223L271.581 649.816L271.378 652.141L271.174 654.465L266.525 654.059L261.876 653.652L261.673 655.976L261.47 658.301L266.119 658.708L270.767 659.114L270.564 661.439L270.361 663.763L272.685 663.967L275.01 664.17L275.213 661.845L275.416 659.521L273.092 659.318L270.767 659.114L270.971 656.79L271.174 654.465L275.823 654.872L280.472 655.279L280.675 652.954L280.879 650.63L283.203 650.833L285.528 651.037L284.918 658.01L284.307 664.983L286.632 665.187L288.956 665.39L289.77 656.092L290.583 646.794L285.934 646.388L281.285 645.981L281.489 643.657L281.692 641.332L284.017 641.535L286.341 641.739L286.544 639.414L286.748 637.09L289.072 637.293L291.397 637.497L291.6 635.172L291.803 632.848L289.479 632.644L287.155 632.441L286.951 634.765Z" fill="#ffffff" fill-rule="nonzero" opacity="1" stroke="none"/>
</g>
<g opacity="1">
<path d="M569.014 586.336L567.591 602.607L583.862 604.03L600.133 605.454L601.557 589.183L602.98 572.912L586.709 571.488L570.438 570.064L569.014 586.336ZM596.908 588.776L595.891 600.398L584.269 599.381L572.646 598.365L573.663 586.742L574.68 575.12L586.302 576.137L597.925 577.154L596.908 588.776Z" fill="#ffffff" fill-rule="nonzero" opacity="1" stroke="none"/>
<path d="M578.312 587.149L577.702 594.122L584.675 594.733L591.649 595.343L592.259 588.369L592.869 581.396L585.896 580.786L578.922 580.176L578.312 587.149Z" fill="#ffffff" fill-rule="nonzero" opacity="1" stroke="none"/>
<path d="M621.372 576.863L621.169 579.187L616.52 578.781L611.871 578.374L611.668 580.698L611.465 583.023L616.113 583.43L620.762 583.836L620.966 581.512L621.169 579.187L628.142 579.797L635.116 580.408L634.709 585.056L634.302 589.705L631.978 589.502L629.653 589.299L629.857 586.974L630.06 584.65L627.736 584.446L625.411 584.243L625.005 588.892L624.598 593.541L629.247 593.948L633.896 594.354L633.692 596.679L633.489 599.003L626.516 598.393L619.542 597.783L619.339 600.107L619.135 602.432L616.811 602.229L614.487 602.025L614.08 606.674L613.673 611.323L611.349 611.12L609.024 610.916L608.821 613.241L608.617 615.565L606.293 615.362L603.969 615.158L604.172 612.834L604.375 610.51L597.402 609.899L590.429 609.289L590.225 611.614L590.022 613.938L587.697 613.735L585.373 613.532L585.17 615.856L584.966 618.18L582.642 617.977L580.317 617.774L580.521 615.449L580.724 613.125L578.4 612.921L576.075 612.718L576.278 610.394L576.482 608.069L571.833 607.662L567.184 607.256L566.981 609.58L566.777 611.905L569.102 612.108L571.426 612.311L571.019 616.96L570.613 621.609L568.288 621.406L565.964 621.202L565.76 623.527L565.557 625.851L570.206 626.258L574.855 626.665L575.058 624.34L575.262 622.016L577.586 622.219L579.911 622.423L579.707 624.747L579.504 627.072L581.828 627.275L584.153 627.478L583.949 629.803L583.746 632.127L586.07 632.331L588.395 632.534L587.785 639.507L587.175 646.481L580.201 645.871L573.228 645.26L573.025 647.585L572.821 649.909L579.795 650.519L586.768 651.13L586.971 648.805L587.175 646.481L589.499 646.684L591.824 646.887L591.62 649.212L591.417 651.536L593.741 651.74L596.066 651.943L596.269 649.619L596.473 647.294L598.797 647.497L601.121 647.701L601.325 645.376L601.528 643.052L599.204 642.849L596.879 642.645L597.083 640.321L597.286 637.996L594.962 637.793L592.637 637.59L592.84 635.265L593.044 632.941L595.368 633.144L597.693 633.347L597.896 631.023L598.099 628.698L600.424 628.902L602.748 629.105L602.342 633.754L601.935 638.403L604.259 638.606L606.584 638.81L606.38 641.134L606.177 643.459L610.826 643.865L615.475 644.272L615.678 641.948L615.882 639.623L620.531 640.03L625.179 640.437L625.586 635.788L625.993 631.139L623.668 630.935L621.344 630.732L621.547 628.408L621.751 626.083L619.426 625.88L617.102 625.676L617.305 623.352L617.509 621.028L615.184 620.824L612.86 620.621L613.266 615.972L613.673 611.323L615.998 611.526L618.322 611.73L618.119 614.054L617.915 616.379L620.24 616.582L622.564 616.785L622.361 619.11L622.157 621.434L624.482 621.638L626.806 621.841L626.603 624.165L626.4 626.49L628.724 626.693L631.049 626.897L630.845 629.221L630.642 631.546L632.966 631.749L635.291 631.952L634.681 638.926L634.071 645.899L638.719 646.306L643.368 646.712L643.165 649.037L642.962 651.361L624.366 649.734L605.77 648.108L605.567 650.432L605.364 652.756L603.039 652.553L600.715 652.35L600.105 659.323L599.495 666.296L601.819 666.5L604.143 666.703L604.55 662.054L604.957 657.405L607.281 657.609L609.606 657.812L609.809 655.488L610.013 653.163L612.337 653.367L614.661 653.57L614.255 658.219L613.848 662.868L611.524 662.664L609.199 662.461L608.792 667.11L608.386 671.759L606.061 671.555L603.737 671.352L603.533 673.677L603.33 676.001L605.654 676.204L607.979 676.408L607.776 678.732L607.572 681.057L602.923 680.65L598.274 680.243L597.868 684.892L597.461 689.541L609.083 690.558L620.705 691.575L621.112 686.926L621.519 682.277L626.168 682.684L630.817 683.09L630.613 685.415L630.41 687.739L632.734 687.943L635.059 688.146L634.856 690.47L634.652 692.795L639.301 693.202L643.95 693.608L644.357 688.959L644.763 684.31L637.79 683.7L630.817 683.09L631.223 678.441L631.63 673.792L633.955 673.996L636.279 674.199L636.076 676.524L635.872 678.848L638.197 679.051L640.521 679.255L640.725 676.93L640.928 674.606L643.252 674.809L645.577 675.013L645.374 677.337L645.17 679.662L647.495 679.865L649.819 680.068L650.022 677.744L650.226 675.419L654.875 675.826L659.524 676.233L660.54 664.611L661.557 652.988L663.882 653.192L666.206 653.395L666.003 655.719L665.799 658.044L668.124 658.247L670.448 658.451L670.855 653.802L671.262 649.153L673.586 649.356L675.911 649.56L675.707 651.884L675.504 654.208L677.828 654.412L680.153 654.615L680.56 649.966L680.966 645.317L678.642 645.114L676.317 644.911L676.521 642.586L676.724 640.262L679.049 640.465L681.373 640.668L681.983 633.695L682.593 626.722L680.269 626.518L677.944 626.315L678.148 623.991L678.351 621.666L673.702 621.259L669.053 620.853L669.257 618.528L669.46 616.204L664.811 615.797L660.162 615.39L659.959 617.715L659.755 620.039L657.431 619.836L655.107 619.632L654.903 621.957L654.7 624.281L652.375 624.078L650.051 623.875L650.254 621.55L650.458 619.226L648.133 619.022L645.809 618.819L645.605 621.143L645.402 623.468L643.078 623.265L640.753 623.061L641.363 616.088L641.973 609.114L644.298 609.318L646.622 609.521L647.436 600.223L648.249 590.926L645.925 590.722L643.6 590.519L643.804 588.194L644.007 585.87L641.682 585.667L639.358 585.463L639.765 580.814L640.171 576.165L630.874 575.352L621.576 574.538L621.372 576.863ZM638.748 592.437L638.545 594.761L640.869 594.964L643.193 595.168L642.583 602.141L641.973 609.114L639.649 608.911L637.324 608.708L637.121 611.032L636.918 613.357L629.944 612.747L622.971 612.136L623.174 609.812L623.378 607.488L621.053 607.284L618.729 607.081L618.932 604.756L619.135 602.432L621.46 602.635L623.784 602.839L623.581 605.163L623.378 607.488L625.702 607.691L628.027 607.894L628.23 605.57L628.433 603.245L630.758 603.449L633.082 603.652L633.286 601.328L633.489 599.003L635.813 599.207L638.138 599.41L638.341 597.085L638.545 594.761L636.22 594.558L633.896 594.354L634.099 592.03L634.302 589.705L636.627 589.909L638.951 590.112L638.748 592.437ZM603.562 619.807L603.155 624.456L600.831 624.253L598.506 624.05L598.303 626.374L598.099 628.698L595.775 628.495L593.451 628.292L593.654 625.967L593.857 623.643L589.208 623.236L584.559 622.829L584.763 620.505L584.966 618.18L589.615 618.587L594.264 618.994L594.467 616.669L594.671 614.345L599.32 614.752L603.969 615.158L603.562 619.807ZM631.659 619.923L631.455 622.248L633.78 622.451L636.104 622.654L635.901 624.979L635.697 627.303L640.346 627.71L644.995 628.117L644.792 630.441L644.589 632.766L646.913 632.969L649.237 633.172L649.441 630.848L649.644 628.524L651.969 628.727L654.293 628.93L654.09 631.255L653.886 633.579L656.211 633.783L658.535 633.986L658.739 631.661L658.942 629.337L661.266 629.54L663.591 629.744L663.388 632.068L663.184 634.393L665.509 634.596L667.833 634.799L668.24 630.15L668.647 625.502L670.971 625.705L673.295 625.908L673.092 628.233L672.889 630.557L675.213 630.761L677.538 630.964L677.131 635.613L676.724 640.262L674.4 640.058L672.075 639.855L671.669 644.504L671.262 649.153L668.937 648.949L666.613 648.746L666.816 646.422L667.02 644.097L662.371 643.69L657.722 643.284L657.925 640.959L658.129 638.635L655.804 638.431L653.48 638.228L653.276 640.553L653.073 642.877L650.748 642.674L648.424 642.47L648.627 640.146L648.831 637.821L646.506 637.618L644.182 637.415L644.385 635.09L644.589 632.766L639.94 632.359L635.291 631.952L635.494 629.628L635.697 627.303L633.373 627.1L631.049 626.897L631.252 624.572L631.455 622.248L629.131 622.044L626.806 621.841L627.01 619.517L627.213 617.192L629.538 617.395L631.862 617.599L631.659 619.923ZM612.656 622.945L612.453 625.27L614.777 625.473L617.102 625.676L616.898 628.001L616.695 630.325L619.02 630.529L621.344 630.732L621.141 633.057L620.937 635.381L618.613 635.178L616.288 634.974L616.085 637.299L615.882 639.623L613.557 639.42L611.233 639.216L611.843 632.243L612.453 625.27L610.128 625.066L607.804 624.863L608.007 622.539L608.211 620.214L610.535 620.417L612.86 620.621L612.656 622.945ZM623.756 656.708L623.553 659.032L625.877 659.236L628.201 659.439L628.405 657.115L628.608 654.79L633.257 655.197L637.906 655.604L637.499 660.252L637.093 664.901L634.768 664.698L632.444 664.495L632.037 669.144L631.63 673.792L629.306 673.589L626.981 673.386L627.185 671.061L627.388 668.737L622.739 668.33L618.09 667.923L618.7 660.95L619.31 653.977L621.635 654.18L623.959 654.383L623.756 656.708ZM655.892 664.204L655.281 671.177L648.308 670.567L641.335 669.957L641.945 662.984L642.555 656.01L649.528 656.62L656.502 657.23L655.892 664.204ZM621.926 677.628L621.519 682.277L616.87 681.87L612.221 681.463L612.018 683.788L611.814 686.112L609.49 685.909L607.165 685.706L607.369 683.381L607.572 681.057L609.897 681.26L612.221 681.463L612.424 679.139L612.628 676.814L614.952 677.018L617.277 677.221L617.48 674.897L617.683 672.572L620.008 672.776L622.332 672.979L621.926 677.628Z" fill="#ffffff" fill-rule="nonzero" opacity="1" stroke="none"/>
<path d="M652.695 593.657L651.271 609.928L667.542 611.351L683.813 612.775L685.237 596.504L686.661 580.233L670.389 578.809L654.118 577.386L652.695 593.657ZM680.588 596.097L679.571 607.719L667.949 606.703L656.327 605.686L657.344 594.063L658.36 582.441L669.983 583.458L681.605 584.475L680.588 596.097Z" fill="#ffffff" fill-rule="nonzero" opacity="1" stroke="none"/>
<path d="M661.992 594.47L661.382 601.444L668.356 602.054L675.329 602.664L675.939 595.69L676.549 588.717L669.576 588.107L662.603 587.497L661.992 594.47Z" fill="#ffffff" fill-rule="nonzero" opacity="1" stroke="none"/>
<path d="M606.002 591.914L605.595 596.563L610.244 596.97L614.893 597.376L615.097 595.052L615.3 592.727L612.976 592.524L610.651 592.321L610.854 589.996L611.058 587.672L608.733 587.468L606.409 587.265L606.002 591.914Z" fill="#ffffff" fill-rule="nonzero" opacity="1" stroke="none"/>
<path d="M564.337 639.798L563.523 649.096L565.848 649.299L568.172 649.503L568.782 642.529L569.393 635.556L571.717 635.759L574.041 635.963L573.838 638.287L573.635 640.612L575.959 640.815L578.284 641.018L578.487 638.694L578.69 636.369L576.366 636.166L574.041 635.963L574.245 633.638L574.448 631.314L569.799 630.907L565.15 630.5L564.337 639.798Z" fill="#ffffff" fill-rule="nonzero" opacity="1" stroke="none"/>
<path d="M561.693 670.016L560.27 686.287L576.541 687.711L592.812 689.134L594.236 672.863L595.659 656.592L579.388 655.168L563.117 653.745L561.693 670.016ZM589.587 672.456L588.57 684.079L576.948 683.062L565.325 682.045L566.342 670.423L567.359 658.8L578.981 659.817L590.603 660.834L589.587 672.456Z" fill="#ffffff" fill-rule="nonzero" opacity="1" stroke="none"/>
<path d="M570.991 670.829L570.381 677.803L577.354 678.413L584.328 679.023L584.938 672.05L585.548 665.076L578.574 664.466L571.601 663.856L570.991 670.829Z" fill="#ffffff" fill-rule="nonzero" opacity="1" stroke="none"/>
<path d="M674.487 665.831L674.284 668.155L671.959 667.952L669.635 667.748L669.432 670.073L669.228 672.397L666.904 672.194L664.579 671.991L664.376 674.315L664.173 676.64L666.497 676.843L668.821 677.046L668.618 679.371L668.415 681.695L663.766 681.288L659.117 680.882L658.914 683.206L658.71 685.531L654.061 685.124L649.412 684.717L649.209 687.042L649.006 689.366L653.655 689.773L658.303 690.18L658.1 692.504L657.897 694.828L660.221 695.032L662.546 695.235L662.749 692.911L662.952 690.586L660.628 690.383L658.303 690.18L658.507 687.855L658.71 685.531L663.359 685.937L668.008 686.344L668.211 684.02L668.415 681.695L670.739 681.899L673.064 682.102L672.454 689.075L671.843 696.049L674.168 696.252L676.492 696.455L677.306 687.158L678.119 677.86L673.47 677.453L668.821 677.046L669.025 674.722L669.228 672.397L671.553 672.601L673.877 672.804L674.08 670.48L674.284 668.155L676.608 668.359L678.933 668.562L679.136 666.237L679.339 663.913L677.015 663.71L674.691 663.506L674.487 665.831Z" fill="#ffffff" fill-rule="nonzero" opacity="1" stroke="none"/>

</g>
</g>


<path d="M447.216 775.686C447.216 775.686 463.679 830.646 568.115 766.229" fill="none" opacity="1" stroke="#974e07" stroke-linecap="round" stroke-linejoin="round" stroke-width="11"/>

</g> 
</svg>
