<svg width="1em" version="1.1" viewBox="0 0 1024 1024" xmlns="http://www.w3.org/2000/svg" height="1em">
<linearGradient gradientUnits="userSpaceOnUse" id="LinearGradient" gradientTransform="matrix(0.157494 0.127218 -0.123223 0.166903 497.945 261.493)" y1="515.085" x2="931.991" y2="595.612" x1="602.193">
<stop offset="0.0578512" stop-color="#ababab" stop-opacity="0.54054"/>
<stop offset="0.902893" stop-color="#000000" stop-opacity="0.923423"/>
</linearGradient>
<linearGradient id="LinearGradient_2" x2="931.991" y1="515.085" y2="595.612" gradientUnits="userSpaceOnUse" x1="602.193" gradientTransform="matrix(0.157494 0.127218 -0.123223 0.166903 328.63 240.272)">
<stop stop-color="#ababab" offset="0.0578512" stop-opacity="0.54054"/>
<stop offset="0.902893" stop-color="#000000" stop-opacity="0.923423"/>
</linearGradient>
<linearGradient y2="595.612" id="LinearGradient_3" x1="602.193" gradientTransform="matrix(0.157494 0.127218 -0.123223 0.166903 374.783 339.471)" x2="931.991" gradientUnits="userSpaceOnUse" y1="515.085">
<stop offset="0.0578512" stop-opacity="0.54054" stop-color="#ababab"/>
<stop stop-color="#000000" stop-opacity="0.923423" offset="0.902893"/>
</linearGradient>
<linearGradient x1="602.193" y2="595.612" gradientTransform="matrix(0.157494 0.127218 -0.123223 0.166903 662.261 242.947)" y1="515.085" id="LinearGradient_4" x2="931.991" gradientUnits="userSpaceOnUse">
<stop stop-opacity="0.54054" offset="0.0578512" stop-color="#ababab"/>
<stop offset="0.902893" stop-color="#000000" stop-opacity="0.923423"/>
</linearGradient>
<linearGradient x1="602.193" x2="931.991" y1="515.085" gradientTransform="matrix(0.157494 0.127218 -0.123223 0.166903 622.023 360.327)" id="LinearGradient_5" y2="595.612" gradientUnits="userSpaceOnUse">
<stop stop-color="#ababab" stop-opacity="0.54054" offset="0.0578512"/>
<stop stop-color="#000000" offset="0.902893" stop-opacity="0.923423"/>
</linearGradient>
<linearGradient x2="931.991" x1="602.193" id="LinearGradient_6" y1="515.085" gradientUnits="userSpaceOnUse" gradientTransform="matrix(0.157494 0.127218 -0.123223 0.166903 501.717 387.335)" y2="595.612">
<stop offset="0.0578512" stop-color="#ababab" stop-opacity="0.54054"/>
<stop stop-color="#000000" stop-opacity="0.923423" offset="0.902893"/>
</linearGradient>
<linearGradient x1="462.23" y1="253.071" id="LinearGradient_7" gradientUnits="userSpaceOnUse" gradientTransform="matrix(1.18216 0 0 1.15608 -110.335 -162.086)" y2="665.922" x2="592.06">
<stop stop-color="#fffbe3" offset="0.126033" stop-opacity="0.124716"/>
<stop offset="0.838843" stop-opacity="0.370841" stop-color="#c0baaa"/>
</linearGradient>
<g>
<g opacity="1">
<path d="M531.266+329.445C485.506+317.978+439.385+346.47+428.252+393.085C417.118+439.699+445.188+486.783+490.948+498.249C536.708+509.716+582.83+481.224+593.963+434.609C605.097+387.995+577.026+340.911+531.266+329.445Z" opacity="1" fill="#ff8faa"/>
<path fill="url(#LinearGradient)" opacity="0.3" d="M561.973+345.293C556.68+341.018+551.061+337.51+545.246+334.704C574.304+365.828+578.148+414.809+552.49+449.562C528.362+482.243+486.002+491.691+450.986+474.796C453.792+477.801+456.815+480.653+460.087+483.296C497.248+513.314+550.181+506.75+578.316+468.642C606.451+430.533+599.135+375.311+561.973+345.293Z"/>
<path d="M476.47+357.823L476.47+357.823C477.578+360.027+476.424+363.448+473.893+365.463L465.195+372.387C462.664+374.402+459.713+374.248+458.605+372.043L458.605+372.043C457.497+369.838+458.651+366.418+461.183+364.402L469.88+357.479C472.412+355.464+475.362+355.618+476.47+357.823Z" fill="#ffffff" opacity="1"/>
<path opacity="1" d="M493.131+349.172L493.131+349.172C494.212+350.866+493.78+353.168+492.166+354.315L491.243+354.971C489.628+356.117+487.443+355.674+486.362+353.981L486.362+353.981C485.281+352.287+485.713+349.985+487.328+348.838L488.251+348.182C489.865+347.036+492.05+347.479+493.131+349.172Z" fill="#ffffff"/>
</g>
<g opacity="1">
<path opacity="1" d="M361.951+308.223C316.191+296.757+270.07+325.249+258.936+371.863C247.803+418.478+275.873+465.561+321.633+477.028C367.393+488.495+413.514+460.002+424.648+413.388C435.781+366.774+407.711+319.69+361.951+308.223Z" fill="#ff9373"/>
<path d="M392.658+324.072C387.365+319.797+381.746+316.289+375.931+313.483C404.989+344.607+408.833+393.588+383.175+428.341C359.047+461.022+316.687+470.47+281.671+453.575C284.476+456.58+287.5+459.432+290.771+462.075C327.933+492.093+380.866+485.529+409.001+447.421C437.136+409.312+429.819+354.09+392.658+324.072Z" opacity="0.3" fill="url(#LinearGradient_2)"/>
<path fill="#ffffff" opacity="1" d="M307.155+336.601L307.155+336.601C308.263+338.806+307.109+342.227+304.577+344.242L295.88+351.165C293.349+353.181+290.398+353.027+289.29+350.822L289.29+350.822C288.182+348.617+289.336+345.196+291.867+343.181L300.565+336.258C303.096+334.243+306.047+334.397+307.155+336.601Z"/>
<path opacity="1" fill="#ffffff" d="M323.816+327.951L323.816+327.951C324.897+329.645+324.465+331.947+322.85+333.094L321.927+333.75C320.313+334.896+318.128+334.453+317.047+332.759L317.047+332.759C315.966+331.066+316.398+328.763+318.012+327.617L318.936+326.961C320.55+325.814+322.735+326.258+323.816+327.951Z"/>
</g>
<g opacity="1">
<path fill="#df9efe" opacity="1" d="M408.104+407.422C362.344+395.956+316.223+424.448+305.089+471.062C293.956+517.676+322.026+564.76+367.786+576.227C413.546+587.694+459.667+559.201+470.801+512.587C481.934+465.973+453.864+418.889+408.104+407.422Z"/>
<path fill="url(#LinearGradient_3)" d="M438.811+423.271C433.518+418.996+427.899+415.488+422.084+412.682C451.142+443.806+454.986+492.787+429.328+527.54C405.199+560.221+362.84+569.669+327.824+552.774C330.629+555.778+333.653+558.631+336.924+561.274C374.086+591.291+427.019+584.728+455.154+546.62C483.289+508.511+475.972+453.289+438.811+423.271Z" opacity="0.3"/>
<path d="M353.308+435.8L353.308+435.8C354.416+438.005+353.262+441.426+350.73+443.441L342.033+450.364C339.501+452.379+336.551+452.226+335.443+450.021L335.443+450.021C334.335+447.816+335.489+444.395+338.02+442.38L346.718+435.457C349.249+433.442+352.2+433.595+353.308+435.8Z" opacity="1" fill="#ffffff"/>
<path fill="#ffffff" d="M369.969+427.15L369.969+427.15C371.05+428.844+370.618+431.146+369.003+432.293L368.08+432.948C366.466+434.095+364.281+433.652+363.2+431.958L363.2+431.958C362.119+430.265+362.551+427.962+364.165+426.816L365.088+426.16C366.703+425.013+368.888+425.457+369.969+427.15Z" opacity="1"/>
</g>
<g opacity="1">
<path d="M695.583+310.898C649.823+299.432+603.701+327.924+592.568+374.538C581.434+421.153+609.504+468.237+655.264+479.703C701.024+491.17+747.146+462.677+758.279+416.063C769.413+369.449+741.343+322.365+695.583+310.898Z" opacity="1" fill="#84c3ff"/>
<path fill="url(#LinearGradient_4)" d="M726.289+326.747C720.997+322.472+715.378+318.964+709.562+316.158C738.62+347.282+742.464+396.263+716.806+431.016C692.678+463.697+650.318+473.145+615.303+456.25C618.108+459.255+621.131+462.107+624.403+464.75C661.564+494.768+714.497+488.204+742.632+450.096C770.768+411.987+763.451+356.765+726.289+326.747Z" opacity="0.3"/>
<path d="M640.786+339.276L640.786+339.276C641.894+341.481+640.74+344.902+638.209+346.917L629.512+353.84C626.98+355.856+624.03+355.702+622.921+353.497L622.921+353.497C621.813+351.292+622.967+347.871+625.499+345.856L634.196+338.933C636.728+336.918+639.678+337.072+640.786+339.276Z" opacity="1" fill="#ffffff"/>
<path opacity="1" fill="#ffffff" d="M657.448+330.626L657.448+330.626C658.529+332.32+658.096+334.622+656.482+335.769L655.559+336.425C653.944+337.571+651.759+337.128+650.678+335.434L650.678+335.434C649.597+333.741+650.03+331.439+651.644+330.292L652.567+329.636C654.181+328.489+656.366+328.933+657.448+330.626Z"/>
</g>
<g opacity="1">
<path opacity="1" d="M655.344+428.279C609.584+416.812+563.463+445.305+552.329+491.919C541.196+538.533+569.266+585.617+615.026+597.084C660.786+608.55+706.907+580.058+718.041+533.444C729.175+486.829+701.104+439.746+655.344+428.279Z" fill="#65ffb3"/>
<path opacity="0.3" d="M686.051+444.127C680.758+439.852+675.139+436.344+669.324+433.538C698.382+464.662+702.226+513.643+676.568+548.396C652.44+581.077+610.08+590.525+575.064+573.63C577.87+576.635+580.893+579.487+584.165+582.13C621.326+612.148+674.259+605.585+702.394+567.476C730.529+529.368+723.213+474.145+686.051+444.127Z" fill="url(#LinearGradient_5)"/>
<path fill="#ffffff" opacity="1" d="M600.548+456.657L600.548+456.657C601.656+458.861+600.502+462.282+597.971+464.298L589.273+471.221C586.742+473.236+583.791+473.082+582.683+470.877L582.683+470.877C581.575+468.673+582.729+465.252+585.261+463.237L593.958+456.313C596.489+454.298+599.44+454.452+600.548+456.657Z"/>
<path fill="#ffffff" d="M617.209+448.007L617.209+448.007C618.29+449.7+617.858+452.002+616.244+453.149L615.32+453.805C613.706+454.952+611.521+454.508+610.44+452.815L610.44+452.815C609.359+451.121+609.791+448.819+611.406+447.672L612.329+447.016C613.943+445.87+616.128+446.313+617.209+448.007Z" opacity="1"/>
</g>
<g opacity="1">
<path fill="#fff165" opacity="1" d="M535.038+455.287C489.278+443.82+443.157+472.312+432.023+518.927C420.89+565.541+448.96+612.625+494.72+624.091C540.48+635.558+586.601+607.066+597.735+560.451C608.868+513.837+580.798+466.753+535.038+455.287Z"/>
<path fill="url(#LinearGradient_6)" d="M565.745+471.135C560.452+466.86+554.833+463.352+549.018+460.546C578.076+491.67+581.92+540.651+556.262+575.404C532.134+608.085+489.774+617.533+454.758+600.638C457.563+603.643+460.587+606.495+463.858+609.138C501.02+639.156+553.953+632.592+582.088+594.484C610.223+556.375+602.906+501.153+565.745+471.135Z" opacity="0.3"/>
<path opacity="1" fill="#ffffff" d="M480.242+483.665L480.242+483.665C481.35+485.869+480.196+489.29+477.664+491.305L468.967+498.229C466.435+500.244+463.485+500.09+462.377+497.885L462.377+497.885C461.269+495.68+462.423+492.26+464.954+490.244L473.652+483.321C476.183+481.306+479.134+481.46+480.242+483.665Z"/>
<path opacity="1" d="M496.903+475.014L496.903+475.014C497.984+476.708+497.552+479.01+495.937+480.157L495.014+480.813C493.4+481.959+491.215+481.516+490.134+479.823L490.134+479.823C489.053+478.129+489.485+475.827+491.099+474.68L492.022+474.024C493.637+472.878+495.822+473.321+496.903+475.014Z" fill="#ffffff"/>
</g>
<path stroke-linejoin="round" stroke-width="24.1144" stroke="#ceccc6" opacity="1" d="M556.835+68.9817L556.835+68.9817C733.44+91.9327+857.888+248.296+834.797+418.228L834.019+423.952C810.928+593.885+649.042+713.036+472.437+690.085L472.437+690.085C295.832+667.134+171.384+510.772+194.476+340.839L195.254+335.115C218.345+165.183+380.23+46.0307+556.835+68.9817Z" stroke-linecap="round" fill="url(#LinearGradient_7)"/>
<path d="M312.751+900.147L312.751+702.753C312.751+679.478+328.966+660.61+348.968+660.61L677.94+660.61C697.942+660.61+714.157+679.478+714.157+702.753L714.157+900.147C714.157+923.423+697.942+942.291+677.94+942.291L348.968+942.291C328.966+942.291+312.751+923.423+312.751+900.147Z" opacity="1" fill="#e44a4c"/>
<path d="M575.99+792.55L665.451+792.55C677.988+792.55+688.151+803.86+688.151+817.81L688.151+884.014C688.151+897.965+677.988+909.274+665.451+909.274L575.99+909.274C563.453+909.274+553.29+897.965+553.29+884.014L553.29+817.81C553.29+803.86+563.453+792.55+575.99+792.55Z" opacity="1" fill="#4a90e4"/>
<path opacity="1" d="M396.167+705.078L399.56+705.078C427.674+705.078+450.464+728.422+450.464+757.217L450.464+757.217C450.464+786.013+427.674+809.357+399.56+809.357L396.167+809.357C368.054+809.357+345.264+786.013+345.264+757.217L345.264+757.217C345.264+728.422+368.054+705.078+396.167+705.078Z" fill="#f96f71"/>
<path fill="#b9b9b9" d="M621.146+691.711L626.02+691.711C649.238+691.711+668.06+710.99+668.06+734.772L668.06+734.772C668.06+758.554+649.238+777.833+626.02+777.833L621.146+777.833C597.928+777.833+579.105+758.554+579.105+734.772L579.105+734.772C579.105+710.99+597.928+691.711+621.146+691.711Z" opacity="1"/>
<path opacity="1" fill="#4c4d4d" d="M621.819+693.275L621.819+693.275C627.023+693.275+631.241+694.831+631.241+696.751L631.241+773.222C631.241+775.142+627.023+776.698+621.819+776.698L621.819+776.698C616.616+776.698+612.398+775.142+612.398+773.222L612.398+696.751C612.398+694.831+616.616+693.275+621.819+693.275Z"/>
<path opacity="1" d="M638.944+756.332L638.944+756.332L638.944+758.07L638.944+758.07L638.944+756.332Z" fill="#828282"/>
<path d="M439.219+724.188C437.581+723.879+435.828+724.205+434.344+725.219C428.213+728.562+422.128+732.013+415.812+735C414.044+735.837+412.228+736.518+410.406+737.219C409.679+737.499+409.052+737.899+408.312+738.156C406.907+738.646+405.521+739.111+404.156+739.719C400.658+741.276+397.322+743.221+393.969+745.062C388.086+749.082+386.574+757.086+390.594+762.969C394.613+768.852+402.648+770.363+408.531+766.344C411.465+763.89+414.496+761.505+417.219+758.812C418.281+757.762+419.19+756.662+420.156+755.531C420.665+754.936+421.287+754.482+421.812+753.906C423.127+752.464+424.422+751.031+425.844+749.688C430.923+744.89+436.344+740.465+441.688+735.969C444.657+733.94+445.435+729.875+443.406+726.906C442.392+725.422+440.856+724.496+439.219+724.188Z" opacity="1" fill="#4a90e4"/>
</g>
</svg>
