<svg width="1em" version="1.1" viewBox="0 0 1024 1024" xmlns="http://www.w3.org/2000/svg" height="1em">
<linearGradient gradientUnits="userSpaceOnUse" x2="931.991" y2="595.612" gradientTransform="matrix(0.157494 0.127218 -0.123223 0.166903 377.489 334.937)" id="LinearGradient" y1="515.085" x1="602.193">
<stop stop-color="#ababab" offset="0.0578512" stop-opacity="0.54054"/>
<stop stop-opacity="0.923423" stop-color="#000000" offset="0.902893"/>
</linearGradient>
<linearGradient y2="595.612" gradientUnits="userSpaceOnUse" id="LinearGradient_2" y1="515.085" gradientTransform="matrix(0.157494 0.127218 -0.123223 0.166903 647.586 363.868)" x2="931.991" x1="602.193">
<stop stop-color="#ababab" stop-opacity="0.54054" offset="0.0578512"/>
<stop stop-color="#000000" offset="0.902893" stop-opacity="0.923423"/>
</linearGradient>
<linearGradient gradientUnits="userSpaceOnUse" x1="602.193" y1="515.085" y2="595.612" x2="931.991" gradientTransform="matrix(0.157494 0.127218 -0.123223 0.166903 551.656 169.577)" id="LinearGradient_3">
<stop offset="0.0578512" stop-color="#ababab" stop-opacity="0.54054"/>
<stop stop-color="#000000" offset="0.902893" stop-opacity="0.923423"/>
</linearGradient>
<linearGradient y2="595.612" x2="931.991" y1="515.085" id="LinearGradient_4" gradientUnits="userSpaceOnUse" gradientTransform="matrix(0.157494 0.127218 -0.123223 0.166903 685.232 131.086)" x1="602.193">
<stop stop-color="#ababab" offset="0.0578512" stop-opacity="0.54054"/>
<stop offset="0.902893" stop-opacity="0.923423" stop-color="#000000"/>
</linearGradient>
<linearGradient x2="931.991" y1="515.085" gradientTransform="matrix(0.157494 0.127218 -0.123223 0.166903 302.236 252.949)" gradientUnits="userSpaceOnUse" x1="602.193" y2="595.612" id="LinearGradient_5">
<stop stop-opacity="0.54054" offset="0.0578512" stop-color="#ababab"/>
<stop stop-opacity="0.923423" stop-color="#000000" offset="0.902893"/>
</linearGradient>
<linearGradient y2="595.612" gradientTransform="matrix(0.157494 0.127218 -0.123223 0.166903 395.518 79.5467)" gradientUnits="userSpaceOnUse" x1="602.193" id="LinearGradient_6" y1="515.085" x2="931.991">
<stop offset="0.0578512" stop-color="#ababab" stop-opacity="0.54054"/>
<stop stop-color="#000000" stop-opacity="0.923423" offset="0.902893"/>
</linearGradient>
<linearGradient id="LinearGradient_7" gradientUnits="userSpaceOnUse" x1="462.23" gradientTransform="matrix(1.18216 0 0 1.15608 -110.335 -162.086)" y1="253.071" x2="592.06" y2="665.922">
<stop stop-opacity="0.124716" offset="0.126033" stop-color="#fffbe3"/>
<stop offset="0.838843" stop-opacity="0.370841" stop-color="#c0baaa"/>
</linearGradient>
<g>
<g opacity="1">
<path opacity="1" d="M410.811+402.888C365.051+391.422+318.929+419.914+307.796+466.528C296.662+513.142+324.732+560.226+370.492+571.693C416.252+583.16+462.374+554.667+473.507+508.053C484.641+461.439+456.571+414.355+410.811+402.888Z" fill="#ff8faa"/>
<path d="M441.517+418.737C436.225+414.462+430.606+410.954+424.79+408.148C453.848+439.272+457.692+488.253+432.034+523.006C407.906+555.687+365.546+565.135+330.531+548.24C333.336+551.244+336.359+554.097+339.631+556.74C376.793+586.758+429.725+580.194+457.86+542.086C485.996+503.977+478.679+448.755+441.517+418.737Z" fill="url(#LinearGradient)" opacity="0.3"/>
<path d="M356.014+431.266L356.014+431.266C357.122+433.471+355.968+436.892+353.437+438.907L344.74+445.83C342.208+447.845+339.258+447.692+338.149+445.487L338.149+445.487C337.041+443.282+338.195+439.861+340.727+437.846L349.424+430.923C351.956+428.908+354.906+429.061+356.014+431.266Z" opacity="1" fill="#ffffff"/>
<path d="M372.676+422.616L372.676+422.616C373.757+424.31+373.324+426.612+371.71+427.759L370.787+428.414C369.172+429.561+366.987+429.118+365.906+427.424L365.906+427.424C364.825+425.731+365.258+423.428+366.872+422.282L367.795+421.626C369.409+420.479+371.594+420.923+372.676+422.616Z" fill="#ffffff" opacity="1"/>
</g>
<g opacity="1">
<path opacity="1" fill="#ff9373" d="M680.907+431.82C635.147+420.353+589.026+448.845+577.892+495.46C566.759+542.074+594.829+589.158+640.589+600.624C686.349+612.091+732.47+583.599+743.604+536.984C754.737+490.37+726.667+443.286+680.907+431.82Z"/>
<path opacity="0.3" d="M711.614+447.668C706.321+443.393+700.702+439.885+694.887+437.079C723.945+468.203+727.789+517.184+702.131+551.937C678.003+584.618+635.643+594.066+600.627+577.171C603.432+580.176+606.456+583.028+609.728+585.671C646.889+615.689+699.822+609.125+727.957+571.017C756.092+532.908+748.775+477.686+711.614+447.668Z" fill="url(#LinearGradient_2)"/>
<path opacity="1" d="M626.111+460.197L626.111+460.197C627.219+462.402+626.065+465.823+623.533+467.838L614.836+474.761C612.305+476.777+609.354+476.623+608.246+474.418L608.246+474.418C607.138+472.213+608.292+468.793+610.824+466.777L619.521+459.854C622.052+457.839+625.003+457.993+626.111+460.197Z" fill="#ffffff"/>
<path d="M642.772+451.547L642.772+451.547C643.853+453.241+643.421+455.543+641.806+456.69L640.883+457.346C639.269+458.492+637.084+458.049+636.003+456.356L636.003+456.356C634.922+454.662+635.354+452.36+636.969+451.213L637.892+450.557C639.506+449.411+641.691+449.854+642.772+451.547Z" fill="#ffffff" opacity="1"/>
</g>
<g opacity="1">
<path opacity="1" d="M584.977+237.529C539.217+226.062+493.096+254.554+481.962+301.169C470.828+347.783+498.899+394.867+544.659+406.333C590.419+417.8+636.54+389.308+647.674+342.693C658.807+296.079+630.737+248.995+584.977+237.529Z" fill="#df9efe"/>
<path d="M615.684+253.377C610.391+249.102+604.772+245.594+598.957+242.788C628.014+273.912+631.859+322.893+606.2+357.646C582.072+390.327+539.713+399.775+504.697+382.88C507.502+385.885+510.525+388.737+513.797+391.38C550.959+421.398+603.891+414.834+632.027+376.726C660.162+338.618+652.845+283.395+615.684+253.377Z" opacity="0.3" fill="url(#LinearGradient_3)"/>
<path opacity="1" fill="#ffffff" d="M530.181+265.907L530.181+265.907C531.289+268.111+530.135+271.532+527.603+273.547L518.906+280.471C516.374+282.486+513.424+282.332+512.316+280.127L512.316+280.127C511.208+277.923+512.362+274.502+514.893+272.486L523.591+265.563C526.122+263.548+529.073+263.702+530.181+265.907Z"/>
<path d="M546.842+257.256L546.842+257.256C547.923+258.95+547.491+261.252+545.876+262.399L544.953+263.055C543.339+264.201+541.154+263.758+540.073+262.065L540.073+262.065C538.992+260.371+539.424+258.069+541.038+256.922L541.961+256.266C543.576+255.12+545.761+255.563+546.842+257.256Z" opacity="1" fill="#ffffff"/>
</g>
<g opacity="1">
<path fill="#84c3ff" d="M718.553+199.038C672.793+187.571+626.672+216.064+615.538+262.678C604.405+309.292+632.475+356.376+678.235+367.843C723.995+379.31+770.116+350.817+781.25+304.203C792.384+257.589+764.313+210.505+718.553+199.038Z" opacity="1"/>
<path opacity="0.3" d="M749.26+214.887C743.967+210.611+738.348+207.104+732.533+204.298C761.591+235.422+765.435+284.402+739.777+319.156C715.649+351.837+673.289+361.285+638.273+344.389C641.079+347.394+644.102+350.247+647.374+352.889C684.535+382.907+737.468+376.344+765.603+338.235C793.738+300.127+786.422+244.904+749.26+214.887Z" fill="url(#LinearGradient_4)"/>
<path opacity="1" d="M663.757+227.416L663.757+227.416C664.865+229.621+663.711+233.042+661.18+235.057L652.482+241.98C649.951+243.995+647+243.841+645.892+241.637L645.892+241.637C644.784+239.432+645.938+236.011+648.47+233.996L657.167+227.073C659.699+225.057+662.649+225.211+663.757+227.416Z" fill="#ffffff"/>
<path fill="#ffffff" opacity="1" d="M680.418+218.766L680.418+218.766C681.499+220.459+681.067+222.762+679.453+223.908L678.53+224.564C676.915+225.711+674.73+225.268+673.649+223.574L673.649+223.574C672.568+221.881+673+219.578+674.615+218.431L675.538+217.776C677.152+216.629+679.337+217.072+680.418+218.766Z"/>
</g>
<g opacity="1">
<path d="M335.557+320.9C289.797+309.433+243.676+337.926+232.542+384.54C221.409+431.154+249.479+478.238+295.239+489.705C340.999+501.172+387.12+472.679+398.254+426.065C409.387+379.451+381.317+332.367+335.557+320.9Z" opacity="1" fill="#65ffb3"/>
<path fill="url(#LinearGradient_5)" d="M366.264+336.749C360.971+332.474+355.352+328.966+349.537+326.16C378.595+357.284+382.439+406.265+356.781+441.018C332.652+473.699+290.293+483.147+255.277+466.252C258.082+469.256+261.106+472.109+264.377+474.752C301.539+504.769+354.472+498.206+382.607+460.098C410.742+421.989+403.425+366.767+366.264+336.749Z" opacity="0.3"/>
<path fill="#ffffff" opacity="1" d="M280.761+349.278L280.761+349.278C281.869+351.483+280.715+354.904+278.183+356.919L269.486+363.842C266.954+365.857+264.004+365.704+262.896+363.499L262.896+363.499C261.788+361.294+262.942+357.873+265.473+355.858L274.171+348.935C276.702+346.92+279.653+347.073+280.761+349.278Z"/>
<path fill="#ffffff" d="M297.422+340.628L297.422+340.628C298.503+342.322+298.071+344.624+296.456+345.771L295.533+346.426C293.919+347.573+291.734+347.13+290.653+345.436L290.653+345.436C289.572+343.743+290.004+341.44+291.618+340.294L292.541+339.638C294.156+338.491+296.341+338.934+297.422+340.628Z" opacity="1"/>
</g>
<g opacity="1">
<path fill="#fff165" d="M428.839+147.498C383.079+136.032+336.958+164.524+325.824+211.138C314.691+257.752+342.761+304.836+388.521+316.303C434.281+327.77+480.402+299.277+491.536+252.663C502.669+206.049+474.599+158.965+428.839+147.498Z" opacity="1"/>
<path d="M459.546+163.347C454.253+159.072+448.634+155.564+442.819+152.758C471.877+183.882+475.721+232.863+450.063+267.616C425.935+300.297+383.575+309.745+348.559+292.85C351.364+295.854+354.388+298.707+357.659+301.35C394.821+331.367+447.754+324.804+475.889+286.696C504.024+248.587+496.707+193.365+459.546+163.347Z" fill="url(#LinearGradient_6)" opacity="0.3"/>
<path opacity="1" d="M374.043+175.876L374.043+175.876C375.151+178.081+373.997+181.502+371.465+183.517L362.768+190.44C360.236+192.455+357.286+192.302+356.178+190.097L356.178+190.097C355.07+187.892+356.224+184.471+358.755+182.456L367.453+175.533C369.984+173.518+372.935+173.671+374.043+175.876Z" fill="#ffffff"/>
<path opacity="1" d="M390.704+167.226L390.704+167.226C391.785+168.92+391.353+171.222+389.738+172.369L388.815+173.024C387.201+174.171+385.016+173.728+383.935+172.034L383.935+172.034C382.854+170.341+383.286+168.038+384.9+166.892L385.823+166.236C387.438+165.089+389.623+165.533+390.704+167.226Z" fill="#ffffff"/>
</g>
<path fill="url(#LinearGradient_7)" stroke="#ceccc6" stroke-linecap="round" stroke-width="24.1144" d="M556.835+68.9817L556.835+68.9817C733.44+91.9327+857.888+248.296+834.797+418.228L834.019+423.952C810.928+593.885+649.042+713.036+472.437+690.085L472.437+690.085C295.832+667.134+171.384+510.772+194.476+340.839L195.254+335.115C218.345+165.183+380.23+46.0307+556.835+68.9817Z" opacity="1" stroke-linejoin="round"/>
<path fill="#e44a4c" opacity="1" d="M312.751+900.147L312.751+702.753C312.751+679.478+328.966+660.61+348.968+660.61L677.94+660.61C697.942+660.61+714.157+679.478+714.157+702.753L714.157+900.147C714.157+923.423+697.942+942.291+677.94+942.291L348.968+942.291C328.966+942.291+312.751+923.423+312.751+900.147Z"/>
<path opacity="1" d="M575.99+792.55L665.451+792.55C677.988+792.55+688.151+803.86+688.151+817.81L688.151+884.014C688.151+897.965+677.988+909.274+665.451+909.274L575.99+909.274C563.453+909.274+553.29+897.965+553.29+884.014L553.29+817.81C553.29+803.86+563.453+792.55+575.99+792.55Z" fill="#4a90e4"/>
<path fill="#f96f71" d="M396.167+705.078L399.56+705.078C427.674+705.078+450.464+728.422+450.464+757.217L450.464+757.217C450.464+786.013+427.674+809.357+399.56+809.357L396.167+809.357C368.054+809.357+345.264+786.013+345.264+757.217L345.264+757.217C345.264+728.422+368.054+705.078+396.167+705.078Z" opacity="1"/>
<path opacity="1" d="M621.146+691.711L626.02+691.711C649.238+691.711+668.06+710.99+668.06+734.772L668.06+734.772C668.06+758.554+649.238+777.833+626.02+777.833L621.146+777.833C597.928+777.833+579.105+758.554+579.105+734.772L579.105+734.772C579.105+710.99+597.928+691.711+621.146+691.711Z" fill="#b9b9b9"/>
<path fill="#4c4d4d" opacity="1" d="M621.819+693.275L621.819+693.275C627.023+693.275+631.241+694.831+631.241+696.751L631.241+773.222C631.241+775.142+627.023+776.698+621.819+776.698L621.819+776.698C616.616+776.698+612.398+775.142+612.398+773.222L612.398+696.751C612.398+694.831+616.616+693.275+621.819+693.275Z"/>
<path fill="#828282" d="M638.944+756.332L638.944+756.332L638.944+758.07L638.944+758.07L638.944+756.332Z" opacity="1"/>
<path d="M398.438+746.156C392.47+746.784+387.573+751.545+386.969+757.75C386.969+761.481+386.888+765.213+387.156+768.938C387.294+770.853+387.715+772.722+387.906+774.625C388.142+776.978+388.481+779.289+388.625+781.656C389.05+788.644+388.979+795.659+389+802.656C388.651+806.235+391.265+809.433+394.844+809.781C398.423+810.13+401.62+807.517+401.969+803.938C403.34+797.076+404.609+790.181+406.375+783.406C406.857+781.558+407.481+779.781+408.062+777.969C408.351+777.068+408.573+776.135+408.906+775.25C409.414+773.899+409.901+772.584+410.281+771.188C411.263+767.584+411.905+763.911+412.625+760.25C413.316+753.158+408.123+746.847+401.031+746.156C400.145+746.07+399.29+746.067+398.438+746.156Z" fill="#4a90e4" opacity="1"/>
</g>
</svg>
