<?xml version="1.0" encoding="UTF-8" standalone="no"?> <!-- Created with Vectornator for iOS (http://vectornator.io/) --><!DOCTYPE svg PUBLIC "-//W3C//DTD SVG 1.1//EN" "http://www.w3.org/Graphics/SVG/1.1/DTD/svg11.dtd">
<svg version="1.1" width="1em"  viewBox="0 0 1024 1024" xmlns="http://www.w3.org/2000/svg" height="1em">
<g>
<path opacity="1" d="M101.056+154.849L917.841+154.849C939.514+154.849+957.082+171.734+957.082+192.564L957.082+823.027C957.082+843.857+939.514+860.742+917.841+860.742L101.056+860.742C79.3835+860.742+61.8146+843.857+61.8146+823.027L61.8146+192.564C61.8146+171.734+79.3835+154.849+101.056+154.849Z" fill="#61390e"/>
<path fill="#00641d" opacity="1" d="M139.952+192.785L878.945+192.785C898.553+192.785+914.449+207.595+914.449+225.865L914.449+778.834C914.449+797.103+898.553+811.913+878.945+811.913L139.952+811.913C120.344+811.913+104.449+797.103+104.449+778.834L104.449+225.865C104.449+207.595+120.344+192.785+139.952+192.785Z"/>
<path d="M101.017+787.252L917.88+787.252C924.269+787.252+929.449+792.624+929.449+799.252L929.449+814.258C929.449+820.885+924.269+826.258+917.88+826.258L101.017+826.258C94.6277+826.258+89.4485+820.885+89.4485+814.258L89.4485+799.252C89.4485+792.624+94.6277+787.252+101.017+787.252Z" opacity="1" fill="#8c8f96"/>
<path fill="#ccd9de" d="M729.137+736.349L823.765+736.349C829.256+736.349+833.708+741.24+833.708+747.273L833.708+787.541C833.708+793.574+829.256+798.465+823.765+798.465L729.137+798.465C723.645+798.465+719.193+793.574+719.193+787.541L719.193+747.273C719.193+741.24+723.645+736.349+729.137+736.349Z" opacity="1"/>
<path d="M761.787+758.314L794.299+758.314C798.294+758.314+801.533+761.553+801.533+765.549L801.533+769.745C801.533+773.74+798.294+776.979+794.299+776.979L761.787+776.979C757.791+776.979+754.552+773.74+754.552+769.745L754.552+765.549C754.552+761.553+757.791+758.314+761.787+758.314Z" fill="#bce6fb" opacity="1"/>
<path d="M164.839+314.068C167.078+318.546+140.873+322.183+189.19+323.434C320.408+326.831+623.302+319.708+666.849+317.815C677.886+317.335+857.912+322.203+857.912+305.951" fill="#ffffff" opacity="1"/>
<path fill="#ffffff" opacity="1" d="M174.205+421.463C174.205+421.463+135.253+431.452+183.571+432.702C288.2+435.411+469.398+428.518+573.815+425.834C600.349+425.152+652.406+427.467+661.229+427.083C672.266+426.603+840.429+430.847+840.429+414.595"/>
<path fill="#ffffff" opacity="1" d="M148.605+523.239C150.844+527.717+137.126+531.354+185.444+532.605C316.662+536.002+726.951+525.757+770.498+523.863C781.535+523.384+864.156+532.622+864.156+516.371"/>
<path opacity="1" fill="#ffffff" d="M161.717+632.507C163.956+636.985+148.365+639.998+196.683+641.249C327.901+644.646+630.795+637.523+674.341+635.629C680.978+635.341+777.482+633.434+830.439+631.259C865.557+629.816+865.405+630.246+865.405+623.766"/>
<path opacity="1" d="M197.932+107.395C198.764+106.146+199.597+104.898+200.429+103.649" fill="#ffffff"/>
<path opacity="1" fill="#ffffff" d="M251.908+249.877C251.073+253.166+259.391+254.24+259.703+263C260.636+289.253+260.817+389.38+260.549+397.794C259.753+422.739+260.435+442.182+261.321+467.101C261.74+478.89+262.201+490.616+262.012+502.383C261.927+507.664+261.982+533.263+262.253+540.895C262.702+553.502+263.15+566.108+263.598+578.715C263.821+584.989+264.668+591.682+264.282+597.945C262.661+624.2+265.08+650.763+263.145+676.971C262.813+681.462+264.349+701.312+263.63+706.483C263.134+710.054+265.43+737.974+264.861+741.098C264.033+745.646+259.534+738.173+258.716+742.665"/>
<path fill="#ffffff" d="M369.917+245.506C369.083+248.795+377.401+249.869+377.712+258.63C378.646+284.883+378.827+385.01+378.558+393.423C377.763+418.368+378.445+437.812+379.331+462.73C379.75+474.519+380.211+486.245+380.022+498.012C379.937+503.293+379.992+528.893+380.263+536.524C380.711+549.131+381.16+561.737+381.608+574.344C381.831+580.618+382.678+587.311+382.291+593.574C380.671+619.829+383.09+646.392+381.155+672.6C380.823+677.091+382.359+696.942+381.64+702.112C381.144+705.683+383.44+733.603+382.871+736.727C382.042+741.275+377.543+733.802+376.725+738.294" opacity="1"/>
<path d="M492.298+239.262C491.463+242.551+499.781+243.625+500.093+252.386C501.026+278.639+501.207+378.766+500.939+387.18C500.143+412.124+500.826+431.568+501.711+456.486C502.131+468.275+502.591+480.001+502.402+491.768C502.317+497.049+502.372+522.649+502.644+530.28C503.092+542.887+503.54+555.493+503.988+568.1C504.211+574.374+505.058+581.067+504.672+587.33C503.051+613.585+505.47+640.148+503.535+666.356C503.204+670.848+504.739+690.698+504.021+695.868C503.525+699.439+505.82+727.36+505.251+730.483C504.423+735.031+499.924+727.558+499.106+732.05" opacity="1" fill="#ffffff"/>
<path d="M614.678+238.638C613.844+241.927+622.162+243.001+622.473+251.761C623.407+278.014+623.588+378.141+623.319+386.555C622.524+411.5+623.206+430.943+624.092+455.862C624.511+467.651+624.971+479.377+624.783+491.143C624.698+496.425+624.753+522.024+625.024+529.656C625.472+542.262+625.921+554.869+626.369+567.476C626.592+573.75+627.439+580.443+627.052+586.706C625.432+612.961+627.851+639.524+625.916+665.732C625.584+670.223+627.119+690.073+626.401+695.244C625.905+698.815+628.201+726.735+627.632+729.859C626.803+734.407+622.304+726.934+621.486+731.426" fill="#ffffff" opacity="1"/>
<path d="M737.683+237.389C736.849+240.678+745.167+241.752+745.478+250.513C746.412+276.765+746.592+376.893+746.324+385.306C745.529+410.251+746.211+429.694+747.097+454.613C747.516+466.402+747.976+478.128+747.787+489.895C747.703+495.176+747.758+520.775+748.029+528.407C748.477+541.014+748.925+553.62+749.374+566.227C749.597+572.501+750.444+579.194+750.057+585.457C748.437+611.712+750.855+638.275+748.921+664.483C748.589+668.974+750.124+688.825+749.406+693.995C748.91+697.566+751.205+725.486+750.637+728.61C749.808+733.158+745.309+725.685+744.491+730.177" opacity="1" fill="#ffffff"/>
<path opacity="1" d="M202.612+342.847L215.325+342L218.715+403.302L228.32+408.104" fill="#00641d"/>
<path stroke-width="4.38196" opacity="1" stroke-linecap="round" fill="#ffffff" stroke="#fcfcfc" stroke-linejoin="round" d="M215.137+343.015L216.802+394.805L223.567+394.805L224.503+399.665L205.355+399.281L204.834+394.422L210.142+393.655L209.621+350.943L203.012+352.939L201.826+349.444C201.826+349.444+202.986+348.16+206.03+346.672C209.074+345.183+211.719+342.73+215.076+343.01L215.137+343.015Z"/>
<path opacity="1" d="M180.415+461.135L193.071+448.926L209.003+444.459L221.659+448.479L231.04+457.264L232.38+475.578L228.658+484.959L215.108+494.637L203.047+499.551L213.47+499.848L225.531+499.253L233.571+499.848L235.06+504.018L234.167+508.782L182.797+509.08L182.5+498.211L183.393+493.595L188.902+491.51L194.411+489.575L202.154+487.043L208.259+484.363" fill="#00641d"/>
<path d="M193.738+459.745L195.861+457.463C196.178+457.123+196.729+456.661+197.092+456.432L199.876+454.671C200.239+454.441+200.849+454.164+201.239+454.053L204.087+453.237C204.477+453.125+205.116+453.042+205.513+453.05L207.632+453.096C208.03+453.104+208.664+453.225+209.05+453.365L211.214+454.153C211.599+454.294+212.202+454.603+212.561+454.845L214.659+456.257C215.018+456.499+215.588+456.923+215.932+457.203L217.642+458.598C217.987+458.878+218.47+459.459+218.721+459.895L220.89+463.658C221.142+464.094+221.387+464.678+221.439+464.962C221.439+464.962+222.229+469.329+222.218+469.411C221.91+471.588+221.191+473.983+221.191+473.983L220.362+477.164C220.225+477.692+219.865+478.41+219.559+478.769L213.842+485.454C213.536+485.812+213.012+486.339+212.671+486.63L210.003+488.914C209.662+489.205+209.092+489.627+208.729+489.856L205.219+492.074C204.856+492.303+204.256+492.632+203.878+492.808L200.575+494.347C200.198+494.523+200.213+494.69+200.611+494.719L206.769+495.174L212.073+495.277L221.888+495.658L224.26+495.81L225.591+495.909C225.988+495.939+226.336+496.417+226.368+496.978L226.629+501.506C226.661+502.066+226.365+502.512+225.967+502.502L196.095+501.724C195.697+501.714+195.359+501.25+195.339+500.689L195.051+492.417C195.032+491.856+195.089+490.971+195.179+490.442C195.179+490.442+195.375+489.295+195.375+489.296C195.441+489.338+201.341+486.976+201.341+486.976C201.461+486.928+201.857+486.719+202.226+486.509L204.772+485.059C205.141+484.848+205.728+484.471+206.082+484.216L208.298+482.619L210.744+480.678C211.091+480.403+211.602+479.86+211.886+479.466L213.824+476.775C214.108+476.381+214.468+475.645+214.629+475.131L215.287+473.028C215.448+472.514+215.574+471.919+215.57+471.7C215.57+471.7+215.419+465.089+215.34+464.912C214.177+462.281+211.371+460.926+211.371+460.926L204.781+459.601C204.49+459.648+202.189+461.146+201.439+461.632C200.689+462.118+200.057+462.367+199.784+462.516L197.897+464.29C197.566+464.601+197.043+465.133+196.728+465.477L195.71+466.594C195.395+466.938+194.836+467.368+194.461+467.555L192.908+468.328C192.533+468.515+191.967+468.4+191.643+468.072L190.333+466.743C190.01+466.415+189.924+465.768+190.14+465.296L191.459+462.428C191.675+461.957+192.117+461.317+192.445+460.999L193.738+459.745Z" stroke-linejoin="round" opacity="1" stroke-width="2.99039" stroke-linecap="round" fill="#fafafa" stroke="#fcfcfc"/>
<path d="M172.904+553.906L177.951+561.247L185.293+556.429L192.176+553.562L200.894+551.038L209.267+553.791L212.25+559.412L213.053+565.606L213.512+571.456L212.479+577.192L208.694+580.863L202.041+582.01L193.781+581.551L185.178+578.454" fill="#00641d" opacity="1"/>
<path stroke-width="2.99039" stroke-linecap="round" stroke-linejoin="round" opacity="1" stroke="#fcfcfc" fill="#fafafa" d="M218.738+560.949L220.809+563.5C221.224+564.011+221.453+564.943+221.322+565.581L221.054+566.879C220.922+567.517+220.569+568.505+220.265+569.085L218.984+571.531C218.68+572.112+218.063+572.969+217.607+573.445L216.357+574.75C215.9+575.227+215.016+575.787+214.382+576.001L213.254+576.381C212.62+576.595+211.575+576.882+210.919+577.022L208.9+577.453C208.245+577.593+207.17+577.707+206.499+577.707L204.686+577.707C204.015+577.707+202.928+577.747+202.259+577.797L201.779+577.833C201.11+577.883+200.543+578.45+200.513+579.1L200.398+581.582C200.368+582.232+200.454+583.276+200.589+583.913L200.62+584.059C200.755+584.697+201.407+585.254+202.077+585.304L202.557+585.34C203.226+585.389+204.312+585.43+204.983+585.43L206.573+585.43C207.244+585.43+208.323+585.529+208.982+585.65L211.284+586.076C211.944+586.197+212.984+586.491+213.608+586.73L215.666+587.522C216.29+587.762+217.09+588.4+217.454+588.947L218.296+590.214C218.66+590.761+219.06+591.722+219.189+592.36L219.688+594.812C219.817+595.451+219.817+596.486+219.688+597.124L219.264+599.215C219.134+599.854+218.624+600.723+218.125+601.158L217.03+602.11C216.531+602.545+215.583+602.931+214.913+602.973L210.415+603.255C209.746+603.297+208.675+603.201+208.024+603.042L203.309+601.887C202.658+601.727+201.759+601.213+201.3+600.738L199.686+599.066C199.227+598.591+198.423+598.526+197.89+598.921L196.024+600.305C195.491+600.7+195.351+601.466+195.712+602.014L197.681+605.008C198.041+605.556+198.83+606.217+199.443+606.483L203.702+608.334C204.314+608.6+205.347+608.903+206.009+609.01L210.758+609.777C211.42+609.884+212.499+609.924+213.167+609.866L215.734+609.643C216.403+609.585+217.446+609.332+218.064+609.078L220.218+608.193C220.836+607.939+221.639+607.295+222.011+606.753L223.64+604.383C224.013+603.842+224.49+602.903+224.706+602.287L226.305+597.733C226.521+597.117+226.656+596.092+226.606+595.443L226.415+592.957C226.365+592.308+226.05+591.326+225.711+590.765L224.63+588.973C224.291+588.412+223.614+587.602+223.117+587.165L221.716+585.933C221.219+585.496+220.369+584.839+219.819+584.467L218.611+583.65C218.061+583.278+217.1+582.804+216.466+582.592L214.446+581.916C213.811+581.704+212.757+581.468+212.091+581.389L210.26+581.171C209.594+581.091+209.582+580.9+210.233+580.743L216.584+579.217C217.235+579.061+218.214+578.639+218.771+578.275L219.734+577.644C220.29+577.28+221.152+576.639+221.66+576.213L223.173+574.942C223.68+574.515+224.349+573.705+224.667+573.132L225.078+572.392C225.396+571.819+225.726+570.832+225.814+570.187L226.165+567.615C226.253+566.97+226.123+565.957+225.875+565.352L224.019+560.829C223.771+560.224+223.165+559.382+222.665+558.948L219.488+556.189C218.988+555.755+218.079+555.202+217.459+554.954L213.75+553.471C213.13+553.222+212.084+552.982+211.415+552.933L206.916+552.604C206.246+552.556+205.178+552.653+204.53+552.821L200.773+553.799C200.125+553.967+199.294+554.54+198.916+555.078L197.068+557.713L195.626+559.961C195.272+560.513+195.394+561.308+195.9+561.735L196.971+562.641C197.477+563.068+198.268+563.038+198.738+562.573L200.536+560.792C201.006+560.327+201.856+559.685+202.436+559.357L204.803+558.018C205.383+557.69+206.396+557.399+207.066+557.368L210.818+557.192C211.488+557.161+212.518+557.371+213.118+557.662L216.9+559.496C217.5+559.787+218.323+560.437+218.738+560.949Z"/>
<path d="M211.059+656.928L221.273+657.459L221.008+687.571L235.998+688.234L237.059+694.734L236.794+700.571L219.682+700.704L219.549+723.388L208.008+722.724L206.814+700.704L178.294+698.714L178.028+687.969L211.059+656.928Z" fill="#00641d" opacity="1"/>
<path opacity="1" d="M222.267+713.059L221.964+705.158C221.868+702.66+223.817+700.656+226.317+700.683L228.331+700.704C230.831+700.731+232.882+698.726+232.911+696.226L232.913+696.099C232.942+693.599+230.944+691.438+228.449+691.272L226.849+691.166C224.355+691+222.347+688.839+222.365+686.339L222.517+665.381C222.535+662.88+220.524+660.771+218.026+660.669L215.571+660.568C213.073+660.466+209.754+661.943+208.158+663.867L189.632+686.205C188.036+688.129+186.698+691.715+186.645+694.215L186.622+695.285C186.568+697.784+188.551+699.839+191.051+699.875L206.955+700.1C209.455+700.135+211.606+702.187+211.759+704.682L212.289+713.3C212.442+715.795+214.593+717.77+217.092+717.71L217.915+717.69C220.415+717.631+222.363+715.557+222.267+713.059Z" stroke-linejoin="round" stroke="#fcfcfc" stroke-width="1.025" fill="#fafafa" stroke-linecap="round"/>
<path d="M200.772+690.632C205.711+690.236+197.174+691.244+196.838+690.02C196.585+689.094+199.339+686.419+199.339+686.419L211.844+673.409C212.918+672.25+213.778+672.702+213.764+674.421C213.764+674.421+213.818+688.2+213.822+689.299C213.826+690.399+213.395+690.884+213.395+690.884" opacity="1" fill="#00641d"/>
<g opacity="1">
<path opacity="1" stroke-linejoin="round" stroke-linecap="round" stroke-width="0.536982" stroke="#ffffff" fill="#f7f7f7" d="M334.666+296.259L334.666+292.459L308.316+292.459L308.316+289.859L333.066+289.859L333.066+280.159L303.116+280.159L303.116+283.959L327.866+283.959L327.866+286.409L303.216+286.409L303.216+296.259L334.666+296.259ZM320.566+259.109C320.566+254.509+315.816+251.759+309.766+251.759C303.616+251.759+298.766+254.609+298.766+259.009C298.766+263.559+303.616+266.409+309.766+266.409C315.816+266.409+320.566+263.559+320.566+259.109ZM318.916+276.859L327.916+276.859L327.916+278.459L333.066+278.459L333.066+251.659L327.916+251.659L327.916+273.309L318.916+273.309L318.916+276.859ZM311.866+278.459L311.866+272.159C316.316+271.909+320.716+271.509+325.116+271.009L324.766+267.159C320.766+267.609+316.066+268.009+310.116+268.259C305.216+268.409+300.366+268.459+295.316+268.459L296.016+272.659C299.566+272.659+303.166+272.559+306.716+272.409L306.716+278.459L311.866+278.459ZM315.566+259.059C315.566+261.259+313.116+262.559+309.766+262.559C306.316+262.559+303.966+261.259+303.966+259.059C303.966+256.859+306.316+255.509+309.766+255.509C313.166+255.509+315.566+256.859+315.566+259.059Z"/>
</g>
<g opacity="1">
<path opacity="1" fill="#ffffff" d="M443.886+285.007C440.936+285.357+437.186+285.657+432.736+285.957L432.736+282.057C437.436+281.207+440.536+278.357+440.536+274.707C440.536+270.307+436.086+267.207+429.736+267.207C423.436+267.207+418.936+270.307+418.936+274.707C418.936+278.557+422.436+281.507+427.586+282.157L427.586+286.157C423.436+286.307+419.386+286.307+415.586+286.307L416.286+290.557C425.586+290.507+435.236+290.157+444.286+288.957L443.886+285.007ZM451.586+252.907L446.486+252.907L446.486+297.457L451.586+297.457L451.586+276.107L457.936+276.107L457.936+271.857L451.586+271.857L451.586+252.907ZM442.486+265.607L442.486+261.607L416.736+261.607L416.736+265.607L442.486+265.607ZM435.236+274.707C435.236+276.757+432.936+278.207+429.736+278.207C426.586+278.207+424.236+276.757+424.236+274.707C424.236+272.657+426.586+271.157+429.736+271.157C432.936+271.157+435.236+272.657+435.236+274.707ZM423.186+259.107L436.186+259.107L436.186+255.107L423.186+255.107L423.186+259.107Z"/>
</g>
<g opacity="1">
<path fill="#ffffff" d="M561.929+295.634L561.929+279.434L579.579+279.434L579.579+275.384L539.329+275.384L539.329+279.434L556.829+279.434L556.829+295.634L561.929+295.634ZM577.879+266.834C570.679+266.134+562.229+260.684+562.229+254.284L562.229+252.034L556.829+252.034L556.829+254.284C556.829+260.684+549.179+265.934+541.279+266.834L543.529+271.034C550.279+269.834+557.529+265.534+559.479+260.584C561.729+265.534+568.929+269.884+575.529+270.984L577.879+266.834Z" opacity="1"/>
</g>
<g opacity="1">
<path fill="#ffffff" d="M698.17+268.06L698.17+252.56L668.62+252.56L668.62+268.06L680.77+268.06L680.77+272.81L663.27+272.81L663.27+276.96L703.52+276.96L703.52+272.81L685.87+272.81L685.87+268.06L698.17+268.06ZM667.97+281.01L667.97+285.16L693.22+285.16L693.22+296.11L698.32+296.11L698.32+281.01L667.97+281.01ZM693.02+263.96L673.77+263.96L673.77+256.71L693.02+256.71L693.02+263.96Z" opacity="1"/>
</g>
<g opacity="1">
<path d="M816.715+297.532L816.715+281.182L786.765+281.182L786.765+297.532L816.715+297.532ZM816.565+255.432L786.765+255.432L786.765+259.532L811.465+259.532C811.415+263.032+810.965+268.432+810.265+271.482L781.615+271.482L781.615+275.632L821.865+275.632L821.865+271.482L815.165+271.482C816.115+267.132+816.565+261.382+816.565+255.432ZM811.615+293.432L791.865+293.432L791.865+285.182L811.615+285.182L811.615+293.432Z" opacity="1" fill="#ffffff"/>
</g>
<path d="M846.265+778.555L906.834+778.555C909.764+778.555+912.14+780.784+912.14+783.534L912.14+785.656C912.14+788.405+909.764+790.634+906.834+790.634L846.265+790.634C843.335+790.634+840.959+788.405+840.959+785.656L840.959+783.534C840.959+780.784+843.335+778.555+846.265+778.555Z" fill="#fefefe" opacity="1"/>
</g>
</svg>
