<svg version="1.1" xmlns="http://www.w3.org/2000/svg" viewBox="0 0 1024 1024"  height="1em" width="1em">
<g>
<path d="M723.009 949.816L906.324 764.744C911.637 759.379 915.945 748.909 915.945 741.358L915.945 207.982C915.945 175.781 889.841 149.677 857.641 149.677L230.337 149.677C198.137 149.677 172.033 175.781 172.033 207.982L172.033 898.51C172.033 930.711 198.137 956.815 230.337 956.815L699.716 958.453C707.267 958.496 717.695 955.181 723.009 949.816Z" fill="#ffd668" opacity="1"/>
<path d="M906.059 762.397C874.713 777.663 848.281 768.543 766.119 758.185C736.919 754.504 721.672 778.273 721.642 802.808C721.642 802.808 716.408 951.832 711.105 956.182C709.853 957.208 709.65 957.047 713.103 955.803C749.305 942.771 906.172 765.233 906.172 765.233C910.45 759.281 911.62 759.688 906.059 762.397Z" fill="#f1ba29" opacity="1"/>
<path d="M684.085 903.637L867.399 718.565C872.713 713.2 877.021 702.73 877.021 695.179L877.021 161.803C877.021 129.602 850.917 103.499 818.717 103.499L191.413 103.499C159.212 103.499 133.109 129.602 133.109 161.803L133.109 852.332C133.109 884.532 159.212 910.636 191.413 910.636L660.791 912.274C668.342 912.317 678.771 909.002 684.085 903.637Z" fill="#70e6dd" opacity="1"/>
<path d="M867.134 716.218C835.789 731.484 809.356 722.364 727.195 712.006C697.995 708.326 682.747 732.094 682.717 756.629C682.717 756.629 677.484 905.653 672.18 910.003C670.929 911.029 670.726 910.868 674.179 909.624C710.381 896.592 867.248 719.054 867.248 719.054C871.526 713.102 872.696 713.509 867.134 716.218Z" fill="#33bbb1" opacity="1"/>
<path d="M218.016 281.629L270.589 281.629C275.401 281.629 279.302 285.677 279.302 290.671L279.302 341.838C279.302 346.832 275.401 350.88 270.589 350.88L218.016 350.88C213.203 350.88 209.302 346.832 209.302 341.838L209.302 290.671C209.302 285.677 213.203 281.629 218.016 281.629Z" fill="none" opacity="1" stroke="#3b3b3b" stroke-linecap="butt" stroke-linejoin="miter" stroke-width="22"/>
<path d="M219.435 423.43L272.008 423.43C276.82 423.43 280.721 427.478 280.721 432.471L280.721 483.639C280.721 488.632 276.82 492.68 272.008 492.68L219.435 492.68C214.622 492.68 210.721 488.632 210.721 483.639L210.721 432.471C210.721 427.478 214.622 423.43 219.435 423.43Z" fill="none" opacity="1" stroke="#3b3b3b" stroke-linecap="butt" stroke-linejoin="miter" stroke-width="22"/>
<path d="M218.016 567.403L270.589 567.403C275.401 567.403 279.302 571.451 279.302 576.444L279.302 627.612C279.302 632.605 275.401 636.653 270.589 636.653L218.016 636.653C213.203 636.653 209.302 632.605 209.302 627.612L209.302 576.444C209.302 571.451 213.203 567.403 218.016 567.403Z" fill="none" opacity="1" stroke="#3b3b3b" stroke-linecap="butt" stroke-linejoin="miter" stroke-width="22"/>
<path d="M347.989 341.062L797.989 341.768" fill="none" opacity="1" stroke="#3b3b3b" stroke-linecap="round" stroke-linejoin="round" stroke-width="22"/>
<path d="M349.408 482.863L799.408 483.569" fill="none" opacity="1" stroke="#3b3b3b" stroke-linecap="round" stroke-linejoin="round" stroke-width="22"/>
<path d="M347.989 626.836L727.989 627.432" fill="none" opacity="1" stroke="#3b3b3b" stroke-linecap="round" stroke-linejoin="round" stroke-width="22"/>
<g opacity="1">
<path d="M349.69 154.107L421.495 151.61" fill="none" opacity="1" stroke="#3b3b3b" stroke-linecap="round" stroke-linejoin="round" stroke-width="22"/>
<path d="M388.402 165.346L388.154 231.532" fill="none" opacity="1" stroke="#3b3b3b" stroke-linecap="round" stroke-linejoin="round" stroke-width="22"/>
<path d="M449.593 187.227L449.593 187.227C460.972 187.227 470.198 196.997 470.198 209.049L470.198 209.71C470.198 221.762 460.972 231.532 449.593 231.532L449.593 231.532C438.213 231.532 428.988 221.762 428.988 209.71L428.988 209.049C428.988 196.997 438.213 187.227 449.593 187.227Z" fill="none" opacity="1" stroke="#3b3b3b" stroke-linecap="round" stroke-linejoin="round" stroke-width="22"/>
<path d="M647.705 187.227L647.705 187.227C659.085 187.227 668.31 196.997 668.31 209.049L668.31 209.71C668.31 221.762 659.085 231.532 647.705 231.532L647.705 231.532C636.325 231.532 627.1 221.762 627.1 209.71L627.1 209.049C627.1 196.997 636.325 187.227 647.705 187.227Z" fill="none" opacity="1" stroke="#3b3b3b" stroke-linecap="round" stroke-linejoin="round" stroke-width="22"/>
<path d="M592.89 156.605L592.89 230.907" fill="none" opacity="1" stroke="#3b3b3b" stroke-linecap="round" stroke-linejoin="round" stroke-width="22"/>
<path d="M564.746 188.725L572.475 188.725C581.232 188.725 588.331 198.392 588.331 210.316L588.331 210.316C588.331 222.241 581.232 231.907 572.475 231.907L564.746 231.907C555.989 231.907 548.89 222.241 548.89 210.316L548.89 210.316C548.89 198.392 555.989 188.725 564.746 188.725Z" fill="none" opacity="1" stroke="#3b3b3b" stroke-linecap="round" stroke-linejoin="round" stroke-width="22"/>
</g>
<path d="M200.917 261.748L239.799 324.674L301.688 226.933" fill="none" opacity="1" stroke="#3b3b3b" stroke-linecap="round" stroke-linejoin="round" stroke-width="22"/>
<path d="M198.917 403.129L237.799 466.055L299.688 368.313" fill="none" opacity="1" stroke="#3b3b3b" stroke-linecap="round" stroke-linejoin="round" stroke-width="22"/>
<path d="M198.917 546.703L237.799 609.628L299.688 511.887" fill="none" opacity="1" stroke="#3b3b3b" stroke-linecap="round" stroke-linejoin="round" stroke-width="22"/>
</g>
</svg>
