<svg width="1em" version="1.1" viewBox="0 0 1024 1024" xmlns="http://www.w3.org/2000/svg" height="1em">
<g>
<path fill="#48473c" opacity="1" d="M313.886+273.243L310.781+359.516C309.813+383.337+328.678+403.06+352.918+403.568L681.543+400.57C705.783+401.078+725.331+382.163+725.205+358.323L724.74+270.557"/>
<path fill="#776f92" d="M876.999+915.886L183.402+915.886C165.861+915.886+152.367+901.685+153.262+884.167L167.853+598.697C167.853+527.055+232.424+483.214+281.359+478.515L413.788+469.661L622.622+469.234L747.281+478.515C808.61+483.214+860.787+527.055+860.787+598.697L876.999+915.886Z" opacity="1"/>
<path fill="#f3d5b9" opacity="1" d="M511.722+110.569L519.278+110.569C617.868+110.569+697.791+196.81+697.791+303.194L697.791+303.194C697.791+409.578+617.868+495.819+519.278+495.819L511.722+495.819C413.131+495.819+333.208+409.578+333.208+303.194L333.208+303.194C333.208+196.81+413.131+110.569+511.722+110.569Z"/>
<path opacity="1" d="M513.641+350.256L518.054+350.256C575.632+350.256+622.309+400.324+622.309+462.085L622.309+462.085C622.309+523.847+575.632+573.914+518.054+573.914L513.641+573.914C456.062+573.914+409.386+523.847+409.386+462.085L409.386+462.085C409.386+400.324+456.062+350.256+513.641+350.256Z" fill="#f3d5b9"/>
<path d="M513.305+86.6999C608.977+81.519+710.289+161.931+728.204+278.227C728.268+292.866+720.906+293.214+702.702+291.41C669.807+288.152+634.895+284.512+588.816+279.406C577.681+278.172+558.536+185.591+558.536+185.591C558.536+185.591+563.196+277.635+548.662+278.13C537.578+278.507+467.352+277.823+455.845+278.768C447.205+279.477+455.845+182.4+455.845+182.4C455.845+182.4+429.924+279.329+422.273+280.044C389.146+283.142+306.296+292.648+309.05+275.577C327.482+161.34+411.611+92.2068+513.305+86.6999Z" opacity="1" fill="#48473c"/>
</g>
</svg>
