<svg width="1em" version="1.1" viewBox="0 0 1024 1024" xmlns="http://www.w3.org/2000/svg" height="1em">
<g>
<path d="M310.845+371.874L314.667+464.747L708.968+460.661L710.385+379.12" opacity="1" fill="#3c2210"/>
<path opacity="1" d="M876.999+915.886L183.402+915.886C165.861+915.886+152.367+901.685+153.262+884.167L167.853+598.697C167.853+527.055+232.424+483.214+281.359+478.515L413.788+469.661L622.622+469.234L747.281+478.515C808.61+483.214+860.787+527.055+860.787+598.697L876.999+915.886Z" fill="#366e1f"/>
<path d="M511.722+112.506L519.278+112.506C617.868+112.506+697.791+203.338+697.791+315.386L697.791+315.386C697.791+427.433+617.868+518.266+519.278+518.266L511.722+518.266C413.131+518.266+333.208+427.433+333.208+315.386L333.208+315.386C333.208+203.338+413.131+112.506+511.722+112.506Z" opacity="1" fill="#dcad81"/>
<path opacity="1" fill="#dcad81" d="M513.641+350.256L518.054+350.256C575.632+350.256+622.309+400.324+622.309+462.085L622.309+462.085C622.309+523.847+575.632+573.914+518.054+573.914L513.641+573.914C456.062+573.914+409.386+523.847+409.386+462.085L409.386+462.085C409.386+400.324+456.062+350.256+513.641+350.256Z"/>
<path opacity="1" fill="#3c2210" d="M467.602+68.9528C476.995+69.752+482.98+68.8969+482.98+68.8969C703.324-55.933+855.415+524.07+676.839+457.723C676.839+457.723+729.668+164.938+515+164.197C300.332+163.456+352.78+457.424+352.78+457.424C160.468+528.454+335.503+57.7141+467.602+68.9528Z"/>
</g>
</svg>
