<svg width="1em" version="1.1" viewBox="0 0 1024 1024" xmlns="http://www.w3.org/2000/svg" height="1em">
<g>
<path opacity="1" fill="#7e38cf" d="M876.999+915.886L183.402+915.886C165.861+915.886+152.367+901.685+153.262+884.167L167.853+598.697C167.853+527.055+232.424+483.214+281.359+478.515L413.788+469.661L622.622+469.234L747.281+478.515C808.61+483.214+860.787+527.055+860.787+598.697L876.999+915.886Z"/>
<path opacity="1" fill="#f5be88" d="M511.722+110.569L519.278+110.569C617.868+110.569+697.791+196.81+697.791+303.194L697.791+303.194C697.791+409.578+617.868+495.819+519.278+495.819L511.722+495.819C413.131+495.819+333.208+409.578+333.208+303.194L333.208+303.194C333.208+196.81+413.131+110.569+511.722+110.569Z"/>
<path d="M513.641+350.256L518.054+350.256C575.632+350.256+622.309+400.324+622.309+462.085L622.309+462.085C622.309+523.847+575.632+573.914+518.054+573.914L513.641+573.914C456.062+573.914+409.386+523.847+409.386+462.085L409.386+462.085C409.386+400.324+456.062+350.256+513.641+350.256Z" opacity="1" fill="#f5be88"/>
<path opacity="1" fill="#272727" d="M508.105+91.161L520.906+91.161C630.139+91.161+718.689+164.946+718.689+255.964L718.689+255.964C718.689+266.184+659.802+239.43+659.802+239.43C659.802+239.43+640.366+264.03+626.518+264.497C612.671+264.965+587.474+241.03+587.474+241.03C587.474+241.03+566.991+260.23+550.35+261.297C533.708+262.364+524.107+239.963+508.105+239.43C492.103+238.897+486.982+265.031+467.78+264.497C448.578+263.964+446.658+237.83+428.736+240.497C410.813+243.163+403.773+261.297+389.691+262.897C375.609+264.497+365.368+238.897+365.368+238.897C365.368+238.897+310.322+263.335+310.322+255.964L310.322+255.964C310.322+164.946+398.872+91.161+508.105+91.161Z"/>
</g>
</svg>
