<svg width="1em" version="1.1" viewBox="0 0 1024 1024" xmlns="http://www.w3.org/2000/svg" height="1em">
<g>
<path fill="#8512c1" d="M876.999+915.886L183.402+915.886C165.861+915.886+152.367+901.685+153.262+884.167L167.853+598.697C167.853+527.055+232.424+483.214+281.359+478.515L413.788+469.661L622.622+469.234L747.281+478.515C808.61+483.214+860.787+527.055+860.787+598.697L876.999+915.886Z" opacity="1"/>
<path opacity="1" fill="#edb689" d="M511.722+110.569L519.278+110.569C617.868+110.569+697.791+196.81+697.791+303.194L697.791+303.194C697.791+409.578+617.868+495.819+519.278+495.819L511.722+495.819C413.131+495.819+333.208+409.578+333.208+303.194L333.208+303.194C333.208+196.81+413.131+110.569+511.722+110.569Z"/>
<path fill="#edb689" d="M513.641+350.256L518.054+350.256C575.632+350.256+622.309+400.324+622.309+462.085L622.309+462.085C622.309+523.847+575.632+573.914+518.054+573.914L513.641+573.914C456.062+573.914+409.386+523.847+409.386+462.085L409.386+462.085C409.386+400.324+456.062+350.256+513.641+350.256Z" opacity="1"/>
<path opacity="1" fill="#383738" d="M632.104+117.651C632.104+117.651+620.205+109.126+631.275+90.3166C646.004+65.2912+697.502+44.1502+734.123+100.228C742.989+113.806+751.297+131.34+765.446+164.988C775.422+188.712+783.395+216.818+789.998+252.264C796.601+287.71+802.985+477.477+786.437+478.337C769.889+479.197+773.378+373.61+738.844+268.332C728.496+236.784+731.84+237.323+706.199+202.19C676.777+161.875+632.104+117.651+632.104+117.651Z"/>
<path d="M401.545+124.306C401.545+124.306+413.276+115.97+402.218+97.7246C387.505+73.4499+336.422+53.0993+300.48+107.774C291.778+121.011+283.651+138.094+269.829+170.869C260.084+193.977+252.345+221.338+246.001+255.831C239.658+290.323+234.365+474.87+250.747+475.64C267.13+476.41+263.106+373.756+296.716+271.249C306.787+240.532+303.481+241.07+328.668+206.805C357.57+167.487+401.545+124.306+401.545+124.306Z" opacity="1" fill="#383738"/>
<path opacity="1" d="M616.068+112.501L616.068+112.501C621.015+108.481+628.58+109.044+632.965+113.759L696.948+182.563C701.333+187.278+700.877+194.36+695.93+198.38L695.93+198.38C690.983+202.401+683.417+201.838+679.033+197.122L615.05+128.319C610.665+123.603+611.121+116.522+616.068+112.501Z" fill="#8512c1"/>
<path d="M418.681+115.501L418.681+115.501C413.734+111.481+406.169+112.044+401.784+116.759L337.801+185.563C333.416+190.278+333.872+197.36+338.819+201.38L338.819+201.38C343.767+205.401+351.332+204.838+355.717+200.122L419.699+131.319C424.084+126.603+423.628+119.522+418.681+115.501Z" opacity="1" fill="#8512c1"/>
<path fill="#fe7640" d="M504.41+35.5532L504.41+35.5532C504.628+35.5532+504.804+35.7296+504.804+35.9473L504.804+35.9473C504.804+36.165+504.628+36.3415+504.41+36.3415L504.41+36.3415C504.192+36.3415+504.016+36.165+504.016+35.9473L504.016+35.9473C504.016+35.7296+504.192+35.5532+504.41+35.5532Z" opacity="1"/>
<path d="M514.804+92.3373C605.552+86.8722+701.649+171.695+718.642+294.37C718.703+309.812+703.472+303.483+686.205+301.58C655.002+298.143+635.629+293.854+591.922+288.468C581.36+287.167+557.707+196.653+557.707+196.653C557.707+196.653+568.195+284.722+556.956+287.844C545.717+290.966+471.091+288.721+460.176+289.717C451.98+290.465+460.302+193.287+460.302+193.287C460.302+193.287+439.959+288.338+432.702+289.093C401.28+292.36+318.451+309.582+321.063+291.575C338.546+171.072+418.345+98.1463+514.804+92.3373Z" opacity="1" fill="#383738"/>
</g>
</svg>
