<svg width="1em" version="1.1" viewBox="0 0 1024 1024" xmlns="http://www.w3.org/2000/svg" height="1em">
<g>
<path fill="#8d1d48" d="M876.999+915.886L183.402+915.886C165.861+915.886+152.367+901.685+153.262+884.167L167.853+598.697C167.853+527.055+232.424+483.214+281.359+478.515L413.788+469.661L622.622+469.234L747.281+478.515C808.61+483.214+860.787+527.055+860.787+598.697L876.999+915.886Z" opacity="1"/>
<path d="M511.722+110.569L519.278+110.569C617.868+110.569+697.791+196.81+697.791+303.194L697.791+303.194C697.791+409.578+617.868+495.819+519.278+495.819L511.722+495.819C413.131+495.819+333.208+409.578+333.208+303.194L333.208+303.194C333.208+196.81+413.131+110.569+511.722+110.569Z" opacity="1" fill="#fbd9aa"/>
<path opacity="1" d="M513.641+350.256L518.054+350.256C575.632+350.256+622.309+400.324+622.309+462.085L622.309+462.085C622.309+523.847+575.632+573.914+518.054+573.914L513.641+573.914C456.062+573.914+409.386+523.847+409.386+462.085L409.386+462.085C409.386+400.324+456.062+350.256+513.641+350.256Z" fill="#fbd9aa"/>
<path opacity="1" d="M503.645+100.114L506.859+100.76C702.917+90.4308+709.346+280.87+709.346+280.87C709.346+308.88+463.147+308.629+456.719+288.616C449.914+267.431+490.788+277.642+470.861+165.961C384.724+290.553+437.222+274.646+434.221+286.034C428.435+307.983+314.014+310.565+314.657+283.452C317.611+158.87+413.651+81.393+503.645+100.114Z" fill="#e5bc65"/>
</g>
</svg>
