<svg width="1em" version="1.1" viewBox="0 0 1024 1024" xmlns="http://www.w3.org/2000/svg" height="1em">
<g>
<path d="M492.727+482.597L492.746+482.562C520.219+492.103+582.015+481.405+592.547+459.876C614.484+459.937+654.444+444.432+664.911+413.412C706.893+397.919+699.401+380.029+697.921+354.351C739.986+330.534+728.747+302.506+716.884+287.598C705.02+272.69+653.682+274.566+612.848+302.86C549.594+302.095+491.9+328.204+514.581+331.918C537.944+335.743+476.617+306.299+423.087+310.507C384.539+287.182+318.523+263.712+318.523+287.598C318.523+287.598+329.732+275.363+317.398+289.095C305.064+302.827+303.537+313.837+323.418+331.076C312.903+351.405+305.41+380.029+349.874+388.326C329.137+415.809+355.986+437.873+399.079+433.206C399.069+476.634+467.752+493.928+492.727+482.597Z" opacity="1" fill="#474645"/>
<path opacity="1" d="M876.999+915.886L183.402+915.886C165.861+915.886+152.367+901.685+153.262+884.167L167.853+598.697C167.853+527.055+232.424+483.214+281.359+478.515L413.788+469.661L622.622+469.234L747.281+478.515C808.61+483.214+860.787+527.055+860.787+598.697L876.999+915.886Z" fill="#d16456"/>
<path d="M511.722+110.569L519.278+110.569C617.868+110.569+697.791+196.81+697.791+303.194L697.791+303.194C697.791+409.578+617.868+495.819+519.278+495.819L511.722+495.819C413.131+495.819+333.208+409.578+333.208+303.194L333.208+303.194C333.208+196.81+413.131+110.569+511.722+110.569Z" opacity="1" fill="#bb8a66"/>
<path fill="#bb8a66" d="M513.641+350.256L518.054+350.256C575.632+350.256+622.309+400.324+622.309+462.085L622.309+462.085C622.309+523.847+575.632+573.914+518.054+573.914L513.641+573.914C456.062+573.914+409.386+523.847+409.386+462.085L409.386+462.085C409.386+400.324+456.062+350.256+513.641+350.256Z" opacity="1"/>
<path fill="#474645" d="M490.705+92.4098L490.724+92.447C518.28+82.4567+580.263+93.6585+590.826+116.2C612.83+116.137+652.912+132.371+663.41+164.851C705.519+181.073+698.004+199.805+696.52+226.691C738.712+251.629+727.439+280.976+715.54+296.585C708.54+305.768+687.454+304.078+667.473+287.22C640+291.59+628.053+292.804+611.189+280.606C590.905+280.862+585.012+280.027+558.205+262.868C533.854+272.234+497.148+252.825+512.625+250.18C529.262+247.337+495.766+277.854+470.166+257.249C455.805+274.107+436.425+273.877+420.854+272.599C407.18+281.236+394.615+284.722+366.517+279.102C354.029+298.459+315.973+312.751+315.973+296.585C315.973+296.585+327.216+309.396+314.845+295.018C302.474+280.64+300.942+269.112+320.883+251.062C310.336+229.776+302.821+199.805+347.419+191.117C326.619+162.341+353.549+139.239+396.773+144.126C396.763+98.6537+465.654+80.5463+490.705+92.4098Z" opacity="1"/>
</g>
</svg>
