<svg width="1em" version="1.1" viewBox="0 0 1024 1024" xmlns="http://www.w3.org/2000/svg" height="1em">
<g>
<path opacity="1" fill="#857a81" d="M328.429+265.366L703.063+267.239L738.029+580.059L289.717+577.561"/>
<path d="M876.999+915.886L183.402+915.886C165.861+915.886+152.367+901.685+153.262+884.167L167.853+598.697C167.853+527.055+232.424+483.214+281.359+478.515L413.788+469.661L622.622+469.234L747.281+478.515C808.61+483.214+860.787+527.055+860.787+598.697L876.999+915.886Z" opacity="1" fill="#95a8e6"/>
<path d="M511.722+110.569L519.278+110.569C617.868+110.569+697.791+196.81+697.791+303.194L697.791+303.194C697.791+409.578+617.868+495.819+519.278+495.819L511.722+495.819C413.131+495.819+333.208+409.578+333.208+303.194L333.208+303.194C333.208+196.81+413.131+110.569+511.722+110.569Z" opacity="1" fill="#ffe5c0"/>
<path d="M513.641+350.256L518.054+350.256C575.632+350.256+622.309+400.324+622.309+462.085L622.309+462.085C622.309+523.847+575.632+573.914+518.054+573.914L513.641+573.914C456.062+573.914+409.386+523.847+409.386+462.085L409.386+462.085C409.386+400.324+456.062+350.256+513.641+350.256Z" fill="#ffe5c0" opacity="1"/>
<path opacity="1" fill="#857a81" d="M512.804+55.2355C603.552+49.4018+699.649+139.946+716.642+270.895C716.703+287.379+709.72+287.77+692.453+285.74C661.251+282.071+628.137+277.972+584.429+272.223C573.868+270.834+555.707+166.587+555.707+166.587C555.707+166.587+560.127+270.229+546.341+270.786C535.828+271.211+469.217+270.441+458.302+271.504C450.107+272.303+458.302+162.994+458.302+162.994C458.302+162.994+433.715+272.136+426.459+272.942C395.036+276.429+316.451+287.133+319.063+267.911C336.546+139.28+416.345+61.4363+512.804+55.2355Z"/>
</g>
</svg>
