<svg width="1em" version="1.1" viewBox="0 0 1024 1024" xmlns="http://www.w3.org/2000/svg" height="1em">
<g>
<path d="M876.999+915.886L183.402+915.886C165.861+915.886+152.367+901.685+153.262+884.167L167.853+598.697C167.853+527.055+232.424+483.214+281.359+478.515L413.788+469.661L622.622+469.234L747.281+478.515C808.61+483.214+860.787+527.055+860.787+598.697L876.999+915.886Z" fill="#7c8327" opacity="1"/>
<path d="M511.722+110.569L519.278+110.569C617.868+110.569+697.791+196.81+697.791+303.194L697.791+303.194C697.791+409.578+617.868+495.819+519.278+495.819L511.722+495.819C413.131+495.819+333.208+409.578+333.208+303.194L333.208+303.194C333.208+196.81+413.131+110.569+511.722+110.569Z" opacity="1" fill="#fbc19e"/>
<path d="M513.641+350.256L518.054+350.256C575.632+350.256+622.309+400.324+622.309+462.085L622.309+462.085C622.309+523.847+575.632+573.914+518.054+573.914L513.641+573.914C456.062+573.914+409.386+523.847+409.386+462.085L409.386+462.085C409.386+400.324+456.062+350.256+513.641+350.256Z" opacity="1" fill="#fbc19e"/>
<path d="M505.756+93.4576L518.244+93.4576C624.8+93.4576+711.18+193.853+711.18+317.697L711.18+317.697C711.18+348.023+638.751+262.544+580.059+231.339C553.299+217.112+497.26+208.391+447.063+229.888C374.74+260.861+312.82+354.56+312.82+317.697L312.82+317.697C312.82+193.853+399.2+93.4576+505.756+93.4576Z" opacity="1" fill="#690f03"/>
</g>
</svg>
