<svg width="1em" version="1.1" viewBox="0 0 1024 1024" xmlns="http://www.w3.org/2000/svg" height="1em">
<g>
<g opacity="1">
<path fill="#494648" opacity="1" d="M322.81+240.493L296.966+377.399C283.652+429.791+316.014+481.895+354.654+482.183L671.22+483.085C709.859+483.372+747.964+432.723+736.341+379.498L711.805+246.805"/>
<path fill="none" opacity="1" d=""/>
</g>
<path fill="#f7a9b0" d="M876.999+915.886L183.402+915.886C165.861+915.886+152.367+901.685+153.262+884.167L167.853+598.697C167.853+527.055+232.424+483.214+281.359+478.515L413.788+469.661L622.622+469.234L747.281+478.515C808.61+483.214+860.787+527.055+860.787+598.697L876.999+915.886Z" opacity="1"/>
<path opacity="1" fill="#ffe5c0" d="M511.722+110.569L519.278+110.569C617.868+110.569+697.791+196.81+697.791+303.194L697.791+303.194C697.791+409.578+617.868+495.819+519.278+495.819L511.722+495.819C413.131+495.819+333.208+409.578+333.208+303.194L333.208+303.194C333.208+196.81+413.131+110.569+511.722+110.569Z"/>
<path fill="#ffe5c0" d="M513.641+350.256L518.054+350.256C575.632+350.256+622.309+400.324+622.309+462.085L622.309+462.085C622.309+523.847+575.632+573.914+518.054+573.914L513.641+573.914C456.062+573.914+409.386+523.847+409.386+462.085L409.386+462.085C409.386+400.324+456.062+350.256+513.641+350.256Z" opacity="1"/>
<path d="M512.804+55.2155C603.552+49.8189+699.649+133.578+716.642+254.715C716.703+269.965+709.72+270.326+692.453+268.448C661.251+265.054+616.273+261.318+572.566+256C562.004+254.715+555.707+158.224+555.707+158.224C555.707+158.224+559.104+250.407+552.477+254.441C536.867+263.943+469.487+253.165+458.572+254.149C450.376+254.888+458.302+154.9+458.302+154.9C458.302+154.9+448.701+252.757+441.444+253.502C410.022+256.729+316.451+269.737+319.063+251.956C336.546+132.963+416.345+60.9517+512.804+55.2155Z" opacity="1" fill="#494648"/>
</g>
</svg>
