<svg width="1em" version="1.1" viewBox="0 0 1024 1024" xmlns="http://www.w3.org/2000/svg" height="1em">
<g>
<path d="M876.999+915.886L183.402+915.886C165.861+915.886+152.367+901.685+153.262+884.167L167.853+598.697C167.853+527.055+232.424+483.214+281.359+478.515L413.788+469.661L622.622+469.234L747.281+478.515C808.61+483.214+860.787+527.055+860.787+598.697L876.999+915.886Z" opacity="1" fill="#e579b8"/>
<path d="M511.722+110.569L519.278+110.569C617.868+110.569+697.791+196.81+697.791+303.194L697.791+303.194C697.791+409.578+617.868+495.819+519.278+495.819L511.722+495.819C413.131+495.819+333.208+409.578+333.208+303.194L333.208+303.194C333.208+196.81+413.131+110.569+511.722+110.569Z" fill="#ffccac" opacity="1"/>
<path d="M513.641+350.256L518.054+350.256C575.632+350.256+622.309+400.324+622.309+462.085L622.309+462.085C622.309+523.847+575.632+573.914+518.054+573.914L513.641+573.914C456.062+573.914+409.386+523.847+409.386+462.085L409.386+462.085C409.386+400.324+456.062+350.256+513.641+350.256Z" fill="#ffccac" opacity="1"/>
<path d="M635.585+128.555C635.585+128.555+622.606+120.549+636.118+104.581C654.094+83.3369+713.38+67.1677+751.719+117.942C761.002+130.236+772.944+162.046+784.214+193.356C792.494+216.362+800.412+239.098+806.644+253.624C813.632+275.182+827.367+321.244+814.248+331.93C801.13+342.615+714.71+205.959+714.71+205.959L635.585+128.555Z" opacity="1" fill="#403d3f"/>
<path d="M399.164+131.555C399.164+131.555+412.143+123.549+398.632+107.581C380.655+86.3369+321.369+70.1677+283.03+120.942C273.748+133.236+261.805+165.046+250.536+196.356C242.255+219.362+234.338+242.098+228.105+256.624C221.117+278.182+207.383+324.244+220.501+334.93C233.619+345.615+320.039+208.959+320.039+208.959L399.164+131.555Z" opacity="1" fill="#403d3f"/>
<path opacity="1" fill="#e579ac" d="M616.068+112.501L616.068+112.501C621.015+108.481+628.58+109.044+632.965+113.759L696.948+182.563C701.333+187.278+700.877+194.36+695.93+198.38L695.93+198.38C690.983+202.401+683.417+201.838+679.033+197.122L615.05+128.319C610.665+123.603+611.121+116.522+616.068+112.501Z"/>
<path opacity="1" d="M418.681+115.501L418.681+115.501C413.734+111.481+406.169+112.044+401.784+116.759L337.801+185.563C333.416+190.278+333.872+197.36+338.819+201.38L338.819+201.38C343.767+205.401+351.332+204.838+355.717+200.122L419.699+131.319C424.084+126.603+423.628+119.522+418.681+115.501Z" fill="#e579ac"/>
<path d="M504.41+35.5532L504.41+35.5532C504.628+35.5532+504.804+35.7296+504.804+35.9473L504.804+35.9473C504.804+36.165+504.628+36.3415+504.41+36.3415L504.41+36.3415C504.192+36.3415+504.016+36.165+504.016+35.9473L504.016+35.9473C504.016+35.7296+504.192+35.5532+504.41+35.5532Z" fill="#fe7640" opacity="1"/>
<path opacity="1" fill="#403d3f" d="M514.804+92.3373C605.552+86.8722+701.649+171.695+718.642+294.37C718.703+309.812+711.72+310.179+694.453+308.277C663.251+304.839+630.137+301+586.429+295.614C575.868+294.313+557.707+196.653+557.707+196.653C557.707+196.653+562.127+293.746+548.341+294.268C537.828+294.666+471.217+293.944+460.302+294.941C452.107+295.689+460.302+193.287+460.302+193.287C460.302+193.287+435.715+295.533+428.459+296.287C397.036+299.554+318.451+309.582+321.063+291.575C338.546+171.072+418.345+98.1463+514.804+92.3373Z"/>
</g>
</svg>
