<svg width="1em" version="1.1" viewBox="0 0 1024 1024" xmlns="http://www.w3.org/2000/svg" height="1em">
<g>
<path opacity="1" fill="#8dd6cb" d="M876.999+915.886L183.402+915.886C165.861+915.886+152.367+901.685+153.262+884.167L167.853+598.697C167.853+527.055+232.424+483.214+281.359+478.515L413.788+469.661L622.622+469.234L747.281+478.515C808.61+483.214+860.787+527.055+860.787+598.697L876.999+915.886Z"/>
<path opacity="1" d="M511.722+110.569L519.278+110.569C617.868+110.569+697.791+196.81+697.791+303.194L697.791+303.194C697.791+409.578+617.868+495.819+519.278+495.819L511.722+495.819C413.131+495.819+333.208+409.578+333.208+303.194L333.208+303.194C333.208+196.81+413.131+110.569+511.722+110.569Z" fill="#ffdcb8"/>
<path d="M513.641+350.256L518.054+350.256C575.632+350.256+622.309+400.324+622.309+462.085L622.309+462.085C622.309+523.847+575.632+573.914+518.054+573.914L513.641+573.914C456.062+573.914+409.386+523.847+409.386+462.085L409.386+462.085C409.386+400.324+456.062+350.256+513.641+350.256Z" opacity="1" fill="#ffdcb8"/>
<path fill="#74601c" opacity="1" d="M490.146+92.4098L490.165+92.447C517.638+82.4567+579.434+93.6585+589.966+116.2C611.902+116.137+651.863+132.371+662.33+164.851C704.312+181.073+696.82+199.805+695.34+226.691C737.405+251.629+726.166+280.976+714.302+296.585C702.439+312.195+651.101+310.231+610.266+280.606C547.013+281.406+489.319+254.068+512+250.18C535.362+246.175+474.036+277.004+420.506+272.599C381.958+297.021+315.941+321.596+315.941+296.585C315.941+296.585+327.151+309.396+314.817+295.018C302.483+280.64+300.956+269.112+320.837+251.062C310.322+229.776+302.829+199.805+347.293+191.117C326.556+162.341+353.405+139.239+396.498+144.126C396.488+98.6537+465.171+80.5463+490.146+92.4098Z"/>
</g>
</svg>
