<svg width="1em" version="1.1" viewBox="0 0 1024 1024" xmlns="http://www.w3.org/2000/svg" height="1em">
<g>
<path d="M876.999+915.886L183.402+915.886C165.861+915.886+152.367+901.685+153.262+884.167L167.853+598.697C167.853+527.055+232.424+483.214+281.359+478.515L413.788+469.661L622.622+469.234L747.281+478.515C808.61+483.214+860.787+527.055+860.787+598.697L876.999+915.886Z" opacity="1" fill="#61b9f5"/>
<path d="M511.722+110.569L519.278+110.569C617.868+110.569+697.791+196.81+697.791+303.194L697.791+303.194C697.791+409.578+617.868+495.819+519.278+495.819L511.722+495.819C413.131+495.819+333.208+409.578+333.208+303.194L333.208+303.194C333.208+196.81+413.131+110.569+511.722+110.569Z" opacity="1" fill="#ecc67e"/>
<path opacity="1" d="M513.641+350.256L518.054+350.256C575.632+350.256+622.309+400.324+622.309+462.085L622.309+462.085C622.309+523.847+575.632+573.914+518.054+573.914L513.641+573.914C456.062+573.914+409.386+523.847+409.386+462.085L409.386+462.085C409.386+400.324+456.062+350.256+513.641+350.256Z" fill="#ecc67e"/>
<path opacity="1" fill="#55463e" d="M508.878+85.4409L521.366+85.4409C627.922+85.4409+707.264+165.59+707.264+279.423L697.512+346.096C678.845+407.709+691.08+314.259+641.857+233.082C624.879+205.083+473.192+176.148+380.689+225.725C366.636+233.257+349.59+358.164+338.616+369.772C331.969+376.803+320.771+306.805+334.049+196.168C336.923+172.216+319.928+199.764+308.05+169.505C308.05+169.505+318.546+167.26+330.302+153.478C335.309+147.609+308.5+135.402+313.444+130.132C353.022+87.9397+445.107+85.4409+508.878+85.4409Z"/>
</g>
</svg>
