<svg width="1em" version="1.1" viewBox="0 0 1024 1024" xmlns="http://www.w3.org/2000/svg" height="1em">
<g>
<path fill="#b275be" d="M876.999+915.886L183.402+915.886C165.861+915.886+152.367+901.685+153.262+884.167L167.853+598.697C167.853+527.055+232.424+483.214+281.359+478.515L413.788+469.661L622.622+469.234L747.281+478.515C808.61+483.214+860.787+527.055+860.787+598.697L876.999+915.886Z" opacity="1"/>
<path d="M511.722+110.569L519.278+110.569C617.868+110.569+697.791+196.81+697.791+303.194L697.791+303.194C697.791+409.578+617.868+495.819+519.278+495.819L511.722+495.819C413.131+495.819+333.208+409.578+333.208+303.194L333.208+303.194C333.208+196.81+413.131+110.569+511.722+110.569Z" opacity="1" fill="#ffe5c0"/>
<path d="M513.641+350.256L518.054+350.256C575.632+350.256+622.309+400.324+622.309+462.085L622.309+462.085C622.309+523.847+575.632+573.914+518.054+573.914L513.641+573.914C456.062+573.914+409.386+523.847+409.386+462.085L409.386+462.085C409.386+400.324+456.062+350.256+513.641+350.256Z" opacity="1" fill="#ffe5c0"/>
<path d="M512.804+87.3128C603.552+82.3842+699.649+158.88+716.642+269.512C716.703+283.438+709.72+283.769+692.453+282.053C661.251+278.954+628.137+275.491+584.429+270.634C573.868+269.46+555.707+181.388+555.707+181.388C555.707+181.388+560.127+268.949+546.341+269.42C535.828+269.778+469.217+269.128+458.302+270.027C450.107+270.701+458.302+178.352+458.302+178.352C458.302+178.352+433.715+270.56+426.459+271.241C395.036+274.187+316.451+283.231+319.063+266.991C336.546+158.318+416.345+92.5515+512.804+87.3128Z" fill="#757462" opacity="1"/>
</g>
</svg>
