<svg width="1em" version="1.1" viewBox="0 0 1024 1024" xmlns="http://www.w3.org/2000/svg" height="1em">
<g>
<path opacity="1" fill="#6b5946" d="M310.845+374.025L314.667+433.83L708.968+431.199L710.385+378.692"/>
<path d="M876.999+915.886L183.402+915.886C165.861+915.886+152.367+901.685+153.262+884.167L167.853+598.697C167.853+527.055+232.424+483.214+281.359+478.515L413.788+469.661L622.622+469.234L747.281+478.515C808.61+483.214+860.787+527.055+860.787+598.697L876.999+915.886Z" fill="#9b2b3c" opacity="1"/>
<path fill="#fed7b9" opacity="1" d="M511.722+110.569L519.278+110.569C617.868+110.569+697.791+196.81+697.791+303.194L697.791+303.194C697.791+409.578+617.868+495.819+519.278+495.819L511.722+495.819C413.131+495.819+333.208+409.578+333.208+303.194L333.208+303.194C333.208+196.81+413.131+110.569+511.722+110.569Z"/>
<path d="M513.641+350.256L518.054+350.256C575.632+350.256+622.309+400.324+622.309+462.085L622.309+462.085C622.309+523.847+575.632+573.914+518.054+573.914L513.641+573.914C456.062+573.914+409.386+523.847+409.386+462.085L409.386+462.085C409.386+400.324+456.062+350.256+513.641+350.256Z" fill="#fed7b9" opacity="1"/>
<path fill="#6b5946" d="M467.602+79.3056C476.995+80.0209+482.98+79.2556+482.98+79.2556C703.324-32.4697+855.415+486.644+676.839+427.263C676.839+427.263+729.668+165.215+515+164.551C300.332+163.888+352.78+426.995+352.78+426.995C160.468+490.569+335.503+69.2467+467.602+79.3056Z" opacity="1"/>
</g>
</svg>
