<svg width="1em" version="1.1" viewBox="0 0 1024 1024" xmlns="http://www.w3.org/2000/svg" height="1em">
<g>
<g opacity="1">
<path opacity="1" fill="#69503e" d="M333.03+280.984L289.642+523.879L718.891+530.107L698.065+273.199"/>
<path d="" fill="none" opacity="1"/>
</g>
<path fill="#9bdff6" opacity="1" d="M876.999+915.886L183.402+915.886C165.861+915.886+152.367+901.685+153.262+884.167L167.853+598.697C167.853+527.055+232.424+483.214+281.359+478.515L413.788+469.661L622.622+469.234L747.281+478.515C808.61+483.214+860.787+527.055+860.787+598.697L876.999+915.886Z"/>
<path fill="#ffd1ba" d="M511.722+110.569L519.278+110.569C617.868+110.569+697.791+196.81+697.791+303.194L697.791+303.194C697.791+409.578+617.868+495.819+519.278+495.819L511.722+495.819C413.131+495.819+333.208+409.578+333.208+303.194L333.208+303.194C333.208+196.81+413.131+110.569+511.722+110.569Z" opacity="1"/>
<path fill="#ffd1ba" d="M513.641+350.256L518.054+350.256C575.632+350.256+622.309+400.324+622.309+462.085L622.309+462.085C622.309+523.847+575.632+573.914+518.054+573.914L513.641+573.914C456.062+573.914+409.386+523.847+409.386+462.085L409.386+462.085C409.386+400.324+456.062+350.256+513.641+350.256Z" opacity="1"/>
<path fill="#69503e" opacity="1" d="M504.21+89.9298C521.057+89.4343+538.719+91.5648+538.719+91.5648C675.868+95.6521+708.522+232.44+704.953+387.489C704.953+387.489+674.444+168.407+521.262+165.137C368.081+161.867+321.676+360.513+321.676+360.513C325.245+205.464+365.248+94.0172+504.21+89.9298Z"/>
</g>
</svg>
