<svg width="1em" version="1.1" viewBox="0 0 1024 1024" xmlns="http://www.w3.org/2000/svg" height="1em">
<g>
<g opacity="1">
<path opacity="1" d="M331.551+272.859L294.468+386.015C281.154+426.642+301.685+459.757+340.324+459.98L684.924+461.97C723.564+462.193+745.466+428.915+733.844+387.642L703.688+280.551" fill="#332e29"/>
<path d="" opacity="1" fill="none"/>
</g>
<path d="M876.999+915.886L183.402+915.886C165.861+915.886+152.367+901.685+153.262+884.167L167.853+598.697C167.853+527.055+232.424+483.214+281.359+478.515L413.788+469.661L622.622+469.234L747.281+478.515C808.61+483.214+860.787+527.055+860.787+598.697L876.999+915.886Z" opacity="1" fill="#799740"/>
<path opacity="1" fill="#fedbbd" d="M511.722+110.569L519.278+110.569C617.868+110.569+697.791+196.81+697.791+303.194L697.791+303.194C697.791+409.578+617.868+495.819+519.278+495.819L511.722+495.819C413.131+495.819+333.208+409.578+333.208+303.194L333.208+303.194C333.208+196.81+413.131+110.569+511.722+110.569Z"/>
<path fill="#fedbbd" d="M513.641+350.256L518.054+350.256C575.632+350.256+622.309+400.324+622.309+462.085L622.309+462.085C622.309+523.847+575.632+573.914+518.054+573.914L513.641+573.914C456.062+573.914+409.386+523.847+409.386+462.085L409.386+462.085C409.386+400.324+456.062+350.256+513.641+350.256Z" opacity="1"/>
<path d="M512.624+89.9122L525.112+89.9122C631.668+89.9122+718.049+176.293+718.049+282.849L718.049+282.849C718.049+335.674+469.541+147.356+513.249+139.863C556.956+132.371+319.688+336.58+319.688+282.849L319.688+282.849C319.688+176.293+406.068+89.9122+512.624+89.9122Z" opacity="1" fill="#332e29"/>
</g>
</svg>
