<svg width="1em" version="1.1" viewBox="0 0 1024 1024" xmlns="http://www.w3.org/2000/svg" height="1em">
<g>
<g opacity="1">
<path fill="#332e2f" opacity="1" d="M320.312+279.102L294.468+372.207C281.154+407.837+313.516+443.271+352.156+443.467L668.722+444.08C707.362+444.276+745.466+409.831+733.844+373.634L709.307+283.396"/>
<path opacity="1" fill="none" d=""/>
</g>
<path d="M876.999+915.886L183.402+915.886C165.861+915.886+152.367+901.685+153.262+884.167L167.853+598.697C167.853+527.055+232.424+483.214+281.359+478.515L413.788+469.661L622.622+469.234L747.281+478.515C808.61+483.214+860.787+527.055+860.787+598.697L876.999+915.886Z" opacity="1" fill="#ff5d96"/>
<path d="M511.722+110.569L519.278+110.569C617.868+110.569+697.791+196.81+697.791+303.194L697.791+303.194C697.791+409.578+617.868+495.819+519.278+495.819L511.722+495.819C413.131+495.819+333.208+409.578+333.208+303.194L333.208+303.194C333.208+196.81+413.131+110.569+511.722+110.569Z" opacity="1" fill="#e5ab82"/>
<path fill="#e5ab82" d="M513.641+350.256L518.054+350.256C575.632+350.256+622.309+400.324+622.309+462.085L622.309+462.085C622.309+523.847+575.632+573.914+518.054+573.914L513.641+573.914C456.062+573.914+409.386+523.847+409.386+462.085L409.386+462.085C409.386+400.324+456.062+350.256+513.641+350.256Z" opacity="1"/>
<path opacity="1" fill="#332e2f" d="M506.259+91.161L518.746+91.161C625.302+91.161+711.683+177.542+711.683+284.098L711.683+284.098C711.683+310.614+613.731+290.957+513.751+290.966C414.553+290.974+313.322+310.858+313.322+284.098L313.322+284.098C313.322+177.542+399.703+91.161+506.259+91.161Z"/>
</g>
</svg>
