<svg width="1em" version="1.1" viewBox="0 0 1024 1024" xmlns="http://www.w3.org/2000/svg" height="1em">
<g>
<path d="M876.999+915.886L183.402+915.886C165.861+915.886+152.367+901.685+153.262+884.167L167.853+598.697C167.853+527.055+232.424+483.214+281.359+478.515L413.788+469.661L622.622+469.234L747.281+478.515C808.61+483.214+860.787+527.055+860.787+598.697L876.999+915.886Z" opacity="1" fill="#0c8435"/>
<path opacity="1" fill="#d29367" d="M511.722+110.569L519.278+110.569C617.868+110.569+697.791+196.81+697.791+303.194L697.791+303.194C697.791+409.578+617.868+495.819+519.278+495.819L511.722+495.819C413.131+495.819+333.208+409.578+333.208+303.194L333.208+303.194C333.208+196.81+413.131+110.569+511.722+110.569Z"/>
<path d="M513.641+350.256L518.054+350.256C575.632+350.256+622.309+400.324+622.309+462.085L622.309+462.085C622.309+523.847+575.632+573.914+518.054+573.914L513.641+573.914C456.062+573.914+409.386+523.847+409.386+462.085L409.386+462.085C409.386+400.324+456.062+350.256+513.641+350.256Z" fill="#d29367" opacity="1"/>
<path opacity="1" d="M503.259+91.161L515.746+91.161C622.302+91.161+708.683+177.542+708.683+284.098L708.683+284.098C708.683+296.062+651.239+264.741+651.239+264.741C651.239+264.741+632.279+293.54+618.771+294.088C605.263+294.635+580.683+266.615+580.683+266.615C580.683+266.615+560.702+289.093+544.468+290.341C528.234+291.59+518.868+265.366+503.259+264.741C487.649+264.117+482.654+294.712+463.922+294.088C445.19+293.463+443.317+262.868+425.834+265.99C408.351+269.112+401.483+290.341+387.746+292.215C374.01+294.088+364.02+264.117+364.02+264.117C364.02+264.117+310.322+292.727+310.322+284.098L310.322+284.098C310.322+177.542+396.703+91.161+503.259+91.161Z" fill="#614425"/>
</g>
</svg>
