<?xml version="1.0" encoding="UTF-8" standalone="no"?> <!-- Created with Vectornator for iOS (http://vectornator.io/) --><!DOCTYPE svg PUBLIC "-//W3C//DTD SVG 1.1//EN" "http://www.w3.org/Graphics/SVG/1.1/DTD/svg11.dtd">
<svg height="100%" version="1.1" style="fill-rule:nonzero;clip-rule:evenodd;stroke-linecap:round;stroke-linejoin:round;" width="100%" viewBox="0 0 1024 1024" xml:space="preserve" xmlns="http://www.w3.org/2000/svg" xmlns:vectornator="http://vectornator.io" xmlns:xlink="http://www.w3.org/1999/xlink">
<metadata>
<vectornator:setting value="false" key="WDSnapToEdges"/>
<vectornator:setting key="WDIsolateActiveLayer" value="false"/>
<vectornator:setting value="true" key="VNSnapToGuides"/>
<vectornator:setting key="WDCMYKEnabledKey" value="false"/>
<vectornator:setting key="WDGuidesVisible" value="true"/>
<vectornator:setting key="WDSnapToPoints" value="false"/>
<vectornator:setting key="WDRulersVisible" value="true"/>
<vectornator:setting key="WDDisplayWhiteBackground" value="false"/>
<vectornator:setting value="false" key="IsTimeLapseWatermarkDisabled"/>
<vectornator:setting key="WDDynamicGuides" value="false"/>
<vectornator:setting key="VNDimensionsVisible" value="true"/>
<vectornator:setting value="false" key="WDOutlineMode"/>
<vectornator:setting key="VNPencilOnly" value="false"/>
<vectornator:setting key="WDSnapToGrid" value="false"/>
<vectornator:setting value="Pixels" key="WDUnits"/>
<vectornator:setting value="false" key="UndoHistoryDisabled"/>
</metadata>
<defs/>
<g id="레이어 1" vectornator:layerName="레이어 1">
<path d="M431.989+274.123C301.929+317.44+231.976+459.091+275.746+590.508C319.515+721.926+460.432+793.346+590.492+750.029C720.552+706.712+790.504+565.061+746.735+433.643C702.965+302.225+562.049+230.805+431.989+274.123Z" stroke-width="70" stroke-linecap="round" fill="#ff4500" stroke="#ff4500" stroke-linejoin="round" opacity="1"/>
<path stroke="#ff4500" opacity="1" d="M362.458+65.8203L396.934+169.334M626.773+859.427L661.249+962.941M962.516+364.285L858.517+398.922M165.19+629.838L61.1914+664.476M724.872+91.0849L675.719+188.758M347.988+840.003L298.835+937.676M936.14+725.418L838.239+676.722M185.468+352.039L87.5667+303.343" fill="#ff4500" stroke-linecap="round" stroke-linejoin="round" stroke-width="70"/>
</g>
</svg>
